Fraunces-RegularOpMid.ufo
<glyph name="exclam" format="2">
  <advance width="241.36111111111111"/>
  <unicode hex="0021"/>
  <outline>
    <contour>
      <point x="123.38888888888889" y="717.7222222222222" type="curve" smooth="yes"/>
      <point x="156.46791187739464" y="717.7222222222222"/>
      <point x="174.47222222222223" y="696.8333333333334"/>
      <point x="174.47222222222223" y="666.4722222222222" type="curve" smooth="yes"/>
      <point x="174.47222222222223" y="661.4722222222222"/>
      <point x="173.47222222222223" y="653.4722222222222"/>
      <point x="173.47222222222223" y="648.4722222222222" type="curve" smooth="yes"/>
      <point x="140.52777777777777" y="203.13888888888889" type="line" smooth="yes"/>
      <point x="139.58333333333334" y="190.47222222222223"/>
      <point x="134.69444444444446" y="184.16666666666666"/>
      <point x="124.38888888888889" y="184.16666666666666" type="curve" smooth="yes"/>
      <point x="114.61111111111111" y="184.16666666666666"/>
      <point x="109.72222222222223" y="191.0"/>
      <point x="108.25" y="204.61111111111111" type="curve" smooth="yes"/>
      <point x="73.83333333333333" y="641.0" type="line" smooth="yes"/>
      <point x="72.83333333333333" y="650.0"/>
      <point x="72.83333333333333" y="659.0"/>
      <point x="72.83333333333333" y="666.0" type="curve" smooth="yes"/>
      <point x="72.83333333333333" y="701.3055555555555"/>
      <point x="91.49351851851851" y="717.7222222222222"/>
    </contour>
    <component base="period" xScale="0.9329999999999999" yScale="0.9329999999999999" xOffset="9.63888888888889" yOffset="-1.0"/>
  </outline>
</glyph>
<glyph name="numbersign" format="2">
  <advance width="576.8888888888889"/>
  <unicode hex="0023"/>
  <outline>
    <contour>
      <point x="192.88888888888889" y="312.27777777777777" type="curve" smooth="yes"/>
      <point x="169.30555555555554" y="95.94444444444444"/>
      <point x="132.25" y="60.888888888888886"/>
      <point x="134.25" y="22.833333333333332" type="curve" smooth="yes"/>
      <point x="135.25" y="-0.05555555555555558"/>
      <point x="149.66666666666666" y="-16.0"/>
      <point x="170.08333333333334" y="-16.0" type="curve" smooth="yes"/>
      <point x="187.08333333333334" y="-16.0"/>
      <point x="206.44444444444446" y="-7.527777777777778"/>
      <point x="209.44444444444446" y="20.833333333333332" type="curve" smooth="yes"/>
      <point x="214.44444444444446" y="56.416666666666664"/>
      <point x="196.22222222222223" y="95.0"/>
      <point x="220.27777777777777" y="312.27777777777777" type="curve" smooth="yes"/>
      <point x="242.86111111111111" y="525.0833333333334"/>
      <point x="278.44444444444446" y="562.1388888888889"/>
      <point x="276.44444444444446" y="601.1944444444445" type="curve" smooth="yes"/>
      <point x="275.44444444444446" y="624.6111111111111"/>
      <point x="261.97222222222223" y="639.5555555555555"/>
      <point x="241.5" y="639.5555555555555" type="curve" smooth="yes"/>
      <point x="219.13888888888889" y="639.5555555555555"/>
      <point x="203.72222222222223" y="628.6111111111111"/>
      <point x="199.25" y="599.1944444444445" type="curve" smooth="yes"/>
      <point x="193.77777777777777" y="556.6666666666666"/>
      <point x="217.88888888888889" y="545.4166666666666"/>
    </contour>
    <contour>
      <point x="362.0833333333333" y="312.27777777777777" type="curve" smooth="yes"/>
      <point x="340.55555555555554" y="96.94444444444444"/>
      <point x="301.44444444444446" y="60.888888888888886"/>
      <point x="303.44444444444446" y="22.833333333333332" type="curve" smooth="yes"/>
      <point x="304.44444444444446" y="-0.05555555555555558"/>
      <point x="318.8611111111111" y="-16.0"/>
      <point x="339.27777777777777" y="-16.0" type="curve" smooth="yes"/>
      <point x="356.27777777777777" y="-16.0"/>
      <point x="376.1666666666667" y="-7.527777777777778"/>
      <point x="379.6388888888889" y="20.833333333333332" type="curve" smooth="yes"/>
      <point x="384.6388888888889" y="56.94444444444444"/>
      <point x="366.4166666666667" y="91.77777777777777"/>
      <point x="389.47222222222223" y="312.27777777777777" type="curve" smooth="yes"/>
      <point x="411.0" y="525.0833333333334"/>
      <point x="447.6388888888889" y="562.1388888888889"/>
      <point x="445.6388888888889" y="601.1944444444445" type="curve" smooth="yes"/>
      <point x="444.6388888888889" y="624.6111111111111"/>
      <point x="431.1666666666667" y="639.5555555555555"/>
      <point x="411.22222222222223" y="639.5555555555555" type="curve" smooth="yes"/>
      <point x="387.3333333333333" y="639.5555555555555"/>
      <point x="373.44444444444446" y="628.0833333333334"/>
      <point x="369.44444444444446" y="599.1944444444445" type="curve" smooth="yes"/>
      <point x="362.44444444444446" y="558.1944444444445"/>
      <point x="386.6111111111111" y="541.0277777777778"/>
    </contour>
    <contour>
      <point x="293.44444444444446" y="386.3611111111111" type="curve" smooth="yes"/>
      <point x="445.3333333333333" y="386.3611111111111"/>
      <point x="471.3333333333333" y="360.55555555555554"/>
      <point x="497.80555555555554" y="360.55555555555554" type="curve" smooth="yes"/>
      <point x="527.6944444444445" y="360.55555555555554"/>
      <point x="541.6388888888889" y="380.5"/>
      <point x="541.6388888888889" y="399.9166666666667" type="curve" smooth="yes"/>
      <point x="541.6388888888889" y="418.44444444444446"/>
      <point x="528.6944444444445" y="435.9166666666667"/>
      <point x="501.80555555555554" y="435.9166666666667" type="curve" smooth="yes"/>
      <point x="477.3333333333333" y="435.9166666666667"/>
      <point x="448.3333333333333" y="411.75"/>
      <point x="293.44444444444446" y="412.75" type="curve" smooth="yes"/>
      <point x="143.02777777777777" y="412.75"/>
      <point x="115.02777777777777" y="436.9166666666667"/>
      <point x="89.55555555555556" y="436.9166666666667" type="curve" smooth="yes"/>
      <point x="59.666666666666664" y="436.9166666666667"/>
      <point x="46.72222222222222" y="419.9166666666667"/>
      <point x="46.72222222222222" y="401.44444444444446" type="curve" smooth="yes"/>
      <point x="46.72222222222222" y="378.5"/>
      <point x="60.666666666666664" y="363.55555555555554"/>
      <point x="90.55555555555556" y="362.55555555555554" type="curve" smooth="yes"/>
      <point x="115.02777777777777" y="361.55555555555554"/>
      <point x="143.02777777777777" y="386.3611111111111"/>
    </contour>
    <contour>
      <point x="281.44444444444446" y="214.08333333333334" type="curve" smooth="yes"/>
      <point x="433.3333333333333" y="214.08333333333334"/>
      <point x="459.3333333333333" y="192.44444444444446"/>
      <point x="485.80555555555554" y="192.44444444444446" type="curve" smooth="yes"/>
      <point x="515.6944444444445" y="192.44444444444446"/>
      <point x="529.6388888888889" y="211.86111111111111"/>
      <point x="529.6388888888889" y="231.27777777777777" type="curve" smooth="yes"/>
      <point x="529.6388888888889" y="248.22222222222223"/>
      <point x="516.6944444444445" y="264.6388888888889"/>
      <point x="488.80555555555554" y="264.6388888888889" type="curve" smooth="yes"/>
      <point x="465.3333333333333" y="264.6388888888889"/>
      <point x="437.3333333333333" y="240.47222222222223"/>
      <point x="281.44444444444446" y="241.47222222222223" type="curve" smooth="yes"/>
      <point x="131.02777777777777" y="241.47222222222223"/>
      <point x="103.02777777777777" y="265.6388888888889"/>
      <point x="76.55555555555556" y="265.6388888888889" type="curve" smooth="yes"/>
      <point x="47.666666666666664" y="265.6388888888889"/>
      <point x="34.72222222222222" y="249.69444444444446"/>
      <point x="34.72222222222222" y="232.27777777777777" type="curve" smooth="yes"/>
      <point x="34.72222222222222" y="210.38888888888889"/>
      <point x="48.666666666666664" y="194.91666666666666"/>
      <point x="76.5" y="194.44444444444446" type="curve" smooth="yes"/>
      <point x="103.55555555555556" y="193.97222222222223"/>
      <point x="130.02777777777777" y="214.08333333333334"/>
    </contour>
  </outline>
</glyph>
<glyph name="dollar" format="2">
  <advance width="491.8888888888889"/>
  <unicode hex="0024"/>
  <outline>
    <contour>
      <point x="253.44444444444446" y="0.0" type="curve" smooth="yes"/>
      <point x="374.3341625207297" y="0.0"/>
      <point x="446.1666666666667" y="74.69899560577527"/>
      <point x="446.1666666666667" y="164.36111111111111" type="curve" smooth="yes"/>
      <point x="446.1666666666667" y="229.18038821954485"/>
      <point x="402.1688740104554" y="287.95374564361634"/>
      <point x="270.25" y="340.8888888888889" type="curve" smooth="yes"/>
      <point x="161.69444444444446" y="381.47222222222223"/>
      <point x="123.16666666666667" y="422.8888888888889"/>
      <point x="123.16666666666667" y="482.0" type="curve" smooth="yes"/>
      <point x="123.16666666666667" y="560.5330788804072"/>
      <point x="183.33333333333334" y="606.1944444444445"/>
      <point x="256.02777777777777" y="606.1944444444445" type="curve" smooth="yes"/>
      <point x="312.97222222222223" y="606.1944444444445"/>
      <point x="349.44444444444446" y="569.9515268086121"/>
      <point x="349.44444444444446" y="522.5555555555555" type="curve" smooth="yes"/>
      <point x="349.44444444444446" y="491.27777777777777" type="line" smooth="yes"/>
      <point x="349.44444444444446" y="461.27777777777777"/>
      <point x="370.8611111111111" y="440.27777777777777"/>
      <point x="396.80555555555554" y="440.27777777777777" type="curve" smooth="yes"/>
      <point x="421.22222222222223" y="440.27777777777777"/>
      <point x="443.1666666666667" y="463.22222222222223"/>
      <point x="443.1666666666667" y="492.1666666666667" type="curve" smooth="yes"/>
      <point x="443.1666666666667" y="567.5833333333334"/>
      <point x="361.05617628801986" y="629.0"/>
      <point x="258.3888888888889" y="629.0" type="curve" smooth="yes"/>
      <point x="134.06234567901237" y="629.0"/>
      <point x="49.72222222222222" y="551.6388888888889"/>
      <point x="49.72222222222222" y="458.27777777777777" type="curve" smooth="yes"/>
      <point x="49.72222222222222" y="377.80555555555554"/>
      <point x="103.25" y="323.9166666666667"/>
      <point x="232.11111111111111" y="276.1111111111111" type="curve" smooth="yes"/>
      <point x="339.7656013650657" y="235.50448604678866"/>
      <point x="375.72222222222223" y="192.63587424633937"/>
      <point x="375.72222222222223" y="137.63888888888889" type="curve" smooth="yes"/>
      <point x="375.72222222222223" y="65.87975509384724"/>
      <point x="326.6111111111111" y="23.27777777777778"/>
      <point x="255.44444444444446" y="23.27777777777778" type="curve" smooth="yes"/>
      <point x="186.44444444444446" y="23.27777777777778"/>
      <point x="144.44444444444446" y="60.859194796061885"/>
      <point x="144.44444444444446" y="111.16666666666667" type="curve" smooth="yes"/>
      <point x="144.44444444444446" y="147.72222222222223" type="line" smooth="yes"/>
      <point x="144.44444444444446" y="178.72222222222223"/>
      <point x="124.55555555555556" y="198.72222222222223"/>
      <point x="100.72222222222223" y="198.72222222222223" type="curve" smooth="yes"/>
      <point x="73.72222222222223" y="198.72222222222223"/>
      <point x="51.72222222222222" y="174.13888888888889"/>
      <point x="51.72222222222222" y="141.55555555555554" type="curve" smooth="yes"/>
      <point x="51.72222222222222" y="63.77777777777778"/>
      <point x="142.77777777777777" y="0.0"/>
    </contour>
    <contour>
      <point x="239.66666666666666" y="295.0" type="line"/>
      <point x="239.66666666666666" y="58.88888888888888"/>
      <point x="215.08333333333334" y="11.273556231003038"/>
      <point x="215.08333333333334" y="-27.166666666666668" type="curve" smooth="yes"/>
      <point x="215.08333333333334" y="-57.02932098765432"/>
      <point x="233.42383512544802" y="-70.0"/>
      <point x="253.44444444444446" y="-70.0" type="curve" smooth="yes"/>
      <point x="274.79597701149424" y="-70.0"/>
      <point x="288.6745853755976" y="-55.893284318991526"/>
      <point x="289.80555555555554" y="-27.166666666666668" type="curve" smooth="yes"/>
      <point x="290.79126958907455" y="11.276180640573156"/>
      <point x="264.1666666666667" y="57.888888888888886"/>
      <point x="264.1666666666667" y="295.0" type="curve"/>
    </contour>
    <contour>
      <point x="262.69444444444446" y="335.0" type="line"/>
      <point x="262.69444444444446" y="576.1111111111111"/>
      <point x="288.27777777777777" y="619.7622622622623"/>
      <point x="288.27777777777777" y="661.1666666666666" type="curve" smooth="yes"/>
      <point x="288.27777777777777" y="689.8981481481482"/>
      <point x="268.7849462365591" y="704.0"/>
      <point x="250.44444444444446" y="704.0" type="curve" smooth="yes"/>
      <point x="230.34259259259258" y="704.0"/>
      <point x="212.55555555555554" y="690.9444444444445"/>
      <point x="212.55555555555554" y="663.1666666666666" type="curve" smooth="yes"/>
      <point x="212.55555555555554" y="626.6882255389718"/>
      <point x="239.66666811774041" y="580.1114664861539"/>
      <point x="238.66666666666666" y="335.0" type="curve"/>
    </contour>
  </outline>
</glyph>
<glyph name="ampersand" format="2">
  <advance width="641.5277777777778"/>
  <unicode hex="0026"/>
  <outline>
    <contour>
      <point x="259.69444444444446" y="640.3888888888889" type="curve" smooth="yes"/>
      <point x="202.63888888888889" y="640.3888888888889"/>
      <point x="163.52777777777777" y="590.5595238095239"/>
      <point x="163.52777777777777" y="523.4166666666666" type="curve" smooth="yes"/>
      <point x="163.52777777777777" y="456.5597643097643"/>
      <point x="196.48385399127847" y="403.39249588498535"/>
      <point x="247.27777777777777" y="381.4166666666667" type="curve" smooth="yes"/>
      <point x="300.30555555555554" y="359.1111111111111"/>
      <point x="327.0994047464201" y="338.1007593635222"/>
      <point x="366.22222222222223" y="291.6666666666667" type="curve" smooth="yes"/>
      <point x="551.8888888888889" y="75.47222222222223" type="line" smooth="yes"/>
      <point x="574.5277777777778" y="48.83333333333333"/>
      <point x="589.8888888888889" y="32.58333333333333"/>
      <point x="617.6111111111111" y="27.63888888888889" type="curve" smooth="yes"/>
      <point x="632.6944444444445" y="24.75"/>
      <point x="638.5277777777778" y="21.86111111111111"/>
      <point x="638.5277777777778" y="13.13888888888889" type="curve" smooth="yes"/>
      <point x="638.5277777777778" y="4.416666666666666"/>
      <point x="631.75" y="-0.4722222222222222"/>
      <point x="619.6666666666666" y="-0.4722222222222222" type="curve" smooth="yes"/>
      <point x="536.2777777777778" y="-0.4722222222222222" type="line" smooth="yes"/>
      <point x="513.25" y="-0.4722222222222222"/>
      <point x="498.0" y="7.361111111111111"/>
      <point x="483.69444444444446" y="25.555555555555557" type="curve" smooth="yes"/>
      <point x="301.05555555555554" y="242.66666666666666" type="line" smooth="yes"/>
      <point x="266.27777777777777" y="284.8611111111111"/>
      <point x="243.44444444444446" y="304.69444444444446"/>
      <point x="199.41666666666666" y="323.47222222222223" type="curve" smooth="yes"/>
      <point x="134.37258490007514" y="350.49760071618573"/>
      <point x="93.36111111111111" y="412.1513532763533"/>
      <point x="93.36111111111111" y="490.0" type="curve" smooth="yes"/>
      <point x="93.36111111111111" y="591.6103988603988"/>
      <point x="172.76478717523494" y="669.7222222222222"/>
      <point x="274.69444444444446" y="669.7222222222222" type="curve" smooth="yes"/>
      <point x="371.076566951567" y="669.7222222222222"/>
      <point x="428.19444444444446" y="613.7287698412698"/>
      <point x="428.19444444444446" y="532.0" type="curve" smooth="yes"/>
      <point x="428.19444444444446" y="449.33304548071385"/>
      <point x="379.60016994052296" y="391.7750444575812"/>
      <point x="271.3333333333333" y="348.8611111111111" type="curve"/>
      <point x="258.8888888888889" y="364.05555555555554" type="line"/>
      <point x="327.24631449986583" y="401.9292498259492"/>
      <point x="353.80555555555554" y="449.52777777777777"/>
      <point x="353.80555555555554" y="516.0" type="curve" smooth="yes"/>
      <point x="353.80555555555554" y="594.6478978978979"/>
      <point x="307.80555555555554" y="640.3888888888889"/>
    </contour>
    <contour>
      <point x="228.80555555555554" y="323.0" type="line"/>
      <point x="169.5" y="320.0"/>
      <point x="113.19444444444444" y="257.0"/>
      <point x="113.19444444444444" y="190.0" type="curve" smooth="yes"/>
      <point x="113.19444444444444" y="99.5"/>
      <point x="175.91666666666666" y="42.69444444444444"/>
      <point x="278.94444444444446" y="42.69444444444444" type="curve" smooth="yes"/>
      <point x="337.69444444444446" y="42.69444444444444"/>
      <point x="389.7534324485772" y="71.24878514177205"/>
      <point x="424.0833333333333" y="121.36111111111111" type="curve"/>
      <point x="442.1666666666667" y="104.80555555555556" type="line"/>
      <point x="373.28637536992574" y="20.013076842888665"/>
      <point x="311.9166666666667" y="-12.36111111111111"/>
      <point x="222.61111111111111" y="-12.36111111111111" type="curve" smooth="yes"/>
      <point x="101.94444444444444" y="-12.36111111111111"/>
      <point x="36.638888888888886" y="66.58333333333333"/>
      <point x="36.638888888888886" y="159.0" type="curve" smooth="yes"/>
      <point x="36.638888888888886" y="257.30555555555554"/>
      <point x="121.77777777777777" y="335.6666666666667"/>
      <point x="228.80555555555554" y="335.6666666666667" type="curve"/>
    </contour>
    <contour>
      <point x="457.3333333333333" y="174.30555555555554" type="line"/>
      <point x="510.77777777777777" y="266.6111111111111" type="line" smooth="yes"/>
      <point x="518.8355656793968" y="281.13183908587365"/>
      <point x="522.6666666666666" y="289.8811728395062"/>
      <point x="522.6666666666666" y="303.44444444444446" type="curve" smooth="yes"/>
      <point x="522.6666666666666" y="319.4382716049383"/>
      <point x="515.6666666666666" y="325.1388888888889"/>
      <point x="498.97222222222223" y="332.1388888888889" type="curve" smooth="yes"/>
      <point x="472.94444444444446" y="342.25" type="line" smooth="yes"/>
      <point x="461.80555555555554" y="347.55555555555554"/>
      <point x="455.9166666666667" y="350.0833333333333"/>
      <point x="455.9166666666667" y="357.80555555555554" type="curve" smooth="yes"/>
      <point x="455.9166666666667" y="366.52777777777777"/>
      <point x="462.22222222222223" y="369.0"/>
      <point x="473.4166666666667" y="369.0" type="curve" smooth="yes"/>
      <point x="619.6388888888889" y="369.0" type="line" smooth="yes"/>
      <point x="629.4166666666666" y="369.0"/>
      <point x="637.25" y="365.1111111111111"/>
      <point x="637.25" y="356.3333333333333" type="curve" smooth="yes"/>
      <point x="637.25" y="349.5"/>
      <point x="629.4722222222222" y="346.55555555555554"/>
      <point x="620.2222222222222" y="342.6666666666667" type="curve" smooth="yes"/>
      <point x="589.5277777777778" y="331.1388888888889"/>
      <point x="569.9444444444445" y="312.72222222222223"/>
      <point x="550.9444444444445" y="281.6111111111111" type="curve" smooth="yes"/>
      <point x="474.8333333333333" y="156.22222222222223" type="line"/>
    </contour>
  </outline>
</glyph>
<glyph name="parenleft" format="2">
  <advance width="395.0"/>
  <unicode hex="0028"/>
  <outline>
    <contour>
      <point x="91.0" y="287.0" type="curve" smooth="yes"/>
      <point x="91.0" y="55.93166287015944"/>
      <point x="218.21976999481504" y="-119.71428196993227"/>
      <point x="361.0" y="-172.0" type="curve" smooth="yes"/>
      <point x="364.0" y="-173.0"/>
      <point x="366.0" y="-173.0"/>
      <point x="369.0" y="-173.0" type="curve" smooth="yes"/>
      <point x="378.0" y="-173.0"/>
      <point x="384.0" y="-165.0"/>
      <point x="384.0" y="-155.0" type="curve" smooth="yes"/>
      <point x="384.0" y="-149.0"/>
      <point x="381.0" y="-141.0"/>
      <point x="372.0" y="-138.0" type="curve" smooth="yes"/>
      <point x="252.93907816774788" y="-82.50550253581468"/>
      <point x="179.0" y="70.82716049382717"/>
      <point x="179.0" y="287.0" type="curve" smooth="yes"/>
      <point x="179.0" y="504.2222222222222"/>
      <point x="252.97055018415548" y="657.5288958469864"/>
      <point x="372.0" y="712.0" type="curve" smooth="yes"/>
      <point x="381.0" y="716.0"/>
      <point x="384.0" y="723.0"/>
      <point x="384.0" y="730.0" type="curve" smooth="yes"/>
      <point x="384.0" y="739.0"/>
      <point x="378.0" y="748.0"/>
      <point x="369.0" y="748.0" type="curve" smooth="yes"/>
      <point x="366.0" y="748.0"/>
      <point x="364.0" y="748.0"/>
      <point x="361.0" y="747.0" type="curve" smooth="yes"/>
      <point x="218.1951212843029" y="693.699587521606"/>
      <point x="91.0" y="519.090909090909"/>
    </contour>
  </outline>
</glyph>
<glyph name="plus" format="2">
  <advance width="498.0"/>
  <unicode hex="002B"/>
  <outline>
    <contour>
      <point x="50.0" y="303.0" type="curve" smooth="yes"/>
      <point x="50.0" y="285.0"/>
      <point x="67.0" y="271.0"/>
      <point x="86.0" y="271.0" type="curve" smooth="yes"/>
      <point x="143.0" y="271.0"/>
      <point x="210.0" y="285.0"/>
      <point x="252.0" y="285.0" type="curve" smooth="yes"/>
      <point x="295.0" y="285.0"/>
      <point x="359.0" y="271.0"/>
      <point x="412.0" y="271.0" type="curve" smooth="yes"/>
      <point x="434.0" y="271.0"/>
      <point x="448.0" y="285.0"/>
      <point x="448.0" y="303.0" type="curve" smooth="yes"/>
      <point x="448.0" y="322.0"/>
      <point x="433.0" y="337.0"/>
      <point x="412.0" y="337.0" type="curve" smooth="yes"/>
      <point x="359.0" y="337.0"/>
      <point x="295.0" y="323.0"/>
      <point x="252.0" y="323.0" type="curve" smooth="yes"/>
      <point x="203.0" y="323.0"/>
      <point x="143.0" y="337.0"/>
      <point x="87.0" y="337.0" type="curve" smooth="yes"/>
      <point x="69.0" y="337.0"/>
      <point x="50.0" y="322.0"/>
    </contour>
    <contour>
      <point x="253.0" y="103.0" type="curve" smooth="yes"/>
      <point x="271.0" y="103.0"/>
      <point x="285.0" y="120.0"/>
      <point x="285.0" y="139.0" type="curve" smooth="yes"/>
      <point x="285.0" y="196.0"/>
      <point x="271.0" y="263.0"/>
      <point x="271.0" y="305.0" type="curve" smooth="yes"/>
      <point x="271.0" y="348.0"/>
      <point x="285.0" y="412.0"/>
      <point x="285.0" y="465.0" type="curve" smooth="yes"/>
      <point x="285.0" y="487.0"/>
      <point x="271.0" y="501.0"/>
      <point x="253.0" y="501.0" type="curve" smooth="yes"/>
      <point x="234.0" y="501.0"/>
      <point x="219.0" y="486.0"/>
      <point x="219.0" y="465.0" type="curve" smooth="yes"/>
      <point x="219.0" y="412.0"/>
      <point x="233.0" y="348.0"/>
      <point x="233.0" y="305.0" type="curve" smooth="yes"/>
      <point x="233.0" y="256.0"/>
      <point x="219.0" y="196.0"/>
      <point x="219.0" y="140.0" type="curve" smooth="yes"/>
      <point x="219.0" y="122.0"/>
      <point x="234.0" y="103.0"/>
    </contour>
  </outline>
</glyph>
<glyph name="comma" format="2">
  <advance width="265.52777777777777"/>
  <unicode hex="002C"/>
  <outline>
    <contour>
      <point x="127.58333333333333" y="-14.305555555555555" type="curve" smooth="yes"/>
      <point x="154.02777777777777" y="-14.305555555555555" type="line" smooth="yes"/>
      <point x="165.91666666666666" y="-14.305555555555555"/>
      <point x="170.86111111111111" y="-21.25"/>
      <point x="170.86111111111111" y="-33.666666666666664" type="curve" smooth="yes"/>
      <point x="170.86111111111111" y="-113.97222222222223"/>
      <point x="128.44444444444446" y="-163.16666666666666"/>
      <point x="80.63888888888889" y="-169.47222222222223" type="curve" smooth="yes"/>
      <point x="66.97222222222223" y="-171.83333333333334"/>
      <point x="62.083333333333336" y="-177.6329365079365"/>
      <point x="62.083333333333336" y="-185.97222222222223" type="curve" smooth="yes"/>
      <point x="62.083333333333336" y="-195.81159420289856"/>
      <point x="68.97916666666667" y="-202.52777777777777"/>
      <point x="81.52777777777777" y="-202.52777777777777" type="curve" smooth="yes"/>
      <point x="138.52777777777777" y="-202.52777777777777"/>
      <point x="210.80555555555554" y="-138.80555555555554"/>
      <point x="210.80555555555554" y="-1.3611111111111112" type="curve" smooth="yes"/>
      <point x="210.80555555555554" y="73.83333333333333"/>
      <point x="177.82777777777778" y="107.72222222222223"/>
      <point x="133.0" y="107.72222222222223" type="curve" smooth="yes"/>
      <point x="97.58333333333333" y="107.72222222222223"/>
      <point x="69.22222222222223" y="80.30555555555556"/>
      <point x="69.22222222222223" y="47.416666666666664" type="curve" smooth="yes"/>
      <point x="69.22222222222223" y="11.583333333333334"/>
      <point x="94.16666666666667" y="-14.305555555555555"/>
    </contour>
  </outline>
</glyph>
<glyph name="hyphen" format="2">
  <advance width="394.0"/>
  <unicode hex="002D"/>
  <outline>
    <contour>
      <point x="319.0" y="279.0" type="curve" smooth="yes"/>
      <point x="96.0" y="279.0" type="line" smooth="yes"/>
      <point x="77.0" y="279.0"/>
      <point x="67.0" y="272.0"/>
      <point x="59.0" y="254.0" type="curve" smooth="yes"/>
      <point x="54.0" y="243.0" type="line" smooth="yes"/>
      <point x="51.0" y="236.0"/>
      <point x="50.0" y="232.0"/>
      <point x="50.0" y="228.0" type="curve" smooth="yes"/>
      <point x="50.0" y="215.0"/>
      <point x="61.0" y="207.0"/>
      <point x="75.0" y="207.0" type="curve" smooth="yes"/>
      <point x="298.0" y="207.0" type="line" smooth="yes"/>
      <point x="317.0" y="207.0"/>
      <point x="327.0" y="214.0"/>
      <point x="335.0" y="232.0" type="curve" smooth="yes"/>
      <point x="340.0" y="243.0" type="line" smooth="yes"/>
      <point x="343.0" y="250.0"/>
      <point x="344.0" y="254.0"/>
      <point x="344.0" y="258.0" type="curve" smooth="yes"/>
      <point x="344.0" y="271.0"/>
      <point x="333.0" y="279.0"/>
    </contour>
  </outline>
</glyph>
<glyph name="period" format="2">
  <advance width="235.05555555555554"/>
  <unicode hex="002E"/>
  <outline>
    <contour>
      <point x="120.16666666666667" y="-12.36111111111111" type="curve" smooth="yes"/>
      <point x="154.47222222222223" y="-12.36111111111111"/>
      <point x="181.30555555555554" y="15.472222222222221"/>
      <point x="181.30555555555554" y="49.77777777777778" type="curve" smooth="yes"/>
      <point x="181.30555555555554" y="83.55555555555556"/>
      <point x="154.47222222222223" y="110.38888888888889"/>
      <point x="120.16666666666667" y="110.38888888888889" type="curve" smooth="yes"/>
      <point x="85.86111111111111" y="110.38888888888889"/>
      <point x="59.02777777777778" y="83.55555555555556"/>
      <point x="59.02777777777778" y="49.77777777777778" type="curve" smooth="yes"/>
      <point x="59.02777777777778" y="15.472222222222221"/>
      <point x="85.86111111111111" y="-12.36111111111111"/>
    </contour>
  </outline>
</glyph>
<glyph name="two" format="2">
  <advance width="501.5"/>
  <unicode hex="0032"/>
  <outline>
    <contour>
      <point x="215.22222222222223" y="276.6111111111111" type="curve" smooth="yes"/>
      <point x="83.78548558869004" y="200.34910491891176"/>
      <point x="35.44444444444444" y="108.92355727820845"/>
      <point x="35.44444444444444" y="20.27777777777778" type="curve" smooth="yes"/>
      <point x="35.44444444444444" y="-0.7289972899729005"/>
      <point x="46.048611111111114" y="-12.36111111111111"/>
      <point x="63.72222222222222" y="-12.36111111111111" type="curve" smooth="yes"/>
      <point x="97.11111111111111" y="-12.36111111111111"/>
      <point x="96.41666666666666" y="65.27777777777777"/>
      <point x="151.30555555555554" y="65.27777777777777" type="curve" smooth="yes"/>
      <point x="215.2637614678899" y="65.27777777777777"/>
      <point x="264.93268328398295" y="-12.36111111111111"/>
      <point x="343.52777777777777" y="-12.36111111111111" type="curve" smooth="yes"/>
      <point x="424.5154079861111" y="-12.36111111111111"/>
      <point x="466.19444444444446" y="39.063307493540044"/>
      <point x="466.19444444444446" y="121.83333333333333" type="curve" smooth="yes"/>
      <point x="466.19444444444446" y="131.08333333333334"/>
      <point x="462.77777777777777" y="138.86111111111111"/>
      <point x="453.52777777777777" y="138.86111111111111" type="curve" smooth="yes"/>
      <point x="447.5720164609054" y="138.86111111111111"/>
      <point x="441.8328105138253" y="135.31207298197012"/>
      <point x="438.02777777777777" y="124.83333333333333" type="curve" smooth="yes"/>
      <point x="425.55741816077676" y="87.72242087734062"/>
      <point x="409.5149572649573" y="73.69444444444444"/>
      <point x="368.52777777777777" y="73.69444444444444" type="curve" smooth="yes"/>
      <point x="311.3754807692308" y="73.69444444444444"/>
      <point x="254.78955662393162" y="129.02777777777777"/>
      <point x="177.33333333333334" y="129.02777777777777" type="curve" smooth="yes"/>
      <point x="105.55555555555556" y="129.02777777777777"/>
      <point x="70.13888888888889" y="75.97222222222223"/>
      <point x="70.13888888888889" y="20.38888888888889" type="curve"/>
      <point x="75.02777777777777" y="20.86111111111111" type="line"/>
      <point x="75.02777777777777" y="105.66666666666667"/>
      <point x="108.07371358997193" y="169.7367822204916"/>
      <point x="241.80555555555554" y="245.88888888888889" type="curve" smooth="yes"/>
      <point x="395.0" y="332.9166666666667"/>
      <point x="445.8888888888889" y="395.6603009259259"/>
      <point x="445.8888888888889" y="491.44444444444446" type="curve" smooth="yes"/>
      <point x="445.8888888888889" y="581.6944444444445"/>
      <point x="377.1604938271605" y="650.0"/>
      <point x="263.80555555555554" y="650.0" type="curve" smooth="yes"/>
      <point x="137.58480825958702" y="650.0"/>
      <point x="55.72222222222222" y="559.9166666666666"/>
      <point x="55.72222222222222" y="497.19444444444446" type="curve" smooth="yes"/>
      <point x="55.72222222222222" y="458.3611111111111"/>
      <point x="75.61111111111111" y="437.47222222222223"/>
      <point x="107.44444444444444" y="437.47222222222223" type="curve" smooth="yes"/>
      <point x="133.44444444444446" y="437.47222222222223"/>
      <point x="158.16666666666666" y="462.3611111111111"/>
      <point x="158.16666666666666" y="497.19444444444446" type="curve" smooth="yes"/>
      <point x="158.16666666666666" y="526.6388888888889" type="line" smooth="yes"/>
      <point x="158.16666666666666" y="585.0300608828006"/>
      <point x="186.20473251028807" y="619.8888888888889"/>
      <point x="249.69444444444446" y="619.8888888888889" type="curve" smooth="yes"/>
      <point x="306.1844344344344" y="619.8888888888889"/>
      <point x="355.44444444444446" y="574.2825203252032"/>
      <point x="355.44444444444446" y="487.72222222222223" type="curve" smooth="yes"/>
      <point x="355.44444444444446" y="391.1666666666667"/>
      <point x="313.65700122863865" y="334.4642028465439"/>
    </contour>
  </outline>
</glyph>
<glyph name="three" format="2">
  <advance width="477.0"/>
  <unicode hex="0033"/>
  <outline>
    <contour>
      <point x="208.58333333333334" y="331.22222222222223" type="line"/>
      <point x="423.6111111111111" y="587.0" type="line" smooth="yes"/>
      <point x="434.8611111111111" y="599.7222222222222"/>
      <point x="440.44444444444446" y="609.7222222222222"/>
      <point x="440.44444444444446" y="619.1944444444445" type="curve" smooth="yes"/>
      <point x="440.44444444444446" y="629.8611111111111"/>
      <point x="429.25" y="637.6388888888889"/>
      <point x="420.0" y="637.6388888888889" type="curve" smooth="yes"/>
      <point x="95.0" y="637.6388888888889" type="line" smooth="yes"/>
      <point x="80.44444444444444" y="637.6388888888889"/>
      <point x="71.61111111111111" y="626.0277777777778"/>
      <point x="69.66666666666667" y="609.5833333333334" type="curve" smooth="yes"/>
      <point x="54.388888888888886" y="499.9166666666667" type="line" smooth="yes"/>
      <point x="52.388888888888886" y="485.6666666666667"/>
      <point x="59.75" y="478.8333333333333"/>
      <point x="67.52777777777777" y="478.8333333333333" type="curve" smooth="yes"/>
      <point x="76.72222222222223" y="478.8333333333333"/>
      <point x="84.02777777777777" y="486.55555555555554"/>
      <point x="87.86111111111111" y="494.22222222222223" type="curve" smooth="yes"/>
      <point x="111.30555555555556" y="541.6944444444445" type="line" smooth="yes"/>
      <point x="121.13888888888889" y="561.4166666666666"/>
      <point x="135.44444444444446" y="568.8333333333334"/>
      <point x="156.58333333333334" y="568.8333333333334" type="curve" smooth="yes"/>
      <point x="376.55555555555554" y="568.8333333333334" type="line"/>
      <point x="372.1388888888889" y="585.7222222222222" type="line"/>
      <point x="171.22222222222223" y="344.94444444444446" type="line" smooth="yes"/>
      <point x="166.80555555555554" y="340.05555555555554"/>
      <point x="163.86111111111111" y="334.69444444444446"/>
      <point x="163.86111111111111" y="328.8611111111111" type="curve" smooth="yes"/>
      <point x="163.86111111111111" y="319.6111111111111"/>
      <point x="171.69444444444446" y="312.77777777777777"/>
      <point x="183.0" y="312.77777777777777" type="curve" smooth="yes"/>
      <point x="215.36111111111111" y="312.77777777777777" type="line" smooth="yes"/>
      <point x="301.47222222222223" y="312.77777777777777"/>
      <point x="359.52777777777777" y="261.6111111111111"/>
      <point x="359.52777777777777" y="155.52777777777777" type="curve" smooth="yes"/>
      <point x="359.52777777777777" y="77.72222222222223"/>
      <point x="313.3611111111111" y="19.63888888888889"/>
      <point x="246.13888888888889" y="18.63888888888889" type="curve" smooth="yes"/>
      <point x="184.1172093856192" y="17.670546943553152"/>
      <point x="147.41666666666666" y="53.916666666666664"/>
      <point x="147.41666666666666" y="98.72222222222223" type="curve" smooth="yes"/>
      <point x="147.41666666666666" y="124.72222222222223" type="line" smooth="yes"/>
      <point x="147.41666666666666" y="158.55555555555554"/>
      <point x="123.58333333333333" y="182.44444444444446"/>
      <point x="94.27777777777777" y="182.44444444444446" type="curve" smooth="yes"/>
      <point x="64.86111111111111" y="182.44444444444446"/>
      <point x="39.97222222222222" y="158.55555555555554"/>
      <point x="39.97222222222222" y="126.72222222222223" type="curve" smooth="yes"/>
      <point x="39.97222222222222" y="49.94444444444444"/>
      <point x="103.18397085610201" y="-12.36111111111111"/>
      <point x="223.58333333333334" y="-12.36111111111111" type="curve" smooth="yes"/>
      <point x="344.6666666666667" y="-12.36111111111111"/>
      <point x="438.8611111111111" y="68.75"/>
      <point x="438.8611111111111" y="184.25" type="curve" smooth="yes"/>
      <point x="438.8611111111111" y="295.8888888888889"/>
      <point x="357.44444444444446" y="345.77777777777777"/>
      <point x="230.08333333333334" y="345.77777777777777" type="curve" smooth="yes"/>
      <point x="224.97222222222223" y="345.77777777777777"/>
      <point x="209.5" y="345.77777777777777"/>
      <point x="202.86111111111111" y="345.77777777777777" type="curve"/>
    </contour>
  </outline>
</glyph>
<glyph name="four" format="2">
  <advance width="481.22222222222223"/>
  <unicode hex="0034"/>
  <outline>
    <contour>
      <point x="274.44444444444446" y="343.44444444444446" type="curve" smooth="yes"/>
      <point x="275.44444444444446" y="84.75" type="line" smooth="yes"/>
      <point x="275.44444444444446" y="56.75"/>
      <point x="263.44444444444446" y="40.69444444444444"/>
      <point x="237.44444444444446" y="36.75" type="curve" smooth="yes"/>
      <point x="184.58333333333334" y="29.75" type="line" smooth="yes"/>
      <point x="171.91666666666666" y="27.805555555555557"/>
      <point x="165.61111111111111" y="23.38888888888889"/>
      <point x="165.61111111111111" y="13.13888888888889" type="curve" smooth="yes"/>
      <point x="165.61111111111111" y="3.888888888888889"/>
      <point x="171.44444444444446" y="0.0"/>
      <point x="187.58333333333334" y="0.0" type="curve" smooth="yes"/>
      <point x="430.47222222222223" y="0.0" type="line" smooth="yes"/>
      <point x="446.1388888888889" y="0.0"/>
      <point x="452.97222222222223" y="3.888888888888889"/>
      <point x="452.97222222222223" y="13.13888888888889" type="curve" smooth="yes"/>
      <point x="452.97222222222223" y="23.38888888888889"/>
      <point x="445.6666666666667" y="27.805555555555557"/>
      <point x="432.47222222222223" y="29.75" type="curve" smooth="yes"/>
      <point x="395.6111111111111" y="34.75" type="line" smooth="yes"/>
      <point x="370.6111111111111" y="37.75"/>
      <point x="357.6111111111111" y="53.75"/>
      <point x="357.6111111111111" y="81.75" type="curve" smooth="yes"/>
      <point x="356.6111111111111" y="426.94444444444446" type="line" smooth="yes"/>
      <point x="356.6111111111111" y="435.3611111111111"/>
      <point x="352.19444444444446" y="438.30555555555554"/>
      <point x="345.8333333333333" y="438.30555555555554" type="curve" smooth="yes"/>
      <point x="340.0" y="438.30555555555554"/>
      <point x="334.1666666666667" y="436.8888888888889"/>
      <point x="326.80555555555554" y="426.1111111111111" type="curve" smooth="yes"/>
      <point x="286.52777777777777" y="370.77777777777777" type="line" smooth="yes"/>
      <point x="279.69444444444446" y="361.05555555555554"/>
      <point x="274.44444444444446" y="352.69444444444446"/>
    </contour>
    <contour>
      <point x="186.58333333333334" y="425.72222222222223" type="curve" smooth="yes"/>
      <point x="21.75" y="212.61111111111111" type="line" smooth="yes"/>
      <point x="10.083333333333332" y="197.05555555555554"/>
      <point x="10.972222222222221" y="188.80555555555554"/>
      <point x="10.972222222222221" y="182.97222222222223" type="curve" smooth="yes"/>
      <point x="10.972222222222221" y="170.83333333333334"/>
      <point x="19.27777777777778" y="163.52777777777777"/>
      <point x="33.361111111111114" y="163.52777777777777" type="curve" smooth="yes"/>
      <point x="434.30555555555554" y="163.52777777777777" type="line" smooth="yes"/>
      <point x="449.0833333333333" y="163.52777777777777"/>
      <point x="457.5" y="170.41666666666666"/>
      <point x="457.02777777777777" y="184.61111111111111" type="curve" smooth="yes"/>
      <point x="456.55555555555554" y="193.75"/>
      <point x="449.77777777777777" y="198.11111111111111"/>
      <point x="440.1111111111111" y="198.11111111111111" type="curve" smooth="yes"/>
      <point x="37.22222222222222" y="198.11111111111111" type="line"/>
      <point x="45.30555555555556" y="180.77777777777777" type="line"/>
      <point x="268.05555555555554" y="472.8333333333333" type="line" smooth="yes"/>
      <point x="304.0" y="520.6666666666666"/>
      <point x="314.8888888888889" y="546.9722222222222"/>
      <point x="314.8888888888889" y="583.2777777777778" type="curve" smooth="yes"/>
      <point x="314.8888888888889" y="623.1111111111111"/>
      <point x="290.05555555555554" y="650.0"/>
      <point x="255.69444444444446" y="650.0" type="curve" smooth="yes"/>
      <point x="214.38888888888889" y="650.0"/>
      <point x="188.97222222222223" y="623.1111111111111"/>
      <point x="188.97222222222223" y="591.1111111111111" type="curve" smooth="yes"/>
      <point x="188.97222222222223" y="554.1111111111111"/>
      <point x="217.47222222222223" y="541.5833333333334"/>
      <point x="217.47222222222223" y="506.5833333333333" type="curve" smooth="yes"/>
      <point x="217.47222222222223" y="471.3888888888889"/>
      <point x="205.05555555555554" y="450.1388888888889"/>
    </contour>
  </outline>
</glyph>
<glyph name="five" format="2">
  <advance width="519.0"/>
  <unicode hex="0035"/>
  <outline>
    <contour>
      <point x="54.0" y="127.0" type="curve" smooth="yes"/>
      <point x="54.0" y="50.0"/>
      <point x="133.0" y="-15.0"/>
      <point x="230.0" y="-15.0" type="curve" smooth="yes"/>
      <point x="367.0" y="-15.0"/>
      <point x="472.0" y="73.80530973451326"/>
      <point x="472.0" y="208.0" type="curve" smooth="yes"/>
      <point x="472.0" y="318.78688524590166"/>
      <point x="390.0" y="394.0"/>
      <point x="267.0" y="394.0" type="curve" smooth="yes"/>
      <point x="203.0" y="394.0"/>
      <point x="150.0" y="366.0"/>
      <point x="111.0" y="306.0" type="curve"/>
      <point x="140.0" y="296.0" type="line"/>
      <point x="140.0" y="585.0" type="line"/>
      <point x="111.0" y="578.0" type="line"/>
      <point x="143.0" y="525.0"/>
      <point x="210.0" y="488.0"/>
      <point x="293.0" y="488.0" type="curve" smooth="yes"/>
      <point x="394.0" y="488.0"/>
      <point x="465.0" y="553.0"/>
      <point x="465.0" y="634.0" type="curve" smooth="yes"/>
      <point x="465.0" y="646.0"/>
      <point x="457.0" y="651.0"/>
      <point x="446.0" y="651.0" type="curve" smooth="yes"/>
      <point x="434.0" y="651.0"/>
      <point x="425.0" y="643.0"/>
      <point x="416.0" y="626.0" type="curve" smooth="yes"/>
      <point x="396.0" y="590.0"/>
      <point x="368.0" y="573.0"/>
      <point x="327.0" y="573.0" type="curve" smooth="yes"/>
      <point x="247.0" y="573.0"/>
      <point x="187.0" y="650.0"/>
      <point x="132.0" y="650.0" type="curve" smooth="yes"/>
      <point x="97.0" y="650.0"/>
      <point x="82.0" y="630.0"/>
      <point x="82.0" y="598.0" type="curve" smooth="yes"/>
      <point x="82.0" y="288.0" type="line" smooth="yes"/>
      <point x="82.0" y="272.0"/>
      <point x="95.0" y="259.0"/>
      <point x="109.0" y="259.0" type="curve" smooth="yes"/>
      <point x="122.0" y="259.0"/>
      <point x="136.0" y="267.0"/>
      <point x="148.0" y="284.0" type="curve" smooth="yes"/>
      <point x="176.0" y="321.0"/>
      <point x="207.0" y="336.0"/>
      <point x="243.0" y="336.0" type="curve" smooth="yes"/>
      <point x="323.0" y="336.0"/>
      <point x="369.0" y="279.92857142857144"/>
      <point x="369.0" y="179.0" type="curve" smooth="yes"/>
      <point x="369.0" y="87.91095890410959"/>
      <point x="321.0" y="36.0"/>
      <point x="254.0" y="36.0" type="curve" smooth="yes"/>
      <point x="202.0" y="36.0"/>
      <point x="171.0" y="64.0"/>
      <point x="171.0" y="94.0" type="curve" smooth="yes"/>
      <point x="171.0" y="126.0" type="line" smooth="yes"/>
      <point x="171.0" y="164.0"/>
      <point x="145.0" y="189.0"/>
      <point x="112.0" y="189.0" type="curve" smooth="yes"/>
      <point x="81.0" y="189.0"/>
      <point x="54.0" y="162.0"/>
    </contour>
  </outline>
</glyph>
<glyph name="six" format="2">
  <advance width="550.0"/>
  <unicode hex="0036"/>
  <outline>
    <contour>
      <point x="319.0" y="650.0" type="curve" smooth="yes"/>
      <point x="171.0" y="650.0"/>
      <point x="59.0" y="547.0"/>
      <point x="59.0" y="294.0" type="curve" smooth="yes"/>
      <point x="59.0" y="81.0"/>
      <point x="150.28571428571428" y="-15.0"/>
      <point x="272.0" y="-15.0" type="curve" smooth="yes"/>
      <point x="404.0" y="-15.0"/>
      <point x="505.0" y="87.0"/>
      <point x="505.0" y="212.0" type="curve" smooth="yes"/>
      <point x="505.0" y="336.0"/>
      <point x="436.0" y="405.0"/>
      <point x="337.0" y="405.0" type="curve" smooth="yes"/>
      <point x="225.47916666666666" y="405.0"/>
      <point x="135.0" y="322.0"/>
      <point x="135.0" y="222.0" type="curve"/>
      <point x="165.0" y="208.0" type="line"/>
      <point x="165.0" y="285.0"/>
      <point x="224.47154471544715" y="340.0"/>
      <point x="298.0" y="340.0" type="curve" smooth="yes"/>
      <point x="359.0" y="340.0"/>
      <point x="410.0" y="286.0"/>
      <point x="410.0" y="179.0" type="curve" smooth="yes"/>
      <point x="410.0" y="92.0"/>
      <point x="366.0" y="44.0"/>
      <point x="296.0" y="44.0" type="curve" smooth="yes"/>
      <point x="221.56692913385825" y="44.0"/>
      <point x="159.0" y="106.0"/>
      <point x="159.0" y="312.0" type="curve" smooth="yes"/>
      <point x="159.0" y="531.0"/>
      <point x="228.54109589041096" y="601.0"/>
      <point x="302.0" y="601.0" type="curve" smooth="yes"/>
      <point x="345.9090909090909" y="601.0"/>
      <point x="371.0" y="575.0"/>
      <point x="371.0" y="548.0" type="curve" smooth="yes"/>
      <point x="371.0" y="532.0" type="line" smooth="yes"/>
      <point x="371.0" y="492.0"/>
      <point x="399.0" y="469.0"/>
      <point x="431.0" y="469.0" type="curve" smooth="yes"/>
      <point x="466.0" y="469.0"/>
      <point x="489.0" y="492.0"/>
      <point x="489.0" y="530.0" type="curve" smooth="yes"/>
      <point x="489.0" y="593.0"/>
      <point x="429.0" y="650.0"/>
    </contour>
  </outline>
</glyph>
<glyph name="seven" format="2">
  <advance width="456.0"/>
  <unicode hex="0037"/>
  <outline>
    <contour>
      <point x="365.0" y="542.0" type="curve" smooth="yes"/>
      <point x="301.0" y="452.0" type="line" smooth="yes"/>
      <point x="173.0" y="272.0"/>
      <point x="146.0" y="187.0"/>
      <point x="146.0" y="93.0" type="curve" smooth="yes"/>
      <point x="146.0" y="26.0"/>
      <point x="177.0" y="-15.0"/>
      <point x="224.0" y="-15.0" type="curve" smooth="yes"/>
      <point x="271.0" y="-15.0"/>
      <point x="293.93755243151384" y="16.876782671469897"/>
      <point x="295.0" y="53.0" type="curve" smooth="yes"/>
      <point x="295.0" y="98.70344827586206"/>
      <point x="247.0" y="134.04724409448818"/>
      <point x="247.0" y="194.0" type="curve" smooth="yes"/>
      <point x="247.0" y="263.6640316205534"/>
      <point x="271.702719211037" y="329.73632751851244"/>
      <point x="341.0" y="429.0" type="curve" smooth="yes"/>
      <point x="415.0" y="535.0" type="line" smooth="yes"/>
      <point x="435.0" y="564.0"/>
      <point x="440.0" y="582.0"/>
      <point x="440.0" y="604.0" type="curve" smooth="yes"/>
      <point x="440.0" y="622.0"/>
      <point x="428.0" y="635.0"/>
      <point x="409.0" y="635.0" type="curve" smooth="yes"/>
      <point x="79.0" y="635.0" type="line" smooth="yes"/>
      <point x="56.0" y="635.0"/>
      <point x="44.0" y="616.0"/>
      <point x="41.0" y="589.0" type="curve" smooth="yes"/>
      <point x="31.0" y="492.0" type="line" smooth="yes"/>
      <point x="29.0" y="473.0"/>
      <point x="39.0" y="463.0"/>
      <point x="51.0" y="463.0" type="curve" smooth="yes"/>
      <point x="66.0" y="463.0"/>
      <point x="77.0" y="476.0"/>
      <point x="84.0" y="490.0" type="curve" smooth="yes"/>
      <point x="99.0" y="519.0" type="line" smooth="yes"/>
      <point x="112.0" y="544.0"/>
      <point x="130.0" y="553.0"/>
      <point x="158.0" y="553.0" type="curve" smooth="yes"/>
      <point x="395.0" y="553.0" type="line"/>
      <point x="386.0" y="602.0" type="line"/>
      <point x="386.0" y="584.0"/>
      <point x="381.0" y="565.0"/>
    </contour>
  </outline>
</glyph>
<glyph name="eight" format="2">
  <advance width="530.0"/>
  <unicode hex="0038"/>
  <outline>
    <contour>
      <point x="257.0" y="-15.0" type="curve" smooth="yes"/>
      <point x="376.0" y="-15.0"/>
      <point x="468.0" y="55.0"/>
      <point x="468.0" y="154.0" type="curve" smooth="yes"/>
      <point x="468.0" y="225.0"/>
      <point x="422.0" y="288.0"/>
      <point x="299.0" y="334.0" type="curve" smooth="yes"/>
      <point x="178.0" y="376.0"/>
      <point x="145.0" y="430.0"/>
      <point x="145.0" y="495.0" type="curve" smooth="yes"/>
      <point x="145.0" y="552.0"/>
      <point x="189.0" y="593.0"/>
      <point x="263.0" y="593.0" type="curve" smooth="yes"/>
      <point x="332.0" y="593.0"/>
      <point x="379.0" y="548.0"/>
      <point x="379.0" y="475.0" type="curve" smooth="yes"/>
      <point x="379.0" y="418.0"/>
      <point x="345.0" y="355.0"/>
      <point x="292.0" y="324.0" type="curve"/>
      <point x="302.0" y="302.0" type="line"/>
      <point x="399.0" y="325.0"/>
      <point x="470.0" y="408.0"/>
      <point x="470.0" y="489.0" type="curve" smooth="yes"/>
      <point x="470.0" y="577.0"/>
      <point x="401.0" y="651.0"/>
      <point x="287.0" y="651.0" type="curve" smooth="yes"/>
      <point x="156.0" y="651.0"/>
      <point x="58.0" y="566.0"/>
      <point x="58.0" y="463.0" type="curve" smooth="yes"/>
      <point x="58.0" y="371.0"/>
      <point x="113.0" y="309.0"/>
      <point x="236.0" y="263.0" type="curve" smooth="yes"/>
      <point x="347.0" y="222.0"/>
      <point x="377.0" y="184.0"/>
      <point x="377.0" y="127.0" type="curve" smooth="yes"/>
      <point x="377.0" y="70.0"/>
      <point x="344.0" y="38.0"/>
      <point x="275.0" y="38.0" type="curve" smooth="yes"/>
      <point x="200.0" y="38.0"/>
      <point x="157.0" y="87.0"/>
      <point x="157.0" y="160.0" type="curve" smooth="yes"/>
      <point x="157.0" y="205.0"/>
      <point x="179.0" y="250.0"/>
      <point x="230.0" y="288.0" type="curve"/>
      <point x="224.0" y="302.0" type="line"/>
      <point x="128.0" y="284.0"/>
      <point x="66.0" y="226.0"/>
      <point x="66.0" y="142.0" type="curve" smooth="yes"/>
      <point x="66.0" y="49.0"/>
      <point x="130.0" y="-15.0"/>
    </contour>
  </outline>
</glyph>
<glyph name="less" format="2">
  <advance width="518.0"/>
  <unicode hex="003C"/>
  <outline>
    <contour>
      <point x="468.0" y="123.0" type="curve" smooth="yes"/>
      <point x="468.0" y="144.0"/>
      <point x="452.0" y="163.0"/>
      <point x="418.0" y="180.0" type="curve" smooth="yes"/>
      <point x="336.0" y="222.0"/>
      <point x="214.79750109003012" y="273.6245892431258"/>
      <point x="83.0" y="311.0" type="curve"/>
      <point x="83.0" y="295.0" type="line"/>
      <point x="214.78859725909115" y="332.37288578989154"/>
      <point x="336.1394990781735" y="382.0738524531507"/>
      <point x="421.0" y="427.0" type="curve" smooth="yes"/>
      <point x="453.13386827781267" y="444.071117522588"/>
      <point x="468.0" y="461.64150943396226"/>
      <point x="468.0" y="481.0" type="curve" smooth="yes"/>
      <point x="468.0" y="497.6666666666667"/>
      <point x="457.0" y="511.0"/>
      <point x="439.0" y="511.0" type="curve" smooth="yes"/>
      <point x="425.0" y="511.0"/>
      <point x="408.0" y="504.0"/>
      <point x="390.0" y="492.0" type="curve" smooth="yes"/>
      <point x="329.0" y="450.0"/>
      <point x="187.0" y="378.0"/>
      <point x="65.0" y="333.0" type="curve" smooth="yes"/>
      <point x="46.0" y="326.0"/>
      <point x="40.0" y="314.0"/>
      <point x="40.0" y="303.0" type="curve" smooth="yes"/>
      <point x="40.0" y="292.0"/>
      <point x="46.0" y="280.0"/>
      <point x="65.0" y="273.0" type="curve" smooth="yes"/>
      <point x="187.0" y="228.0"/>
      <point x="331.0" y="157.0"/>
      <point x="390.0" y="114.0" type="curve" smooth="yes"/>
      <point x="408.55477104610543" y="100.59933202225717"/>
      <point x="424.734693877551" y="95.0"/>
      <point x="436.0" y="95.0" type="curve" smooth="yes"/>
      <point x="455.86206896551727" y="95.0"/>
      <point x="468.0" y="107.0"/>
    </contour>
  </outline>
</glyph>
<glyph name="A" format="2">
  <advance width="656.4444444444445"/>
  <unicode hex="0041"/>
  <anchor x="349.0833333333333" y="731.0" name="center"/>
  <outline>
    <contour>
      <point x="162.72222222222223" y="283.72222222222223" type="line"/>
      <point x="160.44444444444446" y="248.38888888888889" type="line"/>
      <point x="460.5" y="248.38888888888889" type="line"/>
      <point x="454.5" y="283.72222222222223" type="line"/>
    </contour>
    <contour>
      <point x="208.27777777777777" y="13.61111111111111" type="curve" smooth="yes"/>
      <point x="208.27777777777777" y="20.38888888888889"/>
      <point x="202.08333333333334" y="25.166666666666664"/>
      <point x="184.16666666666666" y="32.41666666666667" type="curve" smooth="yes"/>
      <point x="151.66666666666666" y="45.05555555555556" type="line" smooth="yes"/>
      <point x="131.02777777777777" y="52.58333333333333"/>
      <point x="120.13888888888889" y="68.27777777777777"/>
      <point x="136.08333333333334" y="116.63888888888889" type="curve" smooth="yes"/>
      <point x="305.5833333333333" y="625.5555555555555" type="line" smooth="yes"/>
      <point x="308.0" y="632.3333333333334"/>
      <point x="309.94444444444446" y="634.8055555555555"/>
      <point x="313.8333333333333" y="634.8055555555555" type="curve" smooth="yes"/>
      <point x="317.72222222222223" y="634.8055555555555"/>
      <point x="320.6666666666667" y="631.8611111111111"/>
      <point x="322.6111111111111" y="625.0277777777778" type="curve" smooth="yes"/>
      <point x="494.80555555555554" y="85.55555555555556" type="line" smooth="yes"/>
      <point x="502.6388888888889" y="60.52777777777778"/>
      <point x="492.3333333333333" y="41.80555555555556"/>
      <point x="472.3888888888889" y="36.80555555555556" type="curve" smooth="yes"/>
      <point x="443.47222222222223" y="29.63888888888889" type="line" smooth="yes"/>
      <point x="433.22222222222223" y="26.694444444444443"/>
      <point x="427.3888888888889" y="22.333333333333332"/>
      <point x="427.3888888888889" y="13.61111111111111" type="curve" smooth="yes"/>
      <point x="427.3888888888889" y="4.361111111111111"/>
      <point x="433.69444444444446" y="0.0"/>
      <point x="443.94444444444446" y="0.0" type="curve" smooth="yes"/>
      <point x="637.0555555555555" y="0.0" type="line" smooth="yes"/>
      <point x="648.1944444444445" y="0.0"/>
      <point x="655.4444444444445" y="4.888888888888889"/>
      <point x="655.4444444444445" y="13.666666666666666" type="curve" smooth="yes"/>
      <point x="655.4444444444445" y="21.444444444444443"/>
      <point x="650.731953539395" y="25.765274746127588"/>
      <point x="635.1666666666666" y="31.583333333333332" type="curve" smooth="yes"/>
      <point x="613.9166666666666" y="39.0"/>
      <point x="603.0323549906448" y="50.98545027638013"/>
      <point x="593.0277777777778" y="80.5" type="curve" smooth="yes"/>
      <point x="411.47222222222223" y="633.4722222222222" type="line" smooth="yes"/>
      <point x="405.94444444444446" y="649.5277777777778"/>
      <point x="414.47222222222223" y="662.6944444444445"/>
      <point x="424.05555555555554" y="668.4722222222222" type="curve" smooth="yes"/>
      <point x="429.05555555555554" y="672.3055555555555"/>
      <point x="434.52777777777777" y="676.6111111111111"/>
      <point x="434.52777777777777" y="684.4444444444445" type="curve" smooth="yes"/>
      <point x="434.52777777777777" y="693.6944444444445"/>
      <point x="425.75" y="700.0"/>
      <point x="414.55555555555554" y="700.0" type="curve" smooth="yes"/>
      <point x="254.33333333333334" y="700.0" type="line" smooth="yes"/>
      <point x="243.66666666666666" y="700.0"/>
      <point x="234.41666666666666" y="693.1666666666666"/>
      <point x="234.41666666666666" y="684.4444444444445" type="curve" smooth="yes"/>
      <point x="234.41666666666666" y="675.5"/>
      <point x="241.36111111111111" y="670.6666666666666"/>
      <point x="247.83333333333334" y="666.3611111111111" type="curve" smooth="yes"/>
      <point x="259.3808755138871" y="660.4082977824077"/>
      <point x="268.0622761308733" y="647.2932541975866"/>
      <point x="261.8888888888889" y="629.0" type="curve" smooth="yes"/>
      <point x="91.02777777777777" y="116.63888888888889" type="line" smooth="yes"/>
      <point x="71.5546061357613" y="58.899467445503646"/>
      <point x="50.031552001330084" y="41.91617185222132"/>
      <point x="22.444444444444443" y="31.944444444444443" type="curve" smooth="yes"/>
      <point x="6.888888888888889" y="25.694444444444443"/>
      <point x="1.5833333333333335" y="19.86111111111111"/>
      <point x="1.5833333333333335" y="11.666666666666666" type="curve" smooth="yes"/>
      <point x="1.5833333333333335" y="3.4166666666666665"/>
      <point x="7.361111111111111" y="0.0"/>
      <point x="22.38888888888889" y="0.0" type="curve" smooth="yes"/>
      <point x="189.83333333333334" y="0.0" type="line" smooth="yes"/>
      <point x="201.5" y="0.0"/>
      <point x="208.27777777777777" y="5.361111111111111"/>
    </contour>
  </outline>
</glyph>
<glyph name="B" format="2">
  <advance width="627.5555555555555"/>
  <unicode hex="0042"/>
  <outline>
    <contour>
      <point x="593.9722222222222" y="172.0" type="curve" smooth="yes"/>
      <point x="593.9722222222222" y="273.8888888888889"/>
      <point x="501.1924519456165" y="341.8333333333333"/>
      <point x="362.52777777777777" y="341.8333333333333" type="curve" smooth="yes"/>
      <point x="351.52777777777777" y="341.8333333333333"/>
      <point x="342.52777777777777" y="343.72222222222223"/>
      <point x="333.52777777777777" y="342.30555555555554" type="curve"/>
      <point x="329.80555555555554" y="335.0" type="line"/>
      <point x="464.30555555555554" y="335.0"/>
      <point x="553.9722222222222" y="403.0"/>
      <point x="553.9722222222222" y="505.0" type="curve" smooth="yes"/>
      <point x="553.9722222222222" y="624.0"/>
      <point x="449.2268351383875" y="700.0"/>
      <point x="282.52777777777777" y="700.0" type="curve" smooth="yes"/>
      <point x="66.19444444444444" y="700.0" type="line" smooth="yes"/>
      <point x="46.19444444444444" y="700.0"/>
      <point x="35.19444444444444" y="695.1111111111111"/>
      <point x="35.19444444444444" y="686.2777777777778" type="curve" smooth="yes"/>
      <point x="35.19444444444444" y="677.9166666666666"/>
      <point x="45.19444444444444" y="672.0833333333334"/>
      <point x="63.19444444444444" y="668.5555555555555" type="curve" smooth="yes"/>
      <point x="88.19444444444444" y="662.5555555555555" type="line" smooth="yes"/>
      <point x="111.19444444444444" y="657.5555555555555"/>
      <point x="125.19444444444444" y="640.5555555555555"/>
      <point x="125.19444444444444" y="617.5555555555555" type="curve" smooth="yes"/>
      <point x="125.19444444444444" y="70.36111111111111" type="line" smooth="yes"/>
      <point x="125.19444444444444" y="53.111111111111114"/>
      <point x="113.30555555555556" y="39.33333333333333"/>
      <point x="93.52777777777777" y="35.861111111111114" type="curve" smooth="yes"/>
      <point x="52.69444444444444" y="27.75" type="line" smooth="yes"/>
      <point x="40.5" y="25.333333333333332"/>
      <point x="34.19444444444444" y="19.444444444444443"/>
      <point x="34.19444444444444" y="12.666666666666666" type="curve" smooth="yes"/>
      <point x="34.19444444444444" y="4.361111111111111"/>
      <point x="42.02777777777778" y="0.0"/>
      <point x="55.69444444444444" y="0.0" type="curve" smooth="yes"/>
      <point x="339.52777777777777" y="0.0" type="line" smooth="yes"/>
      <point x="494.2126068376068" y="0.0"/>
      <point x="593.9722222222222" y="67.0"/>
    </contour>
    <contour>
      <point x="317.52777777777777" y="318.55555555555554" type="line" smooth="yes"/>
      <point x="429.69444444444446" y="318.55555555555554"/>
      <point x="503.80555555555554" y="264.3333333333333"/>
      <point x="503.80555555555554" y="180.0" type="curve" smooth="yes"/>
      <point x="503.80555555555554" y="94.55555555555556"/>
      <point x="438.69444444444446" y="34.75"/>
      <point x="348.52777777777777" y="34.75" type="curve" smooth="yes"/>
      <point x="262.5" y="34.75" type="line" smooth="yes"/>
      <point x="235.30555555555554" y="34.75"/>
      <point x="216.52777777777777" y="50.111111111111114"/>
      <point x="216.52777777777777" y="74.88888888888889" type="curve" smooth="yes"/>
      <point x="216.52777777777777" y="664.4722222222222" type="line"/>
      <point x="277.52777777777777" y="664.4722222222222" type="line" smooth="yes"/>
      <point x="391.69444444444446" y="664.4722222222222"/>
      <point x="464.80555555555554" y="604.0833333333334"/>
      <point x="464.80555555555554" y="513.0" type="curve" smooth="yes"/>
      <point x="464.80555555555554" y="417.8333333333333"/>
      <point x="399.80555555555554" y="350.72222222222223"/>
      <point x="309.80555555555554" y="350.72222222222223" type="curve" smooth="yes"/>
      <point x="209.25" y="350.72222222222223" type="line"/>
      <point x="203.52777777777777" y="318.55555555555554" type="line"/>
    </contour>
  </outline>
</glyph>
<glyph name="D" format="2">
  <advance width="726.25"/>
  <unicode hex="0044"/>
  <outline>
    <contour>
      <point x="30.444444444444443" y="12.666666666666666" type="curve" smooth="yes"/>
      <point x="30.444444444444443" y="3.888888888888889"/>
      <point x="36.27777777777778" y="0.0"/>
      <point x="49.83333333333333" y="0.0" type="curve" smooth="yes"/>
      <point x="343.6666666666667" y="0.0" type="line" smooth="yes"/>
      <point x="541.2222222222222" y="0.0"/>
      <point x="690.8888888888889" y="133.88888888888889"/>
      <point x="690.8888888888889" y="315.25" type="curve" smooth="yes"/>
      <point x="690.8888888888889" y="540.8888888888889"/>
      <point x="517.0555555555555" y="700.0"/>
      <point x="294.27777777777777" y="700.0" type="curve" smooth="yes"/>
      <point x="61.44444444444444" y="700.0" type="line" smooth="yes"/>
      <point x="39.44444444444444" y="700.0"/>
      <point x="30.444444444444443" y="695.5833333333334"/>
      <point x="30.444444444444443" y="686.2777777777778" type="curve" smooth="yes"/>
      <point x="30.444444444444443" y="677.5555555555555"/>
      <point x="37.27777777777778" y="674.1944444444445"/>
      <point x="49.47222222222222" y="671.7222222222222" type="curve" smooth="yes"/>
      <point x="90.30555555555556" y="662.0277777777778" type="line" smooth="yes"/>
      <point x="109.55555555555556" y="657.5555555555555"/>
      <point x="120.44444444444444" y="647.7222222222222"/>
      <point x="120.44444444444444" y="626.5277777777778" type="curve" smooth="yes"/>
      <point x="120.44444444444444" y="73.52777777777777" type="line" smooth="yes"/>
      <point x="120.44444444444444" y="50.69444444444444"/>
      <point x="108.5" y="39.27777777777778"/>
      <point x="84.5" y="34.80555555555556" type="curve" smooth="yes"/>
      <point x="48.94444444444444" y="27.75" type="line" smooth="yes"/>
      <point x="37.80555555555556" y="25.333333333333332"/>
      <point x="30.444444444444443" y="21.916666666666664"/>
    </contour>
    <contour>
      <point x="345.0833333333333" y="37.111111111111114" type="curve" smooth="yes"/>
      <point x="272.4166666666667" y="37.111111111111114" type="line" smooth="yes"/>
      <point x="233.44444444444446" y="37.111111111111114"/>
      <point x="211.25" y="58.19444444444444"/>
      <point x="211.25" y="96.41666666666666" type="curve" smooth="yes"/>
      <point x="211.25" y="621.9166666666666" type="line" smooth="yes"/>
      <point x="211.25" y="650.5833333333334"/>
      <point x="221.61111111111111" y="663.9444444444445"/>
      <point x="248.69444444444446" y="663.9444444444445" type="curve" smooth="yes"/>
      <point x="302.30555555555554" y="663.9444444444445" type="line" smooth="yes"/>
      <point x="472.25" y="663.9444444444445"/>
      <point x="594.6111111111111" y="530.25"/>
      <point x="594.6111111111111" y="335.25" type="curve" smooth="yes"/>
      <point x="594.6111111111111" y="157.16666666666666"/>
      <point x="487.25" y="37.111111111111114"/>
    </contour>
  </outline>
</glyph>
<glyph name="F" format="2">
  <advance width="538.0555555555555"/>
  <unicode hex="0046"/>
  <outline>
    <contour>
      <point x="416.02777777777777" y="700.0" type="curve" smooth="yes"/>
      <point x="49.888888888888886" y="700.0" type="line" smooth="yes"/>
      <point x="36.75" y="700.0"/>
      <point x="29.444444444444443" y="695.6388888888889"/>
      <point x="29.444444444444443" y="686.3888888888889" type="curve" smooth="yes"/>
      <point x="29.444444444444443" y="677.2444444444445"/>
      <point x="37.22222222222222" y="674.25"/>
      <point x="51.41666666666667" y="670.8333333333334" type="curve" smooth="yes"/>
      <point x="95.13888888888889" y="659.6111111111111" type="line" smooth="yes"/>
      <point x="109.88588371315525" y="656.394654164135"/>
      <point x="119.44444444444444" y="644.6666666666666"/>
      <point x="119.44444444444444" y="627.7777777777778" type="curve" smooth="yes"/>
      <point x="119.44444444444444" y="77.61111111111111" type="line" smooth="yes"/>
      <point x="119.44444444444444" y="54.61431623931624"/>
      <point x="110.08333333333333" y="43.111111111111114"/>
      <point x="88.83333333333333" y="37.75" type="curve" smooth="yes"/>
      <point x="49.25" y="29.583333333333332" type="line" smooth="yes"/>
      <point x="35.599880975492184" y="25.659268614125914"/>
      <point x="29.444444444444443" y="21.805555555555557"/>
      <point x="29.444444444444443" y="13.083333333333332" type="curve" smooth="yes"/>
      <point x="29.444444444444443" y="4.361111111111111"/>
      <point x="37.22222222222222" y="0.0"/>
      <point x="49.361111111111114" y="0.0" type="curve" smooth="yes"/>
      <point x="298.80555555555554" y="0.0" type="line" smooth="yes"/>
      <point x="310.0" y="0.0"/>
      <point x="320.25" y="4.361111111111111"/>
      <point x="320.25" y="13.083333333333332" type="curve" smooth="yes"/>
      <point x="320.25" y="18.38888888888889"/>
      <point x="315.4166666666667" y="23.22222222222222"/>
      <point x="304.69444444444446" y="25.63888888888889" type="curve" smooth="yes"/>
      <point x="243.69444444444446" y="38.33333333333333" type="line" smooth="yes"/>
      <point x="221.55555555555554" y="43.22222222222222"/>
      <point x="210.25" y="55.47222222222222"/>
      <point x="210.25" y="80.97222222222223" type="curve" smooth="yes"/>
      <point x="210.25" y="665.3611111111111" type="line"/>
      <point x="334.25" y="665.3611111111111" type="line" smooth="yes"/>
      <point x="386.77465277777776" y="665.3611111111111"/>
      <point x="430.63024866129246" y="640.4287445496632"/>
      <point x="479.19444444444446" y="560.6944444444445" type="curve" smooth="yes"/>
      <point x="489.97222222222223" y="543.4444444444445"/>
      <point x="497.8404761904762" y="537.0277777777778"/>
      <point x="507.52777777777777" y="537.0277777777778" type="curve" smooth="yes"/>
      <point x="514.6574074074074" y="537.0277777777778"/>
      <point x="519.1944444444445" y="542.0925925925926"/>
      <point x="519.1944444444445" y="551.2777777777778" type="curve" smooth="yes"/>
      <point x="519.1944444444445" y="554.1410256410256"/>
      <point x="518.4249777011808" y="561.0390380516124"/>
      <point x="516.25" y="569.4166666666666" type="curve" smooth="yes"/>
      <point x="479.55555555555554" y="706.2777777777778" type="line" smooth="yes"/>
      <point x="476.1388888888889" y="718.0"/>
      <point x="473.0064102564103" y="723.3611111111111"/>
      <point x="462.52777777777777" y="723.3611111111111" type="curve" smooth="yes"/>
      <point x="455.775641025641" y="723.3611111111111"/>
      <point x="451.2933077011641" y="719.8297470191746"/>
      <point x="444.97222222222223" y="712.5277777777778" type="curve" smooth="yes"/>
      <point x="436.37312886844364" y="702.3850587404434"/>
      <point x="425.7688679245283" y="700.0"/>
    </contour>
    <contour>
      <point x="179.5" y="346.94444444444446" type="line"/>
      <point x="178.77777777777777" y="314.6666666666667" type="line"/>
      <point x="333.0" y="314.6666666666667" type="line" smooth="yes"/>
      <point x="381.05555555555554" y="314.6666666666667"/>
      <point x="409.69444444444446" y="300.19444444444446"/>
      <point x="428.1111111111111" y="266.27777777777777" type="curve" smooth="yes"/>
      <point x="436.8333333333333" y="253.02777777777777"/>
      <point x="443.19444444444446" y="246.66666666666666"/>
      <point x="453.5" y="246.66666666666666" type="curve" smooth="yes"/>
      <point x="460.3333333333333" y="246.66666666666666"/>
      <point x="465.75" y="250.55555555555554"/>
      <point x="465.75" y="259.44444444444446" type="curve" smooth="yes"/>
      <point x="465.75" y="262.5"/>
      <point x="465.69444444444446" y="266.02777777777777"/>
      <point x="463.75" y="273.3888888888889" type="curve" smooth="yes"/>
      <point x="427.6388888888889" y="401.75" type="line" smooth="yes"/>
      <point x="425.1666666666667" y="410.5833333333333"/>
      <point x="421.27777777777777" y="414.94444444444446"/>
      <point x="412.97222222222223" y="414.94444444444446" type="curve" smooth="yes"/>
      <point x="406.1388888888889" y="414.94444444444446"/>
      <point x="401.19444444444446" y="409.0"/>
      <point x="398.30555555555554" y="399.5833333333333" type="curve" smooth="yes"/>
      <point x="386.6388888888889" y="360.0"/>
      <point x="364.6388888888889" y="346.94444444444446"/>
      <point x="331.0" y="346.94444444444446" type="curve" smooth="yes"/>
    </contour>
  </outline>
</glyph>
<glyph name="L" format="2">
  <advance width="530.2222222222222"/>
  <unicode hex="004C"/>
  <anchor x="196.0" y="742.0" name="center"/>
  <outline>
    <contour>
      <point x="299.8888888888889" y="672.7777777777778" type="line" smooth="yes"/>
      <point x="310.6111111111111" y="675.1944444444445"/>
      <point x="315.97222222222223" y="680.5555555555555"/>
      <point x="315.97222222222223" y="686.9166666666666" type="curve" smooth="yes"/>
      <point x="315.97222222222223" y="695.6388888888889"/>
      <point x="306.77777777777777" y="700.0"/>
      <point x="296.1111111111111" y="700.0" type="curve" smooth="yes"/>
      <point x="50.888888888888886" y="700.0" type="line" smooth="yes"/>
      <point x="38.22222222222222" y="700.0"/>
      <point x="29.916666666666664" y="695.5861111111111"/>
      <point x="29.916666666666664" y="686.3888888888889" type="curve" smooth="yes"/>
      <point x="29.916666666666664" y="677.6666666666666"/>
      <point x="36.7964061767794" y="674.2432380236885"/>
      <point x="51.30555555555556" y="669.8888888888889" type="curve" smooth="yes"/>
      <point x="89.30555555555556" y="660.1388888888889" type="line" smooth="yes"/>
      <point x="110.55555555555556" y="654.25"/>
      <point x="119.91666666666667" y="642.3611111111111"/>
      <point x="119.91666666666667" y="618.1666666666666" type="curve" smooth="yes"/>
      <point x="119.91666666666667" y="69.05555555555556" type="line" smooth="yes"/>
      <point x="119.91666666666667" y="52.166666666666664"/>
      <point x="108.91666666666667" y="40.75"/>
      <point x="92.97222222222223" y="37.27777777777778" type="curve" smooth="yes"/>
      <point x="51.361111111111114" y="29.166666666666664" type="line" smooth="yes"/>
      <point x="37.69444444444444" y="25.75"/>
      <point x="29.916666666666664" y="22.333333333333332"/>
      <point x="29.916666666666664" y="13.61111111111111" type="curve" smooth="yes"/>
      <point x="29.916666666666664" y="4.361111111111111"/>
      <point x="37.22222222222222" y="0.0"/>
      <point x="50.888888888888886" y="0.0" type="curve" smooth="yes"/>
      <point x="418.05555555555554" y="0.0" type="line" smooth="yes"/>
      <point x="431.30555555555554" y="0.0"/>
      <point x="443.0833333333333" y="-18.77777777777778"/>
      <point x="457.80555555555554" y="-18.77777777777778" type="curve" smooth="yes"/>
      <point x="470.5833333333333" y="-18.77777777777778"/>
      <point x="476.47222222222223" y="-9.833333333333332"/>
      <point x="481.4166666666667" y="8.0" type="curve" smooth="yes"/>
      <point x="523.4166666666666" y="160.72222222222223" type="line" smooth="yes"/>
      <point x="528.1462583769454" y="178.560697591968"/>
      <point x="522.5277777777778" y="185.86111111111111"/>
      <point x="514.1666666666666" y="185.86111111111111" type="curve" smooth="yes"/>
      <point x="504.4151234567901" y="185.86111111111111"/>
      <point x="497.097077953244" y="179.60957586693246"/>
      <point x="487.0" y="163.83333333333334" type="curve" smooth="yes"/>
      <point x="453.0" y="105.0" type="line" smooth="yes"/>
      <point x="424.52777777777777" y="55.44444444444444"/>
      <point x="390.05555555555554" y="35.22222222222222"/>
      <point x="338.6388888888889" y="35.22222222222222" type="curve" smooth="yes"/>
      <point x="273.69444444444446" y="35.22222222222222" type="line" smooth="yes"/>
      <point x="230.55555555555554" y="35.22222222222222"/>
      <point x="210.72222222222223" y="52.05555555555556"/>
      <point x="210.72222222222223" y="87.72222222222223" type="curve" smooth="yes"/>
      <point x="210.72222222222223" y="615.8611111111111" type="line" smooth="yes"/>
      <point x="210.72222222222223" y="642.2619731800766"/>
      <point x="222.02777777777777" y="655.1944444444445"/>
      <point x="245.75" y="660.1388888888889" type="curve" smooth="yes"/>
    </contour>
  </outline>
</glyph>
<glyph name="N" format="2">
  <advance width="747.5555555555555"/>
  <unicode hex="004E"/>
  <outline>
    <contour>
      <point x="269.3611111111111" y="14.61111111111111" type="curve" smooth="yes"/>
      <point x="269.3611111111111" y="23.27777777777778"/>
      <point x="264.47222222222223" y="26.63888888888889"/>
      <point x="253.75" y="31.52777777777778" type="curve" smooth="yes"/>
      <point x="205.11111111111111" y="55.611111111111114" type="line" smooth="yes"/>
      <point x="184.02777777777777" y="65.44444444444444"/>
      <point x="171.36111111111111" y="74.33333333333333"/>
      <point x="171.36111111111111" y="90.05555555555556" type="curve" smooth="yes"/>
      <point x="171.36111111111111" y="566.1111111111111" type="line"/>
      <point x="164.16666666666666" y="553.7777777777778" type="line"/>
      <point x="556.5555555555555" y="52.361111111111114" type="line" smooth="yes"/>
      <point x="564.3888888888889" y="42.58333333333333"/>
      <point x="570.0555555555555" y="31.86111111111111"/>
      <point x="570.0555555555555" y="18.61111111111111" type="curve" smooth="yes"/>
      <point x="570.0555555555555" y="7.833333333333333"/>
      <point x="576.8888888888889" y="0.0"/>
      <point x="587.6111111111111" y="0.0" type="curve" smooth="yes"/>
      <point x="668.0555555555555" y="0.0" type="line" smooth="yes"/>
      <point x="680.9094982078852" y="0.0"/>
      <point x="688.6666666666666" y="5.396135265700483"/>
      <point x="688.6666666666666" y="14.722222222222221" type="curve" smooth="yes"/>
      <point x="688.6666666666666" y="22.61111111111111"/>
      <point x="685.5537368551388" y="27.49239408646143"/>
      <point x="675.8333333333334" y="39.44444444444444" type="curve" smooth="yes"/>
      <point x="642.8055555555555" y="81.27777777777777" type="line" smooth="yes"/>
      <point x="633.5" y="92.05555555555556"/>
      <point x="626.25" y="106.83333333333333"/>
      <point x="626.25" y="125.5" type="curve" smooth="yes"/>
      <point x="626.25" y="605.2222222222222" type="line" smooth="yes"/>
      <point x="626.25" y="621.4722222222222"/>
      <point x="636.5555555555555" y="632.3055555555555"/>
      <point x="650.4444444444445" y="639.7222222222222" type="curve" smooth="yes"/>
      <point x="703.6388888888889" y="666.4722222222222" type="line" smooth="yes"/>
      <point x="715.8333333333334" y="672.3055555555555"/>
      <point x="719.25" y="677.7986111111111"/>
      <point x="719.25" y="685.4444444444445" type="curve" smooth="yes"/>
      <point x="719.25" y="693.6358024691358"/>
      <point x="712.1203703703704" y="700.0"/>
      <point x="700.2222222222222" y="700.0" type="curve" smooth="yes"/>
      <point x="496.6388888888889" y="700.0" type="line" smooth="yes"/>
      <point x="486.9166666666667" y="700.0"/>
      <point x="481.0833333333333" y="694.6388888888889"/>
      <point x="481.0833333333333" y="685.8611111111111" type="curve" smooth="yes"/>
      <point x="481.0833333333333" y="677.6111111111111"/>
      <point x="486.5223382721897" y="671.8994586054065"/>
      <point x="500.52777777777777" y="666.0" type="curve" smooth="yes"/>
      <point x="554.5833333333334" y="642.5555555555555" type="line" smooth="yes"/>
      <point x="578.25" y="632.1944444444445"/>
      <point x="584.0833333333334" y="623.8333333333334"/>
      <point x="584.0833333333334" y="607.0555555555555" type="curve" smooth="yes"/>
      <point x="584.0833333333334" y="126.83333333333333" type="line"/>
      <point x="596.5555555555555" y="137.0" type="line"/>
      <point x="183.97222222222223" y="673.1944444444445" type="line" smooth="yes"/>
      <point x="166.0" y="695.1111111111111"/>
      <point x="156.60119047619048" y="700.0"/>
      <point x="141.5" y="700.0" type="curve" smooth="yes"/>
      <point x="68.5" y="700.0" type="line" smooth="yes"/>
      <point x="56.12275985663082" y="700.0"/>
      <point x="48.0" y="695.1111111111111"/>
      <point x="48.0" y="684.8611111111111" type="curve" smooth="yes"/>
      <point x="48.0" y="674.8297491039426"/>
      <point x="53.130088670097514" y="671.2768797279244"/>
      <point x="62.19444444444444" y="662.3611111111111" type="curve" smooth="yes"/>
      <point x="105.47222222222223" y="618.3333333333334" type="line" smooth="yes"/>
      <point x="120.36111111111111" y="603.8611111111111"/>
      <point x="129.19444444444446" y="591.9722222222222"/>
      <point x="129.19444444444446" y="568.6111111111111" type="curve" smooth="yes"/>
      <point x="129.19444444444446" y="90.05555555555556" type="line" smooth="yes"/>
      <point x="129.19444444444446" y="74.80555555555556"/>
      <point x="115.88888888888889" y="63.5"/>
      <point x="99.16666666666667" y="55.611111111111114" type="curve" smooth="yes"/>
      <point x="50.0" y="32.0" type="line" smooth="yes"/>
      <point x="37.44444444444444" y="26.694444444444443"/>
      <point x="30.194444444444443" y="22.333333333333332"/>
      <point x="30.194444444444443" y="12.666666666666666" type="curve" smooth="yes"/>
      <point x="30.194444444444443" y="3.182098765432099"/>
      <point x="38.44444444444444" y="0.0"/>
      <point x="49.05555555555556" y="0.0" type="curve" smooth="yes"/>
      <point x="247.55555555555554" y="0.0" type="line" smooth="yes"/>
      <point x="260.6388888888889" y="0.0"/>
      <point x="269.3611111111111" y="4.833333333333333"/>
    </contour>
  </outline>
</glyph>
<glyph name="O" format="2">
  <advance width="766.3611111111111"/>
  <unicode hex="004F"/>
  <outline>
    <contour>
      <point x="394.0" y="711.4166666666666" type="curve" smooth="yes"/>
      <point x="186.61062661498707" y="711.4166666666666"/>
      <point x="38.583333333333336" y="557.7222222222222"/>
      <point x="38.583333333333336" y="343.44444444444446" type="curve" smooth="yes"/>
      <point x="38.583333333333336" y="138.83333333333334"/>
      <point x="179.9627914951989" y="-12.36111111111111"/>
      <point x="372.8888888888889" y="-12.36111111111111" type="curve" smooth="yes"/>
      <point x="581.3026401036605" y="-12.36111111111111"/>
      <point x="727.3055555555555" y="144.80555555555554"/>
      <point x="727.3055555555555" y="365.55555555555554" type="curve" smooth="yes"/>
      <point x="727.3055555555555" y="561.6944444444445"/>
      <point x="588.8839869281046" y="711.4166666666666"/>
    </contour>
    <contour>
      <point x="630.7777777777778" y="312.72222222222223" type="curve" smooth="yes"/>
      <point x="630.7777777777778" y="129.86111111111111"/>
      <point x="537.8512834616795" y="32.861111111111114"/>
      <point x="412.77777777777777" y="32.861111111111114" type="curve" smooth="yes"/>
      <point x="260.8377833402865" y="32.861111111111114"/>
      <point x="134.16666666666666" y="177.47222222222223"/>
      <point x="134.16666666666666" y="393.9166666666667" type="curve" smooth="yes"/>
      <point x="134.16666666666666" y="566.1388888888889"/>
      <point x="227.16656691935984" y="668.3055555555555"/>
      <point x="350.8888888888889" y="668.3055555555555" type="curve" smooth="yes"/>
      <point x="503.97815342755035" y="668.3055555555555"/>
      <point x="630.7777777777778" y="521.4722222222222"/>
    </contour>
  </outline>
</glyph>
<glyph name="Q" format="2">
  <advance width="766.3611111111111"/>
  <unicode hex="0051"/>
  <outline>
    <contour>
      <point x="408.52777777777777" y="177.55555555555554" type="curve" smooth="yes"/>
      <point x="473.9127901416241" y="-45.802117790762445"/>
      <point x="573.25" y="-143.91666666666666"/>
      <point x="696.3333333333334" y="-143.91666666666666" type="curve" smooth="yes"/>
      <point x="711.4166666666666" y="-143.91666666666666"/>
      <point x="718.4166666666666" y="-136.13888888888889"/>
      <point x="722.8333333333334" y="-124.0" type="curve" smooth="yes"/>
      <point x="748.2777777777778" y="-62.02777777777778" type="line" smooth="yes"/>
      <point x="750.75" y="-54.666666666666664"/>
      <point x="752.75" y="-50.25"/>
      <point x="752.75" y="-45.833333333333336" type="curve" smooth="yes"/>
      <point x="752.75" y="-40.52777777777778"/>
      <point x="748.3611111111111" y="-36.638888888888886"/>
      <point x="743.0277777777778" y="-36.638888888888886" type="curve" smooth="yes"/>
      <point x="730.8333333333334" y="-36.638888888888886"/>
      <point x="710.0277777777778" y="-53.69444444444444"/>
      <point x="667.7222222222222" y="-53.69444444444444" type="curve" smooth="yes"/>
      <point x="574.0833333333334" y="-53.69444444444444"/>
      <point x="499.28761661924125" y="4.359372364498494"/>
      <point x="437.22222222222223" y="190.55555555555554" type="curve" smooth="yes"/>
      <point x="433.3333333333333" y="201.69444444444446"/>
      <point x="427.5" y="208.0"/>
      <point x="418.72222222222223" y="208.0" type="curve" smooth="yes"/>
      <point x="411.8888888888889" y="208.0"/>
      <point x="406.05555555555554" y="201.63888888888889"/>
      <point x="406.05555555555554" y="193.38888888888889" type="curve" smooth="yes"/>
      <point x="406.05555555555554" y="187.44444444444446"/>
      <point x="406.52777777777777" y="183.5"/>
    </contour>
    <component base="O"/>
  </outline>
</glyph>
<glyph name="R" format="2">
  <advance width="651.0555555555555"/>
  <unicode hex="0052"/>
  <anchor x="313.0" y="738.0" name="center"/>
  <outline>
    <contour>
      <point x="582.1944444444445" y="459.47222222222223" type="curve" smooth="yes"/>
      <point x="582.1944444444445" y="603.9444444444445"/>
      <point x="463.10236185539327" y="700.0"/>
      <point x="273.3611111111111" y="700.0" type="curve" smooth="yes"/>
      <point x="50.361111111111114" y="700.0" type="line" smooth="yes"/>
      <point x="37.22222222222222" y="700.0"/>
      <point x="29.916666666666664" y="695.4277777777778"/>
      <point x="29.916666666666664" y="687.8611111111111" type="curve" smooth="yes"/>
      <point x="29.916666666666664" y="679.8194444444445"/>
      <point x="35.6955343940656" y="674.7358386237058"/>
      <point x="48.94444444444444" y="672.25" type="curve" smooth="yes"/>
      <point x="90.30555555555556" y="662.0277777777778" type="line" smooth="yes"/>
      <point x="110.08333333333333" y="657.5555555555555"/>
      <point x="120.44444444444444" y="644.1561728395062"/>
      <point x="120.44444444444444" y="625.4722222222222" type="curve" smooth="yes"/>
      <point x="120.44444444444444" y="71.41666666666667" type="line" smooth="yes"/>
      <point x="120.44444444444444" y="53.638888888888886"/>
      <point x="110.08333333333333" y="39.80555555555556"/>
      <point x="90.83333333333333" y="35.861111111111114" type="curve" smooth="yes"/>
      <point x="48.41666666666667" y="27.75" type="line" smooth="yes"/>
      <point x="35.61954369469404" y="25.20164546460242"/>
      <point x="29.916666666666664" y="20.876262626262626"/>
      <point x="29.916666666666664" y="13.194444444444445" type="curve" smooth="yes"/>
      <point x="29.916666666666664" y="4.9944444444444445"/>
      <point x="36.69444444444444" y="0.0"/>
      <point x="49.30555555555556" y="0.0" type="curve" smooth="yes"/>
      <point x="276.02777777777777" y="0.0" type="line" smooth="yes"/>
      <point x="289.07142857142856" y="0.0"/>
      <point x="296.52777777777777" y="4.690972222222222"/>
      <point x="296.52777777777777" y="12.666666666666666" type="curve" smooth="yes"/>
      <point x="296.52777777777777" y="19.97222222222222"/>
      <point x="290.69444444444446" y="23.38888888888889"/>
      <point x="276.8611111111111" y="26.805555555555557" type="curve" smooth="yes"/>
      <point x="234.55555555555554" y="36.388888888888886" type="line" smooth="yes"/>
      <point x="219.60791415477524" y="39.637036703724704"/>
      <point x="211.25" y="51.166666666666664"/>
      <point x="211.25" y="70.88888888888889" type="curve" smooth="yes"/>
      <point x="211.25" y="663.9444444444445" type="line"/>
      <point x="271.05555555555554" y="663.9444444444445" type="line" smooth="yes"/>
      <point x="400.3888888888889" y="663.9444444444445"/>
      <point x="485.97222222222223" y="584.3333333333334"/>
      <point x="485.97222222222223" y="472.19444444444446" type="curve" smooth="yes"/>
      <point x="485.97222222222223" y="356.1666666666667"/>
      <point x="411.3888888888889" y="286.8611111111111"/>
      <point x="305.80555555555554" y="286.8611111111111" type="curve" smooth="yes"/>
      <point x="236.86111111111111" y="286.8611111111111"/>
      <point x="197.38888888888889" y="298.97222222222223"/>
      <point x="151.44444444444446" y="327.6666666666667" type="curve"/>
      <point x="141.44444444444446" y="294.9166666666667" type="line"/>
      <point x="188.27777777777777" y="262.69444444444446"/>
      <point x="229.27777777777777" y="251.11111111111111"/>
      <point x="308.27777777777777" y="251.11111111111111" type="curve" smooth="yes"/>
      <point x="469.77777777777777" y="251.11111111111111"/>
      <point x="582.1944444444445" y="332.47222222222223"/>
    </contour>
    <contour>
      <point x="334.77777777777777" y="266.19444444444446" type="line"/>
      <point x="465.3611111111111" y="73.94444444444444" type="line" smooth="yes"/>
      <point x="472.2546531609862" y="64.64449908920915"/>
      <point x="475.19444444444446" y="57.83333333333333"/>
      <point x="475.19444444444446" y="48.75" type="curve" smooth="yes"/>
      <point x="475.19444444444446" y="38.49867724867725"/>
      <point x="468.2298755752487" y="32.16202713761236"/>
      <point x="452.44444444444446" y="26.86111111111111" type="curve" smooth="yes"/>
      <point x="444.7217853444253" y="24.393445705552367"/>
      <point x="439.5" y="20.1031746031746"/>
      <point x="439.5" y="12.194444444444445" type="curve" smooth="yes"/>
      <point x="439.5" y="3.888888888888889"/>
      <point x="446.80555555555554" y="0.0"/>
      <point x="458.47222222222223" y="0.0" type="curve" smooth="yes"/>
      <point x="627.7777777777778" y="0.0" type="line" smooth="yes"/>
      <point x="642.3888888888889" y="0.0"/>
      <point x="647.75" y="5.888888888888889"/>
      <point x="647.75" y="14.13888888888889" type="curve" smooth="yes"/>
      <point x="647.75" y="21.97222222222222"/>
      <point x="642.3888888888889" y="24.444444444444443"/>
      <point x="631.9722222222222" y="27.38888888888889" type="curve" smooth="yes"/>
      <point x="607.3055555555555" y="35.638888888888886"/>
      <point x="588.6996787551427" y="48.67927598588469"/>
      <point x="569.7222222222222" y="74.80555555555556" type="curve" smooth="yes"/>
      <point x="418.72222222222223" y="283.0" type="line"/>
    </contour>
  </outline>
</glyph>
<glyph name="T" format="2">
  <advance width="576.4722222222222"/>
  <unicode hex="0054"/>
  <outline>
    <contour>
      <point x="103.69444444444444" y="700.0" type="line" smooth="yes"/>
      <point x="91.00567140196277" y="700.0"/>
      <point x="75.48654999670318" y="720.6666666666666"/>
      <point x="62.47222222222222" y="720.6666666666666" type="curve" smooth="yes"/>
      <point x="52.75" y="720.6666666666666"/>
      <point x="48.333333333333336" y="716.3055555555555"/>
      <point x="45.44444444444444" y="705.1666666666666" type="curve" smooth="yes"/>
      <point x="3.0555555555555554" y="554.5277777777778" type="line" smooth="yes"/>
      <point x="-0.30555555555555536" y="541.5"/>
      <point x="5.0" y="533.6111111111111"/>
      <point x="12.833333333333332" y="533.6111111111111" type="curve" smooth="yes"/>
      <point x="21.5" y="533.6111111111111"/>
      <point x="27.805555555555557" y="537.4444444444445"/>
      <point x="37.888888888888886" y="551.4166666666666" type="curve" smooth="yes"/>
      <point x="85.05353810963528" y="634.4963967969946"/>
      <point x="128.22222222222223" y="669.3055555555555"/>
      <point x="187.52777777777777" y="669.3055555555555" type="curve" smooth="yes"/>
      <point x="242.36111111111111" y="669.3055555555555" type="line"/>
      <point x="242.36111111111111" y="74.97222222222223" type="line" smooth="yes"/>
      <point x="242.36111111111111" y="53.41666666666667"/>
      <point x="232.94444444444446" y="41.69444444444444"/>
      <point x="210.11111111111111" y="37.22222222222222" type="curve" smooth="yes"/>
      <point x="170.55555555555554" y="30.11111111111111" type="line" smooth="yes"/>
      <point x="155.94444444444446" y="27.22222222222222"/>
      <point x="148.63888888888889" y="22.333333333333332"/>
      <point x="148.63888888888889" y="13.61111111111111" type="curve" smooth="yes"/>
      <point x="148.63888888888889" y="4.888888888888889"/>
      <point x="157.41666666666666" y="0.0"/>
      <point x="169.61111111111111" y="0.0" type="curve" smooth="yes"/>
      <point x="406.9166666666667" y="0.0" type="line" smooth="yes"/>
      <point x="419.5833333333333" y="0.0"/>
      <point x="427.3611111111111" y="4.361111111111111"/>
      <point x="427.3611111111111" y="12.555555555555555" type="curve" smooth="yes"/>
      <point x="427.3611111111111" y="21.805555555555557"/>
      <point x="420.52777777777777" y="26.166666666666664"/>
      <point x="404.9166666666667" y="29.583333333333332" type="curve" smooth="yes"/>
      <point x="361.6666666666667" y="37.75" type="line" smooth="yes"/>
      <point x="342.0" y="41.69444444444444"/>
      <point x="333.6388888888889" y="53.41666666666667"/>
      <point x="333.6388888888889" y="74.97222222222223" type="curve" smooth="yes"/>
      <point x="333.6388888888889" y="669.3055555555555" type="line"/>
      <point x="388.4166666666667" y="669.3055555555555" type="line" smooth="yes"/>
      <point x="440.3333333333333" y="669.3055555555555"/>
      <point x="493.5227038651823" y="635.9536883430488"/>
      <point x="536.5277777777778" y="552.4722222222222" type="curve" smooth="yes"/>
      <point x="546.6111111111111" y="537.4444444444445"/>
      <point x="553.4444444444445" y="532.5555555555555"/>
      <point x="563.1666666666666" y="532.5555555555555" type="curve" smooth="yes"/>
      <point x="570.9444444444445" y="532.5555555555555"/>
      <point x="575.7777777777778" y="539.3888888888889"/>
      <point x="572.4166666666666" y="552.9444444444445" type="curve" smooth="yes"/>
      <point x="535.8333333333334" y="705.1666666666666" type="line" smooth="yes"/>
      <point x="532.9444444444445" y="715.7777777777778"/>
      <point x="529.5277777777778" y="720.6666666666666"/>
      <point x="519.8611111111111" y="720.6666666666666" type="curve" smooth="yes"/>
      <point x="506.72222222222223" y="720.6666666666666"/>
      <point x="488.72222222222223" y="700.0"/>
      <point x="476.52777777777777" y="700.0" type="curve"/>
    </contour>
  </outline>
</glyph>
<glyph name="U" format="2">
  <advance width="651.9722222222222"/>
  <unicode hex="0055"/>
  <anchor x="354.44444444444446" y="730.0" name="center"/>
  <outline>
    <contour>
      <point x="529.8888888888889" y="292.52777777777777" type="line" smooth="yes"/>
      <point x="530.8888888888889" y="265.94444444444446"/>
      <point x="533.8888888888889" y="240.88888888888889"/>
      <point x="533.8888888888889" y="194.25" type="curve" smooth="yes"/>
      <point x="533.8888888888889" y="96.13888888888889"/>
      <point x="471.3611111111111" y="37.083333333333336"/>
      <point x="361.30555555555554" y="37.083333333333336" type="curve" smooth="yes"/>
      <point x="242.05555555555554" y="37.083333333333336"/>
      <point x="171.69444444444446" y="98.13888888888889"/>
      <point x="171.69444444444446" y="221.25" type="curve" smooth="yes"/>
      <point x="171.69444444444446" y="245.25"/>
      <point x="172.63888888888889" y="280.30555555555554"/>
      <point x="175.16666666666666" y="320.8333333333333" type="curve" smooth="yes"/>
      <point x="193.80555555555554" y="627.5833333333334" type="line" smooth="yes"/>
      <point x="195.27777777777777" y="648.25"/>
      <point x="202.11111111111111" y="658.0833333333334"/>
      <point x="220.25" y="662.0277777777778" type="curve" smooth="yes"/>
      <point x="266.6111111111111" y="673.3055555555555" type="line" smooth="yes"/>
      <point x="277.75" y="675.7222222222222"/>
      <point x="283.52777777777777" y="679.1388888888889"/>
      <point x="283.52777777777777" y="687.8611111111111" type="curve" smooth="yes"/>
      <point x="283.52777777777777" y="696.1111111111111"/>
      <point x="278.22222222222223" y="700.0"/>
      <point x="265.1388888888889" y="700.0" type="curve" smooth="yes"/>
      <point x="36.861111111111114" y="700.0" type="line" smooth="yes"/>
      <point x="24.305555555555557" y="700.0"/>
      <point x="19.0" y="696.1111111111111"/>
      <point x="19.0" y="687.8611111111111" type="curve" smooth="yes"/>
      <point x="19.0" y="679.6666666666666"/>
      <point x="24.77777777777778" y="677.7222222222222"/>
      <point x="35.916666666666664" y="673.8333333333334" type="curve" smooth="yes"/>
      <point x="73.91666666666667" y="662.0277777777778" type="line" smooth="yes"/>
      <point x="91.05555555555556" y="656.6666666666666"/>
      <point x="101.83333333333333" y="648.25"/>
      <point x="100.36111111111111" y="627.5833333333334" type="curve" smooth="yes"/>
      <point x="80.77777777777777" y="320.8333333333333" type="line" smooth="yes"/>
      <point x="78.67206977831056" y="286.9059365762777"/>
      <point x="73.25" y="221.3016975308642"/>
      <point x="73.25" y="190.52777777777777" type="curve" smooth="yes"/>
      <point x="73.25" y="76.74572649572649"/>
      <point x="160.38888888888889" y="-15.0"/>
      <point x="328.72222222222223" y="-15.0" type="curve" smooth="yes"/>
      <point x="502.5833333333333" y="-15.0"/>
      <point x="582.3055555555555" y="76.47222222222223"/>
      <point x="582.3055555555555" y="192.36111111111111" type="curve" smooth="yes"/>
      <point x="582.3055555555555" y="227.94444444444446"/>
      <point x="579.3055555555555" y="261.05555555555554"/>
      <point x="577.3055555555555" y="295.6388888888889" type="curve" smooth="yes"/>
      <point x="558.8333333333334" y="617.9444444444445" type="line" smooth="yes"/>
      <point x="557.8333333333334" y="633.7777777777778"/>
      <point x="565.7777777777778" y="649.5555555555555"/>
      <point x="580.6666666666666" y="655.0277777777778" type="curve" smooth="yes"/>
      <point x="624.5277777777778" y="671.7777777777778" type="line" smooth="yes"/>
      <point x="638.3055555555555" y="676.7222222222222"/>
      <point x="642.7222222222222" y="680.0833333333334"/>
      <point x="642.7222222222222" y="688.8611111111111" type="curve" smooth="yes"/>
      <point x="642.7222222222222" y="695.1666666666666"/>
      <point x="635.8888888888889" y="700.0"/>
      <point x="627.1111111111111" y="700.0" type="curve" smooth="yes"/>
      <point x="435.19444444444446" y="700.0" type="line" smooth="yes"/>
      <point x="423.0" y="700.0"/>
      <point x="415.1666666666667" y="696.5833333333334"/>
      <point x="415.1666666666667" y="687.3333333333334" type="curve" smooth="yes"/>
      <point x="415.1666666666667" y="680.5"/>
      <point x="421.94444444444446" y="674.6666666666666"/>
      <point x="434.55555555555554" y="670.7777777777778" type="curve" smooth="yes"/>
      <point x="482.69444444444446" y="655.0277777777778" type="line" smooth="yes"/>
      <point x="505.47222222222223" y="647.5555555555555"/>
      <point x="511.4166666666667" y="635.25"/>
      <point x="512.4166666666666" y="617.9444444444445" type="curve" smooth="yes"/>
    </contour>
  </outline>
</glyph>
<glyph name="V" format="2">
  <advance width="635.6111111111111"/>
  <unicode hex="0056"/>
  <outline>
    <contour>
      <point x="432.1666666666667" y="686.4444444444445" type="curve" smooth="yes"/>
      <point x="432.1666666666667" y="678.7222222222222"/>
      <point x="438.94444444444446" y="672.4166666666666"/>
      <point x="449.6111111111111" y="667.5833333333334" type="curve" smooth="yes"/>
      <point x="498.77777777777777" y="647.2222222222222" type="line" smooth="yes"/>
      <point x="515.4166666666666" y="640.2222222222222"/>
      <point x="522.0" y="614.1666666666666"/>
      <point x="510.47222222222223" y="581.9444444444445" type="curve" smooth="yes"/>
      <point x="319.0833333333333" y="58.888888888888886" type="line"/>
      <point x="357.19444444444446" y="73.72222222222223" type="line"/>
      <point x="169.0" y="604.4166666666666" type="line" smooth="yes"/>
      <point x="158.05555555555554" y="635.8888888888889"/>
      <point x="171.47222222222223" y="654.25"/>
      <point x="196.47222222222223" y="661.3055555555555" type="curve" smooth="yes"/>
      <point x="227.91666666666666" y="670.0" type="line" smooth="yes"/>
      <point x="237.63888888888889" y="672.4166666666666"/>
      <point x="243.0" y="676.7777777777778"/>
      <point x="243.0" y="686.4444444444445" type="curve" smooth="yes"/>
      <point x="243.0" y="695.1666666666666"/>
      <point x="237.16666666666666" y="700.0"/>
      <point x="227.44444444444446" y="700.0" type="curve" smooth="yes"/>
      <point x="20.444444444444443" y="700.0" type="line" smooth="yes"/>
      <point x="8.305555555555555" y="700.0"/>
      <point x="0.0" y="695.1111111111111"/>
      <point x="0.0" y="686.8611111111111" type="curve" smooth="yes"/>
      <point x="0.0" y="679.6111111111111"/>
      <point x="4.361111111111111" y="675.1944444444445"/>
      <point x="16.555555555555557" y="669.4722222222222" type="curve" smooth="yes"/>
      <point x="36.548264297424836" y="662.9066116047031"/>
      <point x="54.11482462006095" y="647.0952070983545"/>
      <point x="68.19444444444444" y="609.4722222222222" type="curve" smooth="yes"/>
      <point x="261.1388888888889" y="87.16666666666667" type="line" smooth="yes"/>
      <point x="264.5" y="78.02777777777777"/>
      <point x="266.9166666666667" y="69.72222222222223"/>
      <point x="266.9166666666667" y="57.416666666666664" type="curve" smooth="yes"/>
      <point x="266.9166666666667" y="27.444444444444443" type="line" smooth="yes"/>
      <point x="266.9166666666667" y="11.777777777777779"/>
      <point x="276.69444444444446" y="0.0"/>
      <point x="289.3611111111111" y="0.0" type="curve" smooth="yes"/>
      <point x="343.47222222222223" y="0.0" type="line" smooth="yes"/>
      <point x="358.1388888888889" y="0.0"/>
      <point x="367.9166666666667" y="9.777777777777779"/>
      <point x="367.9166666666667" y="25.444444444444443" type="curve" smooth="yes"/>
      <point x="367.9166666666667" y="56.0" type="line" smooth="yes"/>
      <point x="367.9166666666667" y="71.66666666666667"/>
      <point x="369.8611111111111" y="83.33333333333333"/>
      <point x="374.22222222222223" y="94.52777777777777" type="curve" smooth="yes"/>
      <point x="554.8888888888889" y="579.7222222222222" type="line" smooth="yes"/>
      <point x="575.3611111111111" y="634.9444444444445"/>
      <point x="591.0" y="653.9166666666666"/>
      <point x="612.1111111111111" y="663.2777777777778" type="curve" smooth="yes"/>
      <point x="626.8333333333334" y="671.4722222222222"/>
      <point x="633.5555555555555" y="676.8333333333334"/>
      <point x="633.5555555555555" y="685.9722222222222" type="curve" smooth="yes"/>
      <point x="633.5555555555555" y="695.6388888888889"/>
      <point x="626.7222222222222" y="700.0"/>
      <point x="611.6388888888889" y="700.0" type="curve" smooth="yes"/>
      <point x="450.6111111111111" y="700.0" type="line" smooth="yes"/>
      <point x="438.47222222222223" y="700.0"/>
      <point x="432.1666666666667" y="694.6944444444445"/>
    </contour>
  </outline>
</glyph>
<glyph name="W" format="2">
  <advance width="981.6944444444445"/>
  <unicode hex="0057"/>
  <outline>
    <contour>
      <point x="485.72222222222223" y="533.7222222222222" type="line"/>
      <point x="312.69444444444446" y="83.88888888888889" type="line"/>
      <point x="341.44444444444446" y="88.13888888888889" type="line"/>
      <point x="168.52777777777777" y="605.4722222222222" type="line" smooth="yes"/>
      <point x="158.58333333333334" y="635.25"/>
      <point x="170.52777777777777" y="656.6666666666666"/>
      <point x="196.58333333333334" y="663.25" type="curve" smooth="yes"/>
      <point x="224.5" y="670.8888888888889" type="line" smooth="yes"/>
      <point x="234.80555555555554" y="673.3611111111111"/>
      <point x="240.63888888888889" y="677.7222222222222"/>
      <point x="240.63888888888889" y="686.9722222222222" type="curve" smooth="yes"/>
      <point x="240.63888888888889" y="695.1666666666666"/>
      <point x="234.33333333333334" y="700.0"/>
      <point x="225.61111111111111" y="700.0" type="curve" smooth="yes"/>
      <point x="18.97222222222222" y="700.0" type="line" smooth="yes"/>
      <point x="7.305555555555555" y="700.0"/>
      <point x="0.0" y="695.5069444444445"/>
      <point x="0.0" y="687.3888888888889" type="curve" smooth="yes"/>
      <point x="0.0" y="678.0520833333334"/>
      <point x="3.4166666666666665" y="671.4166666666666"/>
      <point x="21.38888888888889" y="665.1666666666666" type="curve" smooth="yes"/>
      <point x="43.90343941655991" y="658.3869687150744"/>
      <point x="58.55555555555556" y="642.0"/>
      <point x="68.5" y="613.6944444444445" type="curve" smooth="yes"/>
      <point x="243.22222222222223" y="115.0" type="line" smooth="yes"/>
      <point x="249.83823622220933" y="96.7645510131491"/>
      <point x="254.63888888888889" y="80.27777777777777"/>
      <point x="254.63888888888889" y="59.27777777777778" type="curve" smooth="yes"/>
      <point x="254.63888888888889" y="27.444444444444443" type="line" smooth="yes"/>
      <point x="254.63888888888889" y="10.645833333333332"/>
      <point x="266.4166666666667" y="0.0"/>
      <point x="280.1388888888889" y="0.0" type="curve" smooth="yes"/>
      <point x="332.1388888888889" y="0.0" type="line" smooth="yes"/>
      <point x="347.36574074074076" y="0.0"/>
      <point x="356.5833333333333" y="10.777777777777779"/>
      <point x="356.5833333333333" y="25.02777777777778" type="curve" smooth="yes"/>
      <point x="356.5833333333333" y="63.083333333333336" type="line" smooth="yes"/>
      <point x="356.5833333333333" y="82.86111111111111"/>
      <point x="360.14779620009693" y="101.14464791452116"/>
      <point x="367.94444444444446" y="121.36111111111111" type="curve" smooth="yes"/>
      <point x="508.47222222222223" y="483.0" type="line"/>
    </contour>
    <contour>
      <point x="780.6666666666666" y="685.5555555555555" type="curve" smooth="yes"/>
      <point x="780.6666666666666" y="676.5694444444445"/>
      <point x="787.1533452383799" y="670.7165235614071"/>
      <point x="798.2222222222222" y="666.1666666666666" type="curve" smooth="yes"/>
      <point x="846.6944444444445" y="646.8055555555555" type="line" smooth="yes"/>
      <point x="868.3888888888889" y="638.75"/>
      <point x="870.9722222222222" y="612.5833333333334"/>
      <point x="858.9166666666666" y="577.3055555555555" type="curve" smooth="yes"/>
      <point x="679.6111111111111" y="61.0" type="line"/>
      <point x="713.6111111111111" y="79.0" type="line"/>
      <point x="545.5" y="602.3055555555555" type="line" smooth="yes"/>
      <point x="535.0277777777778" y="633.7777777777778"/>
      <point x="546.5" y="657.6111111111111"/>
      <point x="566.7777777777778" y="662.7222222222222" type="curve" smooth="yes"/>
      <point x="596.8055555555555" y="670.8888888888889" type="line" smooth="yes"/>
      <point x="606.5833333333334" y="673.3611111111111"/>
      <point x="611.9444444444445" y="677.1944444444445"/>
      <point x="611.9444444444445" y="686.4444444444445" type="curve" smooth="yes"/>
      <point x="611.9444444444445" y="694.6388888888889"/>
      <point x="605.5833333333334" y="700.0"/>
      <point x="596.3333333333334" y="700.0" type="curve" smooth="yes"/>
      <point x="399.3611111111111" y="700.0" type="line" smooth="yes"/>
      <point x="387.1666666666667" y="700.0"/>
      <point x="379.3333333333333" y="695.6388888888889"/>
      <point x="379.3333333333333" y="686.8611111111111" type="curve" smooth="yes"/>
      <point x="379.3333333333333" y="679.6111111111111"/>
      <point x="383.1666666666667" y="675.1944444444445"/>
      <point x="394.8888888888889" y="669.4722222222222" type="curve" smooth="yes"/>
      <point x="414.1666666666667" y="663.1111111111111"/>
      <point x="434.52777777777777" y="646.9444444444445"/>
      <point x="445.94444444444446" y="613.6944444444445" type="curve" smooth="yes"/>
      <point x="615.0833333333334" y="107.47222222222223" type="line" smooth="yes"/>
      <point x="621.5" y="89.22222222222223"/>
      <point x="624.9166666666666" y="74.97222222222223"/>
      <point x="624.9166666666666" y="54.77777777777778" type="curve" smooth="yes"/>
      <point x="624.9166666666666" y="26.444444444444443" type="line" smooth="yes"/>
      <point x="624.9166666666666" y="12.25"/>
      <point x="635.1666666666666" y="0.0"/>
      <point x="648.3611111111111" y="0.0" type="curve" smooth="yes"/>
      <point x="703.4166666666666" y="0.0" type="line" smooth="yes"/>
      <point x="718.0833333333334" y="0.0"/>
      <point x="726.8611111111111" y="11.194444444444445"/>
      <point x="726.8611111111111" y="24.97222222222222" type="curve" smooth="yes"/>
      <point x="726.8611111111111" y="51.77777777777778" type="line" smooth="yes"/>
      <point x="726.8611111111111" y="76.36111111111111"/>
      <point x="734.0833333333334" y="98.36111111111111"/>
      <point x="743.6111111111111" y="126.0" type="curve" smooth="yes"/>
      <point x="904.4444444444445" y="581.3055555555555" type="line" smooth="yes"/>
      <point x="925.4444444444445" y="639.9444444444445"/>
      <point x="940.0277777777778" y="655.8611111111111"/>
      <point x="965.0277777777778" y="667.5277777777778" type="curve" smooth="yes"/>
      <point x="976.75" y="674.25"/>
      <point x="981.2222222222222" y="677.7222222222222"/>
      <point x="981.2222222222222" y="687.3888888888889" type="curve" smooth="yes"/>
      <point x="981.2222222222222" y="696.1111111111111"/>
      <point x="975.8055555555555" y="700.0"/>
      <point x="964.5555555555555" y="700.0" type="curve" smooth="yes"/>
      <point x="801.8888888888889" y="700.0" type="line" smooth="yes"/>
      <point x="788.4944444444445" y="700.0"/>
      <point x="780.6666666666666" y="694.3981481481482"/>
    </contour>
  </outline>
</glyph>
<glyph name="X" format="2">
  <advance width="667.3888888888889"/>
  <unicode hex="0058"/>
  <outline>
    <contour>
      <point x="596.1388888888889" y="73.22222222222223" type="curve" smooth="yes"/>
      <point x="195.13888888888889" y="620.7777777777778" type="line" smooth="yes"/>
      <point x="176.83333333333334" y="645.5555555555555"/>
      <point x="192.97222222222223" y="658.25"/>
      <point x="217.13888888888889" y="663.7777777777778" type="curve" smooth="yes"/>
      <point x="245.0" y="670.3611111111111" type="line" smooth="yes"/>
      <point x="255.77777777777777" y="673.3055555555555"/>
      <point x="261.1388888888889" y="677.1944444444445"/>
      <point x="261.1388888888889" y="686.4444444444445" type="curve" smooth="yes"/>
      <point x="261.1388888888889" y="695.1666666666666"/>
      <point x="254.77777777777777" y="700.0"/>
      <point x="244.52777777777777" y="700.0" type="curve" smooth="yes"/>
      <point x="26.38888888888889" y="700.0" type="line" smooth="yes"/>
      <point x="15.25" y="700.0"/>
      <point x="7.0" y="695.6388888888889"/>
      <point x="7.0" y="687.3888888888889" type="curve" smooth="yes"/>
      <point x="7.0" y="679.6111111111111"/>
      <point x="12.305555555555555" y="674.7222222222222"/>
      <point x="29.86111111111111" y="668.4166666666666" type="curve" smooth="yes"/>
      <point x="54.27777777777778" y="659.9444444444445"/>
      <point x="63.083333333333336" y="651.8888888888889"/>
      <point x="84.08333333333333" y="623.7777777777778" type="curve" smooth="yes"/>
      <point x="489.75" y="78.19444444444444" type="line" smooth="yes"/>
      <point x="508.1288626955665" y="53.597748043695674"/>
      <point x="488.2272727272727" y="32.111111111111114"/>
      <point x="447.0" y="32.111111111111114" type="curve" smooth="yes"/>
      <point x="433.2673611111111" y="32.111111111111114"/>
      <point x="425.5" y="25.7"/>
      <point x="425.5" y="15.61111111111111" type="curve" smooth="yes"/>
      <point x="425.5" y="6.361111111111111"/>
      <point x="433.75" y="0.0"/>
      <point x="445.47222222222223" y="0.0" type="curve" smooth="yes"/>
      <point x="646.8888888888889" y="0.0" type="line" smooth="yes"/>
      <point x="658.0277777777778" y="0.0"/>
      <point x="665.75" y="5.833333333333333"/>
      <point x="665.75" y="14.555555555555555" type="curve" smooth="yes"/>
      <point x="665.75" y="24.75"/>
      <point x="658.9722222222222" y="29.055555555555554"/>
      <point x="646.8888888888889" y="30.52777777777778" type="curve" smooth="yes"/>
      <point x="628.4722222222222" y="32.58333333333333"/>
      <point x="614.6666666666666" y="48.111111111111114"/>
    </contour>
    <contour>
      <point x="352.9166666666667" y="333.1666666666667" type="line"/>
      <point x="528.7777777777778" y="584.4722222222222" type="line" smooth="yes"/>
      <point x="563.7777777777778" y="634.1111111111111"/>
      <point x="608.6944444444445" y="659.2222222222222"/>
      <point x="628.3333333333334" y="665.1666666666666" type="curve" smooth="yes"/>
      <point x="649.0833333333334" y="672.3611111111111"/>
      <point x="657.75" y="676.7777777777778"/>
      <point x="657.75" y="687.3888888888889" type="curve" smooth="yes"/>
      <point x="657.75" y="696.1111111111111"/>
      <point x="652.3333333333334" y="700.0"/>
      <point x="639.5555555555555" y="700.0" type="curve" smooth="yes"/>
      <point x="441.47222222222223" y="700.0" type="line" smooth="yes"/>
      <point x="428.80555555555554" y="700.0"/>
      <point x="421.97222222222223" y="695.1666666666666"/>
      <point x="421.97222222222223" y="686.4444444444445" type="curve" smooth="yes"/>
      <point x="421.97222222222223" y="676.7222222222222"/>
      <point x="429.75" y="671.3611111111111"/>
      <point x="445.30555555555554" y="667.4722222222222" type="curve" smooth="yes"/>
      <point x="478.75" y="659.3055555555555" type="line" smooth="yes"/>
      <point x="500.80555555555554" y="653.7777777777778"/>
      <point x="506.55555555555554" y="621.9444444444445"/>
      <point x="491.97222222222223" y="599.7777777777778" type="curve" smooth="yes"/>
      <point x="328.4166666666667" y="358.6666666666667" type="line"/>
    </contour>
    <contour>
      <point x="320.1111111111111" y="369.4166666666667" type="line"/>
      <point x="136.36111111111111" y="118.69444444444444" type="line" smooth="yes"/>
      <point x="102.5" y="72.02777777777777"/>
      <point x="65.27777777777777" y="43.611111111111114"/>
      <point x="30.36111111111111" y="36.19444444444444" type="curve" smooth="yes"/>
      <point x="8.666666666666666" y="30.0"/>
      <point x="0.0" y="21.55222222222222"/>
      <point x="0.0" y="13.61111111111111" type="curve" smooth="yes"/>
      <point x="0.0" y="4.361111111111111"/>
      <point x="5.416666666666666" y="0.4722222222222222"/>
      <point x="17.666666666666664" y="0.4722222222222222" type="curve" smooth="yes"/>
      <point x="219.44444444444446" y="0.4722222222222222" type="line" smooth="yes"/>
      <point x="233.60344827586206" y="0.4722222222222222"/>
      <point x="241.05555555555554" y="5.833333333333333"/>
      <point x="241.05555555555554" y="14.61111111111111" type="curve" smooth="yes"/>
      <point x="241.05555555555554" y="21.586805555555557"/>
      <point x="235.66196434767144" y="26.228123452301762"/>
      <point x="217.25" y="34.0" type="curve" smooth="yes"/>
      <point x="184.44444444444446" y="46.52777777777778" type="line" smooth="yes"/>
      <point x="160.22222222222223" y="55.52777777777778"/>
      <point x="155.11111111111111" y="78.22222222222223"/>
      <point x="173.16666666666666" y="103.86111111111111" type="curve" smooth="yes"/>
      <point x="344.1388888888889" y="343.3888888888889" type="line"/>
    </contour>
  </outline>
</glyph>
<glyph name="bracketleft" format="2">
  <advance width="348.0"/>
  <unicode hex="005B"/>
  <outline>
    <contour>
      <point x="197.0" y="685.0" type="line" smooth="yes"/>
      <point x="197.0" y="704.0"/>
      <point x="212.0" y="719.0"/>
      <point x="230.0" y="719.0" type="curve" smooth="yes"/>
      <point x="310.0" y="719.0" type="line" smooth="yes"/>
      <point x="327.0" y="719.0"/>
      <point x="333.0" y="724.0"/>
      <point x="333.0" y="736.0" type="curve" smooth="yes"/>
      <point x="333.0" y="746.0"/>
      <point x="327.0" y="756.0"/>
      <point x="312.0" y="756.0" type="curve" smooth="yes"/>
      <point x="160.0" y="756.0" type="line" smooth="yes"/>
      <point x="137.0" y="756.0"/>
      <point x="120.0" y="734.0"/>
      <point x="120.0" y="707.0" type="curve" smooth="yes"/>
      <point x="120.0" y="-128.0" type="line" smooth="yes"/>
      <point x="120.0" y="-155.0"/>
      <point x="137.0" y="-177.0"/>
      <point x="160.0" y="-177.0" type="curve" smooth="yes"/>
      <point x="312.0" y="-177.0" type="line" smooth="yes"/>
      <point x="327.0" y="-177.0"/>
      <point x="333.0" y="-167.0"/>
      <point x="333.0" y="-157.0" type="curve" smooth="yes"/>
      <point x="333.0" y="-145.0"/>
      <point x="327.0" y="-140.0"/>
      <point x="310.0" y="-140.0" type="curve" smooth="yes"/>
      <point x="230.0" y="-140.0" type="line" smooth="yes"/>
      <point x="212.0" y="-140.0"/>
      <point x="197.0" y="-125.0"/>
      <point x="197.0" y="-106.0" type="curve" smooth="yes"/>
    </contour>
  </outline>
</glyph>
<glyph name="backslash" format="2">
  <advance width="420.0"/>
  <unicode hex="005C"/>
  <outline>
    <contour>
      <point x="52.0" y="702.0" type="curve" smooth="yes"/>
      <point x="47.0" y="714.0"/>
      <point x="44.0" y="724.0"/>
      <point x="44.0" y="732.0" type="curve" smooth="yes"/>
      <point x="44.0" y="753.0"/>
      <point x="59.0" y="767.0"/>
      <point x="77.0" y="767.0" type="curve" smooth="yes"/>
      <point x="97.0" y="767.0"/>
      <point x="110.0" y="750.0"/>
      <point x="114.0" y="732.0" type="curve" smooth="yes"/>
      <point x="141.0" y="620.0"/>
      <point x="208.0" y="404.0"/>
      <point x="228.0" y="343.0" type="curve" smooth="yes"/>
      <point x="246.0" y="286.0"/>
      <point x="326.0" y="66.0"/>
      <point x="368.0" y="-38.0" type="curve" smooth="yes"/>
      <point x="376.0" y="-56.0"/>
      <point x="377.0" y="-67.0"/>
      <point x="377.0" y="-77.0" type="curve" smooth="yes"/>
      <point x="377.0" y="-91.0"/>
      <point x="364.0" y="-106.0"/>
      <point x="347.0" y="-106.0" type="curve" smooth="yes"/>
      <point x="327.0" y="-106.0"/>
      <point x="309.0" y="-93.0"/>
      <point x="301.0" y="-62.0" type="curve" smooth="yes"/>
      <point x="277.0" y="45.0"/>
      <point x="218.0" y="249.0"/>
      <point x="190.0" y="329.0" type="curve" smooth="yes"/>
      <point x="167.0" y="402.0"/>
      <point x="96.0" y="603.0"/>
    </contour>
  </outline>
</glyph>
<glyph name="a" format="2">
  <advance width="452.47222222222223"/>
  <unicode hex="0061"/>
  <anchor x="245.75" y="493.47222222222223" name="center"/>
  <outline>
    <contour>
      <point x="53.138888888888886" y="345.02777777777777" type="curve" smooth="yes"/>
      <point x="53.138888888888886" y="315.8333333333333"/>
      <point x="70.97222222222223" y="298.47222222222223"/>
      <point x="96.22222222222223" y="298.47222222222223" type="curve" smooth="yes"/>
      <point x="125.05555555555556" y="298.47222222222223"/>
      <point x="147.94444444444446" y="318.30555555555554"/>
      <point x="147.94444444444446" y="348.6111111111111" type="curve" smooth="yes"/>
      <point x="147.94444444444446" y="372.80555555555554" type="line" smooth="yes"/>
      <point x="147.94444444444446" y="410.2045855379189"/>
      <point x="173.52777777777777" y="430.02777777777777"/>
      <point x="220.94444444444446" y="430.02777777777777" type="curve" smooth="yes"/>
      <point x="276.94444444444446" y="430.02777777777777"/>
      <point x="308.19444444444446" y="392.6111111111111"/>
      <point x="308.19444444444446" y="323.19444444444446" type="curve" smooth="yes"/>
      <point x="308.19444444444446" y="68.58333333333333" type="line" smooth="yes"/>
      <point x="308.19444444444446" y="12.11111111111111"/>
      <point x="341.44444444444446" y="-12.36111111111111"/>
      <point x="383.44444444444446" y="-12.36111111111111" type="curve" smooth="yes"/>
      <point x="417.75" y="-12.36111111111111"/>
      <point x="445.0" y="16.694444444444443"/>
      <point x="445.0" y="38.05555555555556" type="curve" smooth="yes"/>
      <point x="445.0" y="41.888888888888886"/>
      <point x="443.05555555555554" y="45.30555555555556"/>
      <point x="439.1666666666667" y="45.30555555555556" type="curve" smooth="yes"/>
      <point x="432.22222222222223" y="45.30555555555556"/>
      <point x="427.22222222222223" y="35.666666666666664"/>
      <point x="413.1666666666667" y="35.666666666666664" type="curve" smooth="yes"/>
      <point x="398.6388888888889" y="35.666666666666664"/>
      <point x="387.22222222222223" y="48.19444444444444"/>
      <point x="387.22222222222223" y="72.30555555555556" type="curve" smooth="yes"/>
      <point x="387.22222222222223" y="336.9166666666667" type="line" smooth="yes"/>
      <point x="387.22222222222223" y="415.1111111111111"/>
      <point x="337.9166666666667" y="458.4166666666667"/>
      <point x="248.61111111111111" y="458.4166666666667" type="curve" smooth="yes"/>
      <point x="123.05555555555556" y="458.4166666666667"/>
      <point x="53.138888888888886" y="397.12345679012344"/>
    </contour>
    <contour>
      <point x="333.72222222222223" y="177.19444444444446" type="curve"/>
      <point x="340.19444444444446" y="198.11111111111111" type="line"/>
      <point x="305.94444444444446" y="211.22222222222223"/>
      <point x="272.1111111111111" y="221.22222222222223"/>
      <point x="217.88888888888889" y="221.22222222222223" type="curve" smooth="yes"/>
      <point x="98.08333333333333" y="221.22222222222223"/>
      <point x="35.19444444444444" y="164.44444444444446"/>
      <point x="35.19444444444444" y="99.19444444444444" type="curve" smooth="yes"/>
      <point x="35.19444444444444" y="32.94444444444444"/>
      <point x="89.5" y="-12.36111111111111"/>
      <point x="165.75" y="-12.36111111111111" type="curve" smooth="yes"/>
      <point x="235.0" y="-12.36111111111111"/>
      <point x="295.72222222222223" y="19.11111111111111"/>
      <point x="336.6111111111111" y="70.47222222222223" type="curve"/>
      <point x="325.72222222222223" y="89.38888888888889" type="line"/>
      <point x="297.30555555555554" y="52.97222222222222"/>
      <point x="255.58333333333334" y="34.97222222222222"/>
      <point x="215.27777777777777" y="34.97222222222222" type="curve" smooth="yes"/>
      <point x="163.69444444444446" y="34.97222222222222"/>
      <point x="127.69444444444444" y="67.97222222222223"/>
      <point x="127.69444444444444" y="118.13888888888889" type="curve" smooth="yes"/>
      <point x="127.69444444444444" y="161.83333333333334"/>
      <point x="161.86111111111111" y="196.83333333333334"/>
      <point x="225.33333333333334" y="196.83333333333334" type="curve" smooth="yes"/>
      <point x="267.1111111111111" y="196.83333333333334"/>
      <point x="302.0" y="188.83333333333334"/>
    </contour>
  </outline>
</glyph>
<glyph name="b" format="2">
  <advance width="513.0277777777778"/>
  <unicode hex="0062"/>
  <outline>
    <contour>
      <point x="7.166666666666667" y="635.1111111111111" type="curve" smooth="yes"/>
      <point x="36.166666666666664" y="635.1111111111111" type="line" smooth="yes"/>
      <point x="50.77777777777778" y="635.1111111111111"/>
      <point x="61.02777777777778" y="628.3333333333334"/>
      <point x="61.02777777777778" y="612.3055555555555" type="curve" smooth="yes"/>
      <point x="61.02777777777778" y="10.833333333333332" type="line" smooth="yes"/>
      <point x="61.02777777777778" y="0.2550505050505052"/>
      <point x="65.99305555555556" y="-5.25"/>
      <point x="73.63888888888889" y="-5.25" type="curve" smooth="yes"/>
      <point x="81.35457516339869" y="-5.25"/>
      <point x="86.25" y="-3.3055555555555554"/>
      <point x="94.55555555555556" y="2.5833333333333335" type="curve" smooth="yes"/>
      <point x="142.0" y="34.44444444444444" type="line" smooth="yes"/>
      <point x="142.0" y="694.5" type="line" smooth="yes"/>
      <point x="142.0" y="706.2222222222222"/>
      <point x="136.58333333333334" y="715.0"/>
      <point x="127.22222222222223" y="715.0" type="curve" smooth="yes"/>
      <point x="114.61111111111111" y="715.0"/>
      <point x="105.94444444444444" y="710.1666666666666"/>
      <point x="90.86111111111111" y="702.4444444444445" type="curve" smooth="yes"/>
      <point x="8.027777777777777" y="662.2777777777778" type="line" smooth="yes"/>
      <point x="-7.472222222222222" y="654.0833333333334"/>
      <point x="-8.833333333333332" y="647.7222222222222"/>
      <point x="-8.833333333333332" y="642.8333333333334" type="curve" smooth="yes"/>
      <point x="-8.833333333333332" y="638.0"/>
      <point x="-3.833333333333333" y="635.1111111111111"/>
    </contour>
    <contour>
      <point x="113.05555555555556" y="337.97222222222223" type="line"/>
      <point x="155.30555555555554" y="382.5"/>
      <point x="198.94444444444446" y="405.3611111111111"/>
      <point x="246.11111111111111" y="405.3611111111111" type="curve" smooth="yes"/>
      <point x="338.1388888888889" y="405.3611111111111"/>
      <point x="403.3333333333333" y="327.19444444444446"/>
      <point x="403.3333333333333" y="207.5" type="curve" smooth="yes"/>
      <point x="403.3333333333333" y="93.91666666666667"/>
      <point x="338.9166666666667" y="23.916666666666664"/>
      <point x="253.55555555555554" y="23.916666666666664" type="curve" smooth="yes"/>
      <point x="193.77777777777777" y="23.916666666666664"/>
      <point x="150.47222222222223" y="46.388888888888886"/>
      <point x="120.52777777777777" y="92.75" type="curve"/>
      <point x="97.66666666666667" y="73.30555555555556" type="line"/>
      <point x="138.97222222222223" y="15.055555555555555"/>
      <point x="189.22222222222223" y="-11.36111111111111"/>
      <point x="259.8333333333333" y="-11.36111111111111" type="curve" smooth="yes"/>
      <point x="385.27777777777777" y="-11.36111111111111"/>
      <point x="487.8333333333333" y="94.83333333333333"/>
      <point x="487.8333333333333" y="240.91666666666666" type="curve" smooth="yes"/>
      <point x="487.8333333333333" y="369.1111111111111"/>
      <point x="406.1111111111111" y="458.8888888888889"/>
      <point x="303.44444444444446" y="458.8888888888889" type="curve" smooth="yes"/>
      <point x="220.30555555555554" y="458.8888888888889"/>
      <point x="163.41666666666666" y="424.0"/>
      <point x="99.86111111111111" y="350.1666666666667" type="curve"/>
    </contour>
  </outline>
</glyph>
<glyph name="c" format="2">
  <advance width="417.3611111111111"/>
  <unicode hex="0063"/>
  <anchor x="263.1111111111111" y="504.30555555555554" name="center"/>
  <outline>
    <contour>
      <point x="400.69444444444446" y="360.3888888888889" type="curve" smooth="yes"/>
      <point x="400.69444444444446" y="416.22222222222223"/>
      <point x="342.1388888888889" y="458.4166666666667"/>
      <point x="256.97222222222223" y="458.4166666666667" type="curve" smooth="yes"/>
      <point x="124.38888888888889" y="458.4166666666667"/>
      <point x="26.13888888888889" y="353.5833333333333"/>
      <point x="26.13888888888889" y="208.13888888888889" type="curve" smooth="yes"/>
      <point x="26.13888888888889" y="78.19444444444444"/>
      <point x="109.63888888888889" y="-12.36111111111111"/>
      <point x="229.36111111111111" y="-12.36111111111111" type="curve" smooth="yes"/>
      <point x="321.69444444444446" y="-12.36111111111111"/>
      <point x="388.72222222222223" y="46.55555555555556"/>
      <point x="396.6388888888889" y="107.69444444444444" type="curve" smooth="yes"/>
      <point x="397.1666666666667" y="115.79629629629629"/>
      <point x="393.75" y="120.11111111111111"/>
      <point x="388.3888888888889" y="120.11111111111111" type="curve" smooth="yes"/>
      <point x="383.5" y="120.11111111111111"/>
      <point x="378.5779064491955" y="116.5632482871474"/>
      <point x="373.0" y="109.86111111111111" type="curve" smooth="yes"/>
      <point x="350.93278169476025" y="69.36060962149921"/>
      <point x="310.6029741863075" y="48.27777777777778"/>
      <point x="258.72222222222223" y="48.27777777777778" type="curve" smooth="yes"/>
      <point x="172.93402777777777" y="48.27777777777778"/>
      <point x="104.33333333333333" y="121.58333333333333"/>
      <point x="104.33333333333333" y="246.11111111111111" type="curve" smooth="yes"/>
      <point x="104.33333333333333" y="351.72222222222223"/>
      <point x="160.1172839506173" y="425.30555555555554"/>
      <point x="231.16666666666666" y="425.30555555555554" type="curve" smooth="yes"/>
      <point x="277.68544600938964" y="425.30555555555554"/>
      <point x="304.0" y="404.30555555555554"/>
      <point x="304.0" y="374.75" type="curve" smooth="yes"/>
      <point x="304.0" y="360.3333333333333" type="line" smooth="yes"/>
      <point x="304.0" y="330.6111111111111"/>
      <point x="324.25" y="309.30555555555554"/>
      <point x="352.0833333333333" y="309.30555555555554" type="curve" smooth="yes"/>
      <point x="379.44444444444446" y="309.30555555555554"/>
      <point x="400.69444444444446" y="331.0833333333333"/>
    </contour>
  </outline>
</glyph>
<glyph name="h" format="2">
  <advance width="541.6666666666666"/>
  <unicode hex="0068"/>
  <outline>
    <contour>
      <point x="156.97222222222223" y="338.6666666666667" type="line" smooth="yes"/>
      <point x="143.30555555555554" y="357.1111111111111" type="line"/>
      <point x="171.55555555555554" y="384.4166666666667" type="line" smooth="yes"/>
      <point x="221.86111111111111" y="432.8333333333333"/>
      <point x="265.05555555555554" y="458.8888888888889"/>
      <point x="320.77777777777777" y="458.8888888888889" type="curve" smooth="yes"/>
      <point x="383.02777777777777" y="458.8888888888889"/>
      <point x="430.1666666666667" y="415.47222222222223"/>
      <point x="443.75" y="330.1666666666667" type="curve" smooth="yes"/>
      <point x="486.6111111111111" y="58.83333333333333" type="line" smooth="yes"/>
      <point x="488.0833333333333" y="47.52777777777778"/>
      <point x="496.44444444444446" y="39.22222222222222"/>
      <point x="508.3888888888889" y="33.22222222222222" type="curve" smooth="yes"/>
      <point x="527.5833333333334" y="23.805555555555557" type="line" smooth="yes"/>
      <point x="533.4722222222222" y="20.86111111111111"/>
      <point x="537.8888888888889" y="17.97222222222222"/>
      <point x="537.8888888888889" y="12.194444444444445" type="curve" smooth="yes"/>
      <point x="537.8888888888889" y="5.888888888888889"/>
      <point x="533.5277777777778" y="0.0"/>
      <point x="521.3333333333334" y="0.0" type="curve" smooth="yes"/>
      <point x="352.5833333333333" y="0.0" type="line" smooth="yes"/>
      <point x="341.9166666666667" y="0.0"/>
      <point x="333.6111111111111" y="5.361111111111111"/>
      <point x="333.6111111111111" y="13.61111111111111" type="curve" smooth="yes"/>
      <point x="333.6111111111111" y="20.916666666666664"/>
      <point x="340.02777777777777" y="25.333333333333332"/>
      <point x="348.9166666666667" y="27.805555555555557" type="curve" smooth="yes"/>
      <point x="378.69444444444446" y="34.75" type="line" smooth="yes"/>
      <point x="395.5833333333333" y="38.22222222222222"/>
      <point x="403.52777777777777" y="48.58333333333333"/>
      <point x="401.05555555555554" y="67.36111111111111" type="curve" smooth="yes"/>
      <point x="366.77777777777777" y="313.5" type="line" smooth="yes"/>
      <point x="358.25" y="377.44444444444446"/>
      <point x="325.8888888888889" y="407.0833333333333"/>
      <point x="277.4166666666667" y="407.0833333333333" type="curve" smooth="yes"/>
      <point x="241.0" y="407.0833333333333"/>
      <point x="211.16666666666666" y="390.5"/>
      <point x="178.22222222222223" y="358.97222222222223" type="curve" smooth="yes"/>
    </contour>
    <component base="l" xOffset="2.361111111111111"/>
  </outline>
</glyph>
<glyph name="k" format="2">
  <advance width="522.6944444444445"/>
  <unicode hex="006B"/>
  <outline>
    <contour>
      <point x="288.3888888888889" y="304.3333333333333" type="line"/>
      <point x="455.0" y="70.05555555555556" type="line" smooth="yes"/>
      <point x="473.8888888888889" y="42.638888888888886"/>
      <point x="490.25" y="31.63888888888889"/>
      <point x="511.1388888888889" y="27.694444444444443" type="curve" smooth="yes"/>
      <point x="520.5" y="25.22222222222222"/>
      <point x="526.3888888888889" y="22.333333333333332"/>
      <point x="526.3888888888889" y="13.555555555555555" type="curve" smooth="yes"/>
      <point x="526.3888888888889" y="5.305555555555555"/>
      <point x="521.0277777777778" y="0.0"/>
      <point x="505.8888888888889" y="0.0" type="curve" smooth="yes"/>
      <point x="338.80555555555554" y="0.0" type="line" smooth="yes"/>
      <point x="328.1388888888889" y="0.0"/>
      <point x="320.8888888888889" y="4.361111111111111"/>
      <point x="320.8888888888889" y="12.083333333333332" type="curve" smooth="yes"/>
      <point x="320.8888888888889" y="20.805555555555557"/>
      <point x="328.19444444444446" y="25.22222222222222"/>
      <point x="339.44444444444446" y="27.166666666666664" type="curve" smooth="yes"/>
      <point x="358.6111111111111" y="30.63888888888889"/>
      <point x="366.19444444444446" y="37.166666666666664"/>
      <point x="366.19444444444446" y="50.69444444444444" type="curve" smooth="yes"/>
      <point x="366.19444444444446" y="59.638888888888886"/>
      <point x="362.72222222222223" y="67.58333333333333"/>
      <point x="357.30555555555554" y="75.52777777777777" type="curve" smooth="yes"/>
      <point x="233.88888888888889" y="259.72222222222223" type="line"/>
    </contour>
    <contour>
      <point x="138.69444444444446" y="206.02777777777777" type="line"/>
      <point x="324.5" y="355.25" type="line" smooth="yes"/>
      <point x="350.02777777777777" y="375.77777777777777"/>
      <point x="356.97222222222223" y="387.30555555555554"/>
      <point x="356.97222222222223" y="398.72222222222223" type="curve" smooth="yes"/>
      <point x="356.97222222222223" y="409.25"/>
      <point x="351.97222222222223" y="414.77777777777777"/>
      <point x="329.5833333333333" y="419.77777777777777" type="curve" smooth="yes"/>
      <point x="318.80555555555554" y="422.19444444444446"/>
      <point x="313.44444444444446" y="427.1388888888889"/>
      <point x="313.44444444444446" y="434.9166666666667" type="curve" smooth="yes"/>
      <point x="313.44444444444446" y="444.1666666666667"/>
      <point x="320.75" y="448.05555555555554"/>
      <point x="333.47222222222223" y="448.05555555555554" type="curve" smooth="yes"/>
      <point x="478.5" y="447.0" type="line" smooth="yes"/>
      <point x="493.1111111111111" y="447.0"/>
      <point x="498.47222222222223" y="441.1111111111111"/>
      <point x="498.47222222222223" y="433.80555555555554" type="curve" smooth="yes"/>
      <point x="498.47222222222223" y="425.02777777777777"/>
      <point x="493.1111111111111" y="421.6111111111111"/>
      <point x="482.1666666666667" y="418.6666666666667" type="curve" smooth="yes"/>
      <point x="446.3333333333333" y="408.8333333333333"/>
      <point x="414.22222222222223" y="387.55555555555554"/>
      <point x="377.55555555555554" y="359.30555555555554" type="curve" smooth="yes"/>
      <point x="152.47222222222223" y="182.63888888888889" type="line"/>
    </contour>
    <component base="l"/>
  </outline>
</glyph>
<glyph name="l" format="2">
  <advance width="264.1111111111111"/>
  <unicode hex="006C"/>
  <outline>
    <contour>
      <point x="171.83333333333334" y="695.9722222222222" type="curve" smooth="yes"/>
      <point x="171.83333333333334" y="63.08333333333333" type="line" smooth="yes"/>
      <point x="171.83333333333334" y="46.111111111111114"/>
      <point x="181.55555555555554" y="35.80555555555556"/>
      <point x="195.27777777777777" y="33.33333333333333" type="curve" smooth="yes"/>
      <point x="221.47222222222223" y="26.63888888888889" type="line" smooth="yes"/>
      <point x="234.44444444444446" y="23.75"/>
      <point x="239.33333333333334" y="19.86111111111111"/>
      <point x="239.33333333333334" y="12.61111111111111" type="curve" smooth="yes"/>
      <point x="239.33333333333334" y="4.361111111111111"/>
      <point x="235.91666666666666" y="0.0"/>
      <point x="221.0" y="0.0" type="curve" smooth="yes"/>
      <point x="40.861111111111114" y="0.0" type="line" smooth="yes"/>
      <point x="32.5" y="0.0"/>
      <point x="24.72222222222222" y="4.361111111111111"/>
      <point x="24.72222222222222" y="13.083333333333332" type="curve" smooth="yes"/>
      <point x="24.72222222222222" y="20.86111111111111"/>
      <point x="30.5" y="25.22222222222222"/>
      <point x="39.27777777777778" y="27.166666666666664" type="curve" smooth="yes"/>
      <point x="70.88888888888889" y="34.33333333333333" type="line" smooth="yes"/>
      <point x="87.38888888888889" y="37.27777777777778"/>
      <point x="92.27777777777777" y="44.111111111111114"/>
      <point x="92.27777777777777" y="63.08333333333333" type="curve" smooth="yes"/>
      <point x="92.27777777777777" y="616.9166666666666" type="line" smooth="yes"/>
      <point x="92.27777777777777" y="632.9444444444445"/>
      <point x="82.55555555555556" y="640.3055555555555"/>
      <point x="67.52777777777777" y="640.3055555555555" type="curve" smooth="yes"/>
      <point x="33.44444444444444" y="640.3055555555555" type="line" smooth="yes"/>
      <point x="26.194444444444443" y="640.3055555555555"/>
      <point x="21.833333333333332" y="644.1388888888889"/>
      <point x="21.833333333333332" y="650.0277777777778" type="curve" smooth="yes"/>
      <point x="21.833333333333332" y="655.8055555555555"/>
      <point x="26.61111111111111" y="662.0555555555555"/>
      <point x="35.80555555555556" y="665.9444444444445" type="curve" smooth="yes"/>
      <point x="127.88888888888889" y="706.75" type="line" smooth="yes"/>
      <point x="139.61111111111111" y="711.6388888888889"/>
      <point x="147.38888888888889" y="715.0"/>
      <point x="155.22222222222223" y="715.0" type="curve" smooth="yes"/>
      <point x="165.47222222222223" y="715.0"/>
      <point x="171.83333333333334" y="707.6388888888889"/>
    </contour>
  </outline>
</glyph>
<glyph name="m" format="2">
  <advance width="839.1944444444445"/>
  <unicode hex="006D"/>
  <outline>
    <contour>
      <point x="72.44444444444444" y="34.33333333333333" type="curve" smooth="yes"/>
      <point x="41.888888888888886" y="27.166666666666664" type="line" smooth="yes"/>
      <point x="31.63888888888889" y="24.694444444444443"/>
      <point x="26.805555555555557" y="21.333333333333332"/>
      <point x="26.805555555555557" y="13.555555555555555" type="curve" smooth="yes"/>
      <point x="26.805555555555557" y="4.833333333333333"/>
      <point x="33.111111111111114" y="0.0"/>
      <point x="43.30555555555556" y="0.0" type="curve" smooth="yes"/>
      <point x="221.66666666666666" y="0.0" type="line" smooth="yes"/>
      <point x="233.22222222222223" y="0.0"/>
      <point x="239.0" y="4.361111111111111"/>
      <point x="239.0" y="12.555555555555555" type="curve" smooth="yes"/>
      <point x="239.0" y="21.333333333333332"/>
      <point x="233.16666666666666" y="24.694444444444443"/>
      <point x="220.5" y="27.63888888888889" type="curve" smooth="yes"/>
      <point x="194.94444444444446" y="33.80555555555556" type="line" smooth="yes"/>
      <point x="182.16666666666666" y="36.27777777777778"/>
      <point x="172.91666666666666" y="45.52777777777778"/>
      <point x="172.91666666666666" y="63.611111111111114" type="curve" smooth="yes"/>
      <point x="172.91666666666666" y="439.44444444444446" type="line" smooth="yes"/>
      <point x="172.91666666666666" y="451.1111111111111"/>
      <point x="166.55555555555554" y="458.8888888888889"/>
      <point x="156.83333333333334" y="458.8888888888889" type="curve" smooth="yes"/>
      <point x="148.0" y="458.8888888888889"/>
      <point x="139.69444444444446" y="456.47222222222223"/>
      <point x="126.97222222222223" y="449.6388888888889" type="curve" smooth="yes"/>
      <point x="39.58333333333333" y="406.6388888888889" type="line" smooth="yes"/>
      <point x="29.75" y="401.27777777777777"/>
      <point x="23.97222222222222" y="395.97222222222223"/>
      <point x="23.97222222222222" y="389.1388888888889" type="curve" smooth="yes"/>
      <point x="23.97222222222222" y="382.3611111111111"/>
      <point x="29.333333333333332" y="379.94444444444446"/>
      <point x="38.111111111111114" y="379.94444444444446" type="curve" smooth="yes"/>
      <point x="73.38888888888889" y="379.94444444444446" type="line" smooth="yes"/>
      <point x="83.69444444444444" y="379.94444444444446"/>
      <point x="93.88888888888889" y="372.6388888888889"/>
      <point x="93.88888888888889" y="355.02777777777777" type="curve" smooth="yes"/>
      <point x="93.88888888888889" y="63.611111111111114" type="line" smooth="yes"/>
      <point x="93.88888888888889" y="43.638888888888886"/>
      <point x="85.69444444444444" y="36.33333333333333"/>
    </contour>
    <contour>
      <point x="470.44444444444446" y="330.22222222222223" type="line" smooth="yes"/>
      <point x="470.44444444444446" y="406.52777777777777"/>
      <point x="409.72222222222223" y="458.8888888888889"/>
      <point x="335.52777777777777" y="458.8888888888889" type="curve" smooth="yes"/>
      <point x="268.1111111111111" y="458.8888888888889"/>
      <point x="208.75" y="424.8888888888889"/>
      <point x="161.44444444444446" y="368.6388888888889" type="curve"/>
      <point x="146.97222222222223" y="351.69444444444446" type="line"/>
      <point x="160.22222222222223" y="336.77777777777777" type="line"/>
      <point x="172.69444444444446" y="350.25" type="line" smooth="yes"/>
      <point x="209.05555555555554" y="389.6111111111111"/>
      <point x="252.52777777777777" y="407.44444444444446"/>
      <point x="289.94444444444446" y="407.44444444444446" type="curve" smooth="yes"/>
      <point x="347.75" y="407.44444444444446"/>
      <point x="391.8888888888889" y="371.5833333333333"/>
      <point x="391.8888888888889" y="289.3333333333333" type="curve" smooth="yes"/>
      <point x="391.8888888888889" y="65.13888888888889" type="line" smooth="yes"/>
      <point x="391.8888888888889" y="49.361111111111114"/>
      <point x="384.0" y="37.111111111111114"/>
      <point x="370.6388888888889" y="34.166666666666664" type="curve" smooth="yes"/>
      <point x="346.19444444444446" y="29.055555555555554" type="line" smooth="yes"/>
      <point x="334.52777777777777" y="26.63888888888889"/>
      <point x="327.75" y="22.27777777777778"/>
      <point x="327.75" y="14.5" type="curve" smooth="yes"/>
      <point x="327.75" y="4.833333333333333"/>
      <point x="334.52777777777777" y="0.0"/>
      <point x="343.25" y="0.0" type="curve" smooth="yes"/>
      <point x="521.3333333333334" y="0.0" type="line" smooth="yes"/>
      <point x="532.5277777777778" y="0.0"/>
      <point x="538.3611111111111" y="7.194444444444445"/>
      <point x="538.3611111111111" y="13.972222222222221" type="curve" smooth="yes"/>
      <point x="538.3611111111111" y="21.27777777777778"/>
      <point x="532.0555555555555" y="25.583333333333332"/>
      <point x="520.8611111111111" y="28.055555555555554" type="curve" smooth="yes"/>
      <point x="496.1111111111111" y="33.69444444444444" type="line" smooth="yes"/>
      <point x="480.3333333333333" y="37.166666666666664"/>
      <point x="470.44444444444446" y="49.83333333333333"/>
      <point x="470.44444444444446" y="68.44444444444444" type="curve" smooth="yes"/>
    </contour>
    <contour>
      <point x="453.97222222222223" y="338.8333333333333" type="line" smooth="yes"/>
      <point x="471.5833333333333" y="355.97222222222223" type="line" smooth="yes"/>
      <point x="508.94444444444446" y="392.3888888888889"/>
      <point x="542.0" y="405.9166666666667"/>
      <point x="576.4166666666666" y="405.9166666666667" type="curve" smooth="yes"/>
      <point x="621.7777777777778" y="405.9166666666667"/>
      <point x="652.1388888888889" y="378.97222222222223"/>
      <point x="661.6666666666666" y="315.0833333333333" type="curve" smooth="yes"/>
      <point x="697.5277777777778" y="76.72222222222223" type="line" smooth="yes"/>
      <point x="701.0" y="47.69444444444444"/>
      <point x="692.2777777777778" y="37.861111111111114"/>
      <point x="670.0833333333334" y="33.80555555555556" type="curve" smooth="yes"/>
      <point x="648.1666666666666" y="28.63888888888889" type="line" smooth="yes"/>
      <point x="638.3888888888889" y="26.63888888888889"/>
      <point x="630.6111111111111" y="23.166666666666664"/>
      <point x="630.6111111111111" y="14.027777777777777" type="curve" smooth="yes"/>
      <point x="630.6111111111111" y="4.833333333333333"/>
      <point x="638.3888888888889" y="0.0"/>
      <point x="649.0555555555555" y="0.0" type="curve" smooth="yes"/>
      <point x="815.9722222222222" y="0.0" type="line" smooth="yes"/>
      <point x="829.0" y="0.0"/>
      <point x="834.8888888888889" y="4.305555555555555"/>
      <point x="834.8888888888889" y="12.555555555555555" type="curve" smooth="yes"/>
      <point x="834.8888888888889" y="20.27777777777778"/>
      <point x="829.1666666666666" y="24.166666666666664"/>
      <point x="820.4444444444445" y="27.11111111111111" type="curve" smooth="yes"/>
      <point x="806.0555555555555" y="33.861111111111114" type="line" smooth="yes"/>
      <point x="793.3333333333334" y="37.861111111111114"/>
      <point x="785.5555555555555" y="47.166666666666664"/>
      <point x="782.5555555555555" y="67.05555555555556" type="curve" smooth="yes"/>
      <point x="741.2777777777778" y="331.75" type="line" smooth="yes"/>
      <point x="728.75" y="414.4166666666667"/>
      <point x="682.1388888888889" y="458.8888888888889"/>
      <point x="618.8333333333334" y="458.8888888888889" type="curve" smooth="yes"/>
      <point x="561.5277777777778" y="458.8888888888889"/>
      <point x="512.6388888888889" y="432.8333333333333"/>
      <point x="460.6388888888889" y="376.6666666666667" type="curve" smooth="yes"/>
      <point x="441.77777777777777" y="356.80555555555554" type="line"/>
    </contour>
  </outline>
</glyph>
<glyph name="q" format="2">
  <advance width="509.22222222222223"/>
  <unicode hex="0071"/>
  <outline>
    <contour>
      <point x="452.4166666666667" y="-168.52777777777777" type="curve" smooth="yes"/>
      <point x="452.4166666666667" y="442.1666666666667" type="line" smooth="yes"/>
      <point x="452.4166666666667" y="452.73555555555555"/>
      <point x="447.65204678362574" y="458.4166666666667"/>
      <point x="441.1666666666667" y="458.4166666666667" type="curve" smooth="yes"/>
      <point x="432.5512820512821" y="458.4166666666667"/>
      <point x="427.02777777777777" y="453.47222222222223"/>
      <point x="419.0833333333333" y="447.05555555555554" type="curve" smooth="yes"/>
      <point x="371.97222222222223" y="406.05555555555554" type="line" smooth="yes"/>
      <point x="371.97222222222223" y="-162.83333333333334" type="line" smooth="yes"/>
      <point x="371.97222222222223" y="-189.04928315412184"/>
      <point x="359.484025874626" y="-201.05678889831134"/>
      <point x="336.30555555555554" y="-204.86111111111111" type="curve" smooth="yes"/>
      <point x="296.75" y="-211.5" type="line" smooth="yes"/>
      <point x="286.5" y="-212.97222222222223"/>
      <point x="280.6666666666667" y="-217.05902777777777"/>
      <point x="280.6666666666667" y="-225.69444444444446" type="curve" smooth="yes"/>
      <point x="280.6666666666667" y="-233.41666666666666"/>
      <point x="286.17171717171715" y="-239.72222222222223"/>
      <point x="296.75" y="-239.72222222222223" type="curve" smooth="yes"/>
      <point x="485.4166666666667" y="-239.72222222222223" type="line" smooth="yes"/>
      <point x="500.5" y="-239.72222222222223"/>
      <point x="506.3333333333333" y="-234.08680555555554"/>
      <point x="505.8611111111111" y="-224.69444444444446" type="curve" smooth="yes"/>
      <point x="505.3888888888889" y="-215.44444444444446"/>
      <point x="498.55555555555554" y="-212.97222222222223"/>
      <point x="489.3611111111111" y="-209.55555555555554" type="curve" smooth="yes"/>
      <point x="473.6666666666667" y="-203.97222222222223" type="line" smooth="yes"/>
      <point x="460.4464077020575" y="-199.2258695042668"/>
      <point x="452.4166666666667" y="-185.4570707070707"/>
    </contour>
    <contour>
      <point x="397.8611111111111" y="101.11111111111111" type="line"/>
      <point x="351.55555555555554" y="57.75"/>
      <point x="303.77777777777777" y="42.916666666666664"/>
      <point x="260.0" y="42.916666666666664" type="curve" smooth="yes"/>
      <point x="168.0" y="42.916666666666664"/>
      <point x="109.22222222222223" y="116.25"/>
      <point x="109.22222222222223" y="238.55555555555554" type="curve" smooth="yes"/>
      <point x="109.22222222222223" y="353.1388888888889"/>
      <point x="181.94444444444446" y="426.02777777777777"/>
      <point x="267.6111111111111" y="426.02777777777777" type="curve" smooth="yes"/>
      <point x="329.25" y="426.02777777777777"/>
      <point x="362.19444444444446" y="404.55555555555554"/>
      <point x="393.72222222222223" y="353.97222222222223" type="curve"/>
      <point x="411.6388888888889" y="372.22222222222223" type="line"/>
      <point x="369.80555555555554" y="431.0"/>
      <point x="326.1388888888889" y="458.8888888888889"/>
      <point x="258.47222222222223" y="458.8888888888889" type="curve" smooth="yes"/>
      <point x="130.38888888888889" y="458.8888888888889"/>
      <point x="25.194444444444443" y="352.1666666666667"/>
      <point x="25.194444444444443" y="205.55555555555554" type="curve" smooth="yes"/>
      <point x="25.194444444444443" y="77.36111111111111"/>
      <point x="108.38888888888889" y="-11.88888888888889"/>
      <point x="211.94444444444446" y="-11.88888888888889" type="curve" smooth="yes"/>
      <point x="290.44444444444446" y="-11.88888888888889"/>
      <point x="345.8611111111111" y="18.72222222222222"/>
      <point x="411.05555555555554" y="87.86111111111111" type="curve"/>
    </contour>
  </outline>
</glyph>
<glyph name="r" format="2">
  <advance width="375.77777777777777"/>
  <unicode hex="0072"/>
  <outline>
    <contour>
      <point x="151.94444444444446" y="238.19444444444446" type="line"/>
      <point x="154.77777777777777" y="380.47222222222223"/>
      <point x="215.52777777777777" y="459.3611111111111"/>
      <point x="286.6388888888889" y="459.3611111111111" type="curve" smooth="yes"/>
      <point x="335.8888888888889" y="459.3611111111111"/>
      <point x="369.72222222222223" y="424.75"/>
      <point x="369.72222222222223" y="384.0833333333333" type="curve" smooth="yes"/>
      <point x="369.72222222222223" y="353.6111111111111"/>
      <point x="351.8333333333333" y="334.6666666666667"/>
      <point x="325.0" y="334.6666666666667" type="curve" smooth="yes"/>
      <point x="303.5833333333333" y="334.6666666666667"/>
      <point x="285.75" y="348.30555555555554"/>
      <point x="281.8611111111111" y="375.1388888888889" type="curve" smooth="yes"/>
      <point x="278.9166666666667" y="401.1388888888889"/>
      <point x="271.02777777777777" y="409.8333333333333"/>
      <point x="253.86111111111111" y="409.8333333333333" type="curve" smooth="yes"/>
      <point x="214.44444444444446" y="409.8333333333333"/>
      <point x="172.02777777777777" y="350.5"/>
      <point x="172.02777777777777" y="235.36111111111111" type="curve"/>
    </contour>
    <contour>
      <point x="172.02777777777777" y="441.44444444444446" type="curve" smooth="yes"/>
      <point x="172.02777777777777" y="71.97222222222223" type="line" smooth="yes"/>
      <point x="172.02777777777777" y="53.888888888888886"/>
      <point x="182.75" y="41.69444444444444"/>
      <point x="200.36111111111111" y="37.33333333333333" type="curve" smooth="yes"/>
      <point x="244.94444444444446" y="27.63888888888889" type="line" smooth="yes"/>
      <point x="254.19444444444446" y="25.22222222222222"/>
      <point x="260.55555555555554" y="21.805555555555557"/>
      <point x="260.55555555555554" y="14.5" type="curve" smooth="yes"/>
      <point x="260.55555555555554" y="4.833333333333333"/>
      <point x="255.72222222222223" y="0.0"/>
      <point x="242.63888888888889" y="0.0" type="curve" smooth="yes"/>
      <point x="43.41666666666667" y="0.0" type="line" smooth="yes"/>
      <point x="33.22222222222222" y="0.0"/>
      <point x="25.916666666666664" y="4.361111111111111"/>
      <point x="25.916666666666664" y="13.555555555555555" type="curve" smooth="yes"/>
      <point x="25.916666666666664" y="21.805555555555557"/>
      <point x="31.694444444444443" y="26.166666666666664"/>
      <point x="44.361111111111114" y="29.583333333333332" type="curve" smooth="yes"/>
      <point x="72.97222222222223" y="35.75" type="line" smooth="yes"/>
      <point x="84.75" y="38.69444444444444"/>
      <point x="93.0" y="47.47222222222222"/>
      <point x="93.0" y="64.5" type="curve" smooth="yes"/>
      <point x="93.0" y="359.75" type="line" smooth="yes"/>
      <point x="93.0" y="377.3611111111111"/>
      <point x="81.5" y="384.19444444444446"/>
      <point x="67.72222222222223" y="384.19444444444446" type="curve" smooth="yes"/>
      <point x="37.111111111111114" y="384.19444444444446" type="line" smooth="yes"/>
      <point x="29.333333333333332" y="384.19444444444446"/>
      <point x="24.444444444444443" y="388.55555555555554"/>
      <point x="24.444444444444443" y="394.8611111111111" type="curve" smooth="yes"/>
      <point x="24.444444444444443" y="400.22222222222223"/>
      <point x="30.805555555555557" y="406.0"/>
      <point x="41.05555555555556" y="410.4166666666667" type="curve" smooth="yes"/>
      <point x="127.13888888888889" y="450.1666666666667" type="line" smooth="yes"/>
      <point x="139.80555555555554" y="456.0"/>
      <point x="147.63888888888889" y="458.8888888888889"/>
      <point x="155.94444444444446" y="458.8888888888889" type="curve" smooth="yes"/>
      <point x="164.66666666666666" y="458.8888888888889"/>
      <point x="172.02777777777777" y="452.1111111111111"/>
    </contour>
  </outline>
</glyph>
<glyph name="v" format="2">
  <advance width="468.05555555555554"/>
  <unicode hex="0076"/>
  <outline>
    <contour>
      <point x="230.05555555555554" y="-10.0" type="curve" smooth="yes"/>
      <point x="244.0" y="-10.0" type="line" smooth="yes"/>
      <point x="255.83333333333334" y="-10.0"/>
      <point x="266.8145485791884" y="-3.965234449106335"/>
      <point x="275.02777777777777" y="16.72222222222222" type="curve" smooth="yes"/>
      <point x="407.1111111111111" y="345.4166666666667" type="line" smooth="yes"/>
      <point x="421.6388888888889" y="382.1111111111111"/>
      <point x="441.27777777777777" y="404.3333333333333"/>
      <point x="454.8611111111111" y="410.27777777777777" type="curve" smooth="yes"/>
      <point x="465.1666666666667" y="415.1111111111111"/>
      <point x="468.05555555555554" y="420.8888888888889"/>
      <point x="468.05555555555554" y="430.55555555555554" type="curve" smooth="yes"/>
      <point x="468.05555555555554" y="439.75"/>
      <point x="461.69444444444446" y="446.52777777777777"/>
      <point x="449.97222222222223" y="446.52777777777777" type="curve" smooth="yes"/>
      <point x="314.25" y="446.52777777777777" type="line" smooth="yes"/>
      <point x="303.52777777777777" y="446.52777777777777"/>
      <point x="297.69444444444446" y="442.30555555555554"/>
      <point x="297.69444444444446" y="434.9166666666667" type="curve" smooth="yes"/>
      <point x="297.69444444444446" y="427.6491769547325"/>
      <point x="302.624382711003" y="423.10128778394903"/>
      <point x="313.25" y="419.4166666666667" type="curve" smooth="yes"/>
      <point x="343.0833333333333" y="409.0" type="line" smooth="yes"/>
      <point x="362.9917523581244" y="401.8916381028474"/>
      <point x="370.3611111111111" y="389.72499999999997"/>
      <point x="370.3611111111111" y="374.0833333333333" type="curve" smooth="yes"/>
      <point x="370.3611111111111" y="359.96497584541066"/>
      <point x="368.0" y="347.77777777777777"/>
      <point x="358.1111111111111" y="323.47222222222223" type="curve" smooth="yes"/>
      <point x="252.05555555555554" y="48.52777777777778" type="line" smooth="yes"/>
      <point x="267.05555555555554" y="45.58333333333333" type="line"/>
      <point x="145.69444444444446" y="357.25" type="line" smooth="yes"/>
      <point x="141.22222222222223" y="369.72222222222223"/>
      <point x="137.33333333333334" y="378.19444444444446"/>
      <point x="137.33333333333334" y="390.19444444444446" type="curve" smooth="yes"/>
      <point x="137.33333333333334" y="402.72222222222223"/>
      <point x="145.75" y="408.25"/>
      <point x="162.11111111111111" y="412.19444444444446" type="curve" smooth="yes"/>
      <point x="194.02777777777777" y="419.77777777777777" type="line" smooth="yes"/>
      <point x="203.27777777777777" y="422.19444444444446"/>
      <point x="208.58333333333334" y="427.55555555555554"/>
      <point x="208.58333333333334" y="435.3333333333333" type="curve" smooth="yes"/>
      <point x="208.58333333333334" y="441.6388888888889"/>
      <point x="203.22222222222223" y="446.52777777777777"/>
      <point x="193.02777777777777" y="446.52777777777777" type="curve" smooth="yes"/>
      <point x="17.13888888888889" y="446.52777777777777" type="line" smooth="yes"/>
      <point x="5.888888888888889" y="446.52777777777777"/>
      <point x="0.5277777777777778" y="441.1666666666667"/>
      <point x="0.5277777777777778" y="432.44444444444446" type="curve" smooth="yes"/>
      <point x="0.5277777777777778" y="424.25"/>
      <point x="5.472222222222222" y="417.94444444444446"/>
      <point x="14.25" y="413.6388888888889" type="curve" smooth="yes"/>
      <point x="33.833333333333336" y="405.27777777777777"/>
      <point x="43.888888888888886" y="392.5833333333333"/>
      <point x="52.361111111111114" y="371.52777777777777" type="curve" smooth="yes"/>
      <point x="195.55555555555554" y="17.666666666666664" type="line" smooth="yes"/>
      <point x="203.8553691583365" y="-2.204375750548001"/>
      <point x="216.22222222222223" y="-10.0"/>
    </contour>
  </outline>
</glyph>
<glyph name="braceleft" format="2">
  <advance width="409.0"/>
  <unicode hex="007B"/>
  <outline>
    <contour>
      <point x="211.0" y="289.0" type="curve" smooth="yes"/>
      <point x="211.0" y="295.0"/>
      <point x="216.0" y="300.0"/>
      <point x="223.0" y="300.0" type="curve" smooth="yes"/>
      <point x="258.0" y="300.0"/>
      <point x="281.0" y="331.0"/>
      <point x="281.0" y="375.0" type="curve" smooth="yes"/>
      <point x="281.0" y="455.0"/>
      <point x="223.0" y="525.0"/>
      <point x="223.0" y="598.0" type="curve" smooth="yes"/>
      <point x="223.0" y="665.0"/>
      <point x="268.0" y="718.0"/>
      <point x="321.0" y="718.0" type="curve" smooth="yes"/>
      <point x="371.0" y="718.0" type="line" smooth="yes"/>
      <point x="385.0" y="718.0"/>
      <point x="394.0" y="725.0"/>
      <point x="394.0" y="737.0" type="curve" smooth="yes"/>
      <point x="394.0" y="747.0"/>
      <point x="387.0" y="755.0"/>
      <point x="373.0" y="755.0" type="curve" smooth="yes"/>
      <point x="321.0" y="755.0" type="line" smooth="yes"/>
      <point x="210.0" y="755.0"/>
      <point x="131.0" y="692.0"/>
      <point x="131.0" y="600.0" type="curve" smooth="yes"/>
      <point x="131.0" y="502.0"/>
      <point x="210.0" y="439.0"/>
      <point x="210.0" y="359.0" type="curve" smooth="yes"/>
      <point x="210.0" y="334.4583333333333"/>
      <point x="189.0" y="321.0"/>
      <point x="162.0" y="321.0" type="curve" smooth="yes"/>
      <point x="143.0" y="321.0"/>
      <point x="117.0" y="334.0"/>
      <point x="97.0" y="334.0" type="curve" smooth="yes"/>
      <point x="74.0" y="334.0"/>
      <point x="53.0" y="311.0"/>
      <point x="53.0" y="290.0" type="curve" smooth="yes"/>
      <point x="53.0" y="267.0"/>
      <point x="72.0" y="246.0"/>
      <point x="99.0" y="246.0" type="curve" smooth="yes"/>
      <point x="118.0" y="246.0"/>
      <point x="143.0" y="259.0"/>
      <point x="162.0" y="259.0" type="curve" smooth="yes"/>
      <point x="191.0" y="259.0"/>
      <point x="210.0" y="242.77358490566039"/>
      <point x="210.0" y="216.0" type="curve" smooth="yes"/>
      <point x="210.0" y="141.0"/>
      <point x="131.0" y="76.0"/>
      <point x="131.0" y="-30.0" type="curve" smooth="yes"/>
      <point x="131.0" y="-120.0"/>
      <point x="210.0" y="-185.0"/>
      <point x="321.0" y="-185.0" type="curve" smooth="yes"/>
      <point x="373.0" y="-185.0" type="line" smooth="yes"/>
      <point x="387.0" y="-185.0"/>
      <point x="394.0" y="-175.0"/>
      <point x="394.0" y="-167.0" type="curve" smooth="yes"/>
      <point x="394.0" y="-153.0"/>
      <point x="385.0" y="-148.0"/>
      <point x="371.0" y="-148.0" type="curve" smooth="yes"/>
      <point x="321.0" y="-148.0" type="line" smooth="yes"/>
      <point x="268.0" y="-148.0"/>
      <point x="223.0" y="-93.0"/>
      <point x="223.0" y="-28.0" type="curve" smooth="yes"/>
      <point x="223.0" y="50.0"/>
      <point x="281.0" y="124.0"/>
      <point x="281.0" y="201.0" type="curve" smooth="yes"/>
      <point x="281.0" y="244.0"/>
      <point x="261.0" y="279.0"/>
      <point x="223.0" y="279.0" type="curve" smooth="yes"/>
      <point x="216.0" y="279.0"/>
      <point x="211.0" y="282.0"/>
    </contour>
  </outline>
</glyph>
<glyph name="bar" format="2">
  <advance width="357.0"/>
  <unicode hex="007C"/>
  <outline>
    <contour>
      <point x="141.0" y="711.0" type="curve" smooth="yes"/>
      <point x="152.96352849245807" y="592.4523085747338"/>
      <point x="153.0" y="347.0"/>
      <point x="153.0" y="265.0" type="curve" smooth="yes"/>
      <point x="153.0" y="168.0"/>
      <point x="153.09361103128194" y="-67.16330887184269"/>
      <point x="141.0" y="-187.0" type="curve" smooth="yes"/>
      <point x="140.00772212328633" y="-194.93822301370935"/>
      <point x="140.0" y="-202.0"/>
      <point x="140.0" y="-210.0" type="curve" smooth="yes"/>
      <point x="140.0" y="-235.0"/>
      <point x="155.40540540540542" y="-250.0"/>
      <point x="178.0" y="-250.0" type="curve" smooth="yes"/>
      <point x="200.0" y="-250.0"/>
      <point x="213.0" y="-235.2"/>
      <point x="213.0" y="-213.0" type="curve" smooth="yes"/>
      <point x="213.0" y="-203.64516129032256"/>
      <point x="213.2060094698896" y="-194.85408522900647"/>
      <point x="212.0" y="-184.0" type="curve" smooth="yes"/>
      <point x="204.58636191273266" y="-63.26360829307498"/>
      <point x="202.0" y="161.0"/>
      <point x="202.0" y="263.0" type="curve" smooth="yes"/>
      <point x="202.0" y="339.0"/>
      <point x="200.8087871513919" y="593.7420589475024"/>
      <point x="208.0" y="710.0" type="curve" smooth="yes"/>
      <point x="209.0" y="724.0"/>
      <point x="209.0" y="725.0"/>
      <point x="209.0" y="727.0" type="curve" smooth="yes"/>
      <point x="209.0" y="748.0"/>
      <point x="196.0" y="765.0"/>
      <point x="175.0" y="765.0" type="curve" smooth="yes"/>
      <point x="155.0" y="765.0"/>
      <point x="141.0" y="750.0"/>
      <point x="141.0" y="725.0" type="curve" smooth="yes"/>
      <point x="141.0" y="721.0"/>
      <point x="141.0" y="716.0909090909091"/>
    </contour>
  </outline>
</glyph>
<glyph name="cent" format="2">
  <advance width="424.0"/>
  <unicode hex="00A2"/>
  <outline>
    <contour>
      <point x="196.0" y="23.0" type="curve" smooth="yes"/>
      <point x="196.0" y="-3.0"/>
      <point x="212.0" y="-17.0"/>
      <point x="228.0" y="-17.0" type="curve" smooth="yes"/>
      <point x="249.0" y="-17.0"/>
      <point x="263.0" y="-2.0"/>
      <point x="264.0" y="23.0" type="curve" smooth="yes"/>
      <point x="265.0" y="60.0"/>
      <point x="244.0" y="104.0"/>
      <point x="244.0" y="332.0" type="curve" smooth="yes"/>
      <point x="244.0" y="537.0"/>
      <point x="262.0" y="574.0"/>
      <point x="262.0" y="610.0" type="curve" smooth="yes"/>
      <point x="262.0" y="635.0"/>
      <point x="245.0" y="650.0"/>
      <point x="228.0" y="650.0" type="curve" smooth="yes"/>
      <point x="210.0" y="650.0"/>
      <point x="193.0" y="636.0"/>
      <point x="193.0" y="612.0" type="curve" smooth="yes"/>
      <point x="193.0" y="580.0"/>
      <point x="212.0" y="541.0"/>
      <point x="212.0" y="332.0" type="curve" smooth="yes"/>
      <point x="212.0" y="106.0"/>
      <point x="196.0" y="60.0"/>
    </contour>
    <contour>
      <point x="384.0" y="437.0" type="curve" smooth="yes"/>
      <point x="384.0" y="490.0"/>
      <point x="328.0" y="534.0"/>
      <point x="257.0" y="534.0" type="curve" smooth="yes"/>
      <point x="137.0" y="534.0"/>
      <point x="40.0" y="436.0"/>
      <point x="40.0" y="308.0" type="curve" smooth="yes"/>
      <point x="40.0" y="198.0"/>
      <point x="122.0" y="110.0"/>
      <point x="227.0" y="110.0" type="curve" smooth="yes"/>
      <point x="317.0" y="110.0"/>
      <point x="383.0" y="171.0"/>
      <point x="383.0" y="212.0" type="curve" smooth="yes"/>
      <point x="383.0" y="220.0"/>
      <point x="379.0" y="224.0"/>
      <point x="371.0" y="224.0" type="curve" smooth="yes"/>
      <point x="364.0" y="224.0"/>
      <point x="358.0" y="220.0"/>
      <point x="347.0" y="212.0" type="curve" smooth="yes"/>
      <point x="329.0" y="194.0"/>
      <point x="306.0" y="181.0"/>
      <point x="266.0" y="181.0" type="curve" smooth="yes"/>
      <point x="177.0" y="181.0"/>
      <point x="103.0" y="250.0"/>
      <point x="103.0" y="348.0" type="curve" smooth="yes"/>
      <point x="103.0" y="427.0"/>
      <point x="158.0" y="486.0"/>
      <point x="228.0" y="486.0" type="curve" smooth="yes"/>
      <point x="271.0" y="486.0"/>
      <point x="297.0" y="470.0"/>
      <point x="297.0" y="448.0" type="curve" smooth="yes"/>
      <point x="297.0" y="435.0" type="line" smooth="yes"/>
      <point x="297.0" y="409.0"/>
      <point x="317.0" y="392.0"/>
      <point x="341.0" y="392.0" type="curve" smooth="yes"/>
      <point x="364.0" y="392.0"/>
      <point x="384.0" y="412.0"/>
    </contour>
  </outline>
</glyph>
<glyph name="currency" format="2">
  <advance width="494.0"/>
  <unicode hex="00A4"/>
  <outline>
    <contour>
      <point x="246.0" y="153.0" type="curve" smooth="yes"/>
      <point x="152.0" y="153.0"/>
      <point x="75.0" y="233.0"/>
      <point x="75.0" y="326.0" type="curve" smooth="yes"/>
      <point x="75.0" y="420.0"/>
      <point x="152.0" y="497.0"/>
      <point x="246.0" y="497.0" type="curve" smooth="yes"/>
      <point x="342.0" y="497.0"/>
      <point x="418.0" y="420.0"/>
      <point x="418.0" y="326.0" type="curve" smooth="yes"/>
      <point x="418.0" y="233.0"/>
      <point x="342.0" y="153.0"/>
    </contour>
    <contour>
      <point x="247.0" y="215.0" type="curve" smooth="yes"/>
      <point x="306.0" y="215.0"/>
      <point x="357.0" y="264.0"/>
      <point x="357.0" y="326.0" type="curve" smooth="yes"/>
      <point x="357.0" y="388.0"/>
      <point x="306.0" y="436.0"/>
      <point x="247.0" y="436.0" type="curve" smooth="yes"/>
      <point x="185.0" y="436.0"/>
      <point x="138.0" y="388.0"/>
      <point x="138.0" y="326.0" type="curve" smooth="yes"/>
      <point x="138.0" y="264.0"/>
      <point x="185.0" y="215.0"/>
    </contour>
    <contour>
      <point x="58.0" y="517.0" type="curve" smooth="yes"/>
      <point x="69.0" y="527.0"/>
      <point x="82.0" y="528.0"/>
      <point x="94.0" y="517.0" type="curve" smooth="yes"/>
      <point x="170.0" y="441.0" type="line"/>
      <point x="133.0" y="404.0" type="line"/>
      <point x="58.0" y="479.0" type="line" smooth="yes"/>
      <point x="47.0" y="490.0"/>
      <point x="47.0" y="505.0"/>
    </contour>
    <contour>
      <point x="354.0" y="398.0" type="line"/>
      <point x="317.0" y="434.0" type="line"/>
      <point x="399.0" y="516.0" type="line" smooth="yes"/>
      <point x="410.0" y="527.0"/>
      <point x="425.0" y="527.0"/>
      <point x="437.0" y="516.0" type="curve" smooth="yes"/>
      <point x="447.0" y="505.0"/>
      <point x="447.0" y="491.0"/>
      <point x="436.0" y="480.0" type="curve" smooth="yes"/>
    </contour>
    <contour>
      <point x="359.0" y="251.0" type="line"/>
      <point x="436.0" y="174.0" type="line" smooth="yes"/>
      <point x="447.0" y="163.0"/>
      <point x="447.0" y="149.0"/>
      <point x="437.0" y="138.0" type="curve" smooth="yes"/>
      <point x="425.0" y="127.0"/>
      <point x="410.0" y="127.0"/>
      <point x="399.0" y="138.0" type="curve" smooth="yes"/>
      <point x="323.0" y="214.0" type="line"/>
    </contour>
    <contour>
      <point x="58.0" y="137.0" type="curve" smooth="yes"/>
      <point x="47.0" y="149.0"/>
      <point x="47.0" y="164.0"/>
      <point x="58.0" y="175.0" type="curve" smooth="yes"/>
      <point x="136.0" y="253.0" type="line"/>
      <point x="173.0" y="217.0" type="line"/>
      <point x="94.0" y="137.0" type="line" smooth="yes"/>
      <point x="82.0" y="126.0"/>
      <point x="69.0" y="127.0"/>
    </contour>
  </outline>
</glyph>
<glyph name="yen" format="2">
  <advance width="611.0"/>
  <unicode hex="00A5"/>
  <outline>
    <contour>
      <point x="558.0" y="185.0" type="curve" smooth="yes"/>
      <point x="583.0" y="185.0"/>
      <point x="594.0" y="198.0"/>
      <point x="594.0" y="212.0" type="curve" smooth="yes"/>
      <point x="594.0" y="231.0"/>
      <point x="582.0" y="244.0"/>
      <point x="558.0" y="245.0" type="curve" smooth="yes"/>
      <point x="527.0" y="246.0"/>
      <point x="490.0" y="230.0"/>
      <point x="299.0" y="230.0" type="curve" smooth="yes"/>
      <point x="119.0" y="230.0"/>
      <point x="87.0" y="242.0"/>
      <point x="56.0" y="242.0" type="curve" smooth="yes"/>
      <point x="32.0" y="242.0"/>
      <point x="20.0" y="225.0"/>
      <point x="20.0" y="208.0" type="curve" smooth="yes"/>
      <point x="20.0" y="194.0"/>
      <point x="31.0" y="181.0"/>
      <point x="54.0" y="181.0" type="curve" smooth="yes"/>
      <point x="81.0" y="181.0"/>
      <point x="116.0" y="193.0"/>
      <point x="299.0" y="193.0" type="curve" smooth="yes"/>
      <point x="489.0" y="193.0"/>
      <point x="527.0" y="185.0"/>
    </contour>
    <contour>
      <point x="236.0" y="342.0" type="line"/>
      <point x="111.0" y="344.0"/>
      <point x="83.0" y="353.0"/>
      <point x="56.0" y="353.0" type="curve" smooth="yes"/>
      <point x="32.0" y="353.0"/>
      <point x="20.0" y="336.0"/>
      <point x="20.0" y="319.0" type="curve" smooth="yes"/>
      <point x="20.0" y="305.0"/>
      <point x="31.0" y="292.0"/>
      <point x="54.0" y="292.0" type="curve" smooth="yes"/>
      <point x="79.0" y="292.0"/>
      <point x="110.0" y="302.0"/>
      <point x="257.0" y="304.0" type="curve"/>
    </contour>
    <contour>
      <point x="558.0" y="296.0" type="curve" smooth="yes"/>
      <point x="583.0" y="296.0"/>
      <point x="594.0" y="309.0"/>
      <point x="594.0" y="323.0" type="curve" smooth="yes"/>
      <point x="594.0" y="342.0"/>
      <point x="582.0" y="355.0"/>
      <point x="558.0" y="356.0" type="curve" smooth="yes"/>
      <point x="532.0" y="357.0"/>
      <point x="503.0" y="346.0"/>
      <point x="384.0" y="342.0" type="curve"/>
      <point x="366.0" y="304.0" type="line"/>
      <point x="499.0" y="302.0"/>
      <point x="531.0" y="296.0"/>
    </contour>
    <component base="Y" xScale="0.9135172474836407" yScale="0.9135172474836407" xOffset="10.0"/>
  </outline>
</glyph>
<glyph name="brokenbar" format="2">
  <advance width="357.0"/>
  <unicode hex="00A6"/>
  <outline>
    <contour>
      <point x="207.0" y="734.0" type="line" smooth="yes"/>
      <point x="207.0" y="750.0"/>
      <point x="199.0" y="765.0"/>
      <point x="180.0" y="766.0" type="curve" smooth="yes"/>
      <point x="161.0" y="767.0"/>
      <point x="150.0" y="751.0"/>
      <point x="150.0" y="734.0" type="curve" smooth="yes"/>
      <point x="150.0" y="347.0" type="line" smooth="yes"/>
      <point x="150.0" y="330.0"/>
      <point x="161.0" y="314.0"/>
      <point x="180.0" y="315.0" type="curve" smooth="yes"/>
      <point x="199.0" y="316.0"/>
      <point x="207.0" y="331.0"/>
      <point x="207.0" y="347.0" type="curve" smooth="yes"/>
    </contour>
    <contour>
      <point x="207.0" y="174.0" type="line" smooth="yes"/>
      <point x="207.0" y="190.0"/>
      <point x="199.0" y="205.0"/>
      <point x="180.0" y="206.0" type="curve" smooth="yes"/>
      <point x="161.0" y="207.0"/>
      <point x="150.0" y="191.0"/>
      <point x="150.0" y="174.0" type="curve" smooth="yes"/>
      <point x="150.0" y="-213.0" type="line" smooth="yes"/>
      <point x="150.0" y="-230.0"/>
      <point x="161.0" y="-246.0"/>
      <point x="180.0" y="-245.0" type="curve" smooth="yes"/>
      <point x="199.0" y="-244.0"/>
      <point x="207.0" y="-229.0"/>
      <point x="207.0" y="-213.0" type="curve" smooth="yes"/>
    </contour>
  </outline>
</glyph>
<glyph name="section" format="2">
  <advance width="540.0"/>
  <unicode hex="00A7"/>
  <outline>
    <contour>
      <point x="289.0" y="-189.0" type="curve" smooth="yes"/>
      <point x="231.0" y="-189.0"/>
      <point x="182.0" y="-158.0"/>
      <point x="136.0" y="-77.0" type="curve" smooth="yes"/>
      <point x="120.0" y="-50.0"/>
      <point x="109.0" y="-40.0"/>
      <point x="96.0" y="-40.0" type="curve" smooth="yes"/>
      <point x="80.0" y="-40.0"/>
      <point x="73.0" y="-50.0"/>
      <point x="73.0" y="-66.0" type="curve" smooth="yes"/>
      <point x="73.0" y="-77.0"/>
      <point x="76.0" y="-92.0"/>
      <point x="82.0" y="-110.0" type="curve" smooth="yes"/>
      <point x="117.0" y="-221.0" type="line" smooth="yes"/>
      <point x="122.0" y="-238.0"/>
      <point x="129.0" y="-243.0"/>
      <point x="137.0" y="-243.0" type="curve" smooth="yes"/>
      <point x="151.0" y="-243.0"/>
      <point x="162.0" y="-220.0"/>
      <point x="177.0" y="-220.0" type="curve" smooth="yes"/>
      <point x="194.0" y="-220.0"/>
      <point x="235.0" y="-243.0"/>
      <point x="287.0" y="-243.0" type="curve" smooth="yes"/>
      <point x="403.0" y="-243.0"/>
      <point x="475.0" y="-163.0"/>
      <point x="475.0" y="-68.0" type="curve" smooth="yes"/>
      <point x="475.0" y="1.0"/>
      <point x="441.0" y="56.0"/>
      <point x="303.0" y="131.0" type="curve" smooth="yes"/>
      <point x="166.0" y="205.0"/>
      <point x="131.0" y="257.0"/>
      <point x="131.0" y="303.0" type="curve" smooth="yes"/>
      <point x="131.0" y="345.0"/>
      <point x="162.0" y="373.0"/>
      <point x="199.0" y="373.0" type="curve"/>
      <point x="202.0" y="417.0" type="line"/>
      <point x="118.0" y="417.0"/>
      <point x="50.0" y="342.0"/>
      <point x="50.0" y="258.0" type="curve" smooth="yes"/>
      <point x="50.0" y="180.0"/>
      <point x="106.0" y="114.0"/>
      <point x="231.0" y="55.0" type="curve" smooth="yes"/>
      <point x="367.0" y="-9.0"/>
      <point x="394.0" y="-46.0"/>
      <point x="393.0" y="-99.0" type="curve" smooth="yes"/>
      <point x="392.0" y="-151.0"/>
      <point x="354.0" y="-189.0"/>
    </contour>
    <contour>
      <point x="339.0" y="99.0" type="curve"/>
      <point x="337.0" y="55.0" type="line"/>
      <point x="432.0" y="55.0"/>
      <point x="490.0" y="128.0"/>
      <point x="490.0" y="214.0" type="curve" smooth="yes"/>
      <point x="490.0" y="279.0"/>
      <point x="451.0" y="336.0"/>
      <point x="309.0" y="411.0" type="curve" smooth="yes"/>
      <point x="186.0" y="476.0"/>
      <point x="151.0" y="520.0"/>
      <point x="151.0" y="575.0" type="curve" smooth="yes"/>
      <point x="151.0" y="627.0"/>
      <point x="195.0" y="661.0"/>
      <point x="249.0" y="661.0" type="curve" smooth="yes"/>
      <point x="302.0" y="661.0"/>
      <point x="355.0" y="631.0"/>
      <point x="415.0" y="543.0" type="curve" smooth="yes"/>
      <point x="428.0" y="523.0"/>
      <point x="442.0" y="511.0"/>
      <point x="460.0" y="511.0" type="curve" smooth="yes"/>
      <point x="477.0" y="511.0"/>
      <point x="483.0" y="521.0"/>
      <point x="483.0" y="536.0" type="curve" smooth="yes"/>
      <point x="483.0" y="544.0"/>
      <point x="479.0" y="558.0"/>
      <point x="474.0" y="570.0" type="curve" smooth="yes"/>
      <point x="424.0" y="692.0" type="line" smooth="yes"/>
      <point x="417.0" y="709.0"/>
      <point x="408.0" y="716.0"/>
      <point x="397.0" y="716.0" type="curve" smooth="yes"/>
      <point x="384.0" y="716.0"/>
      <point x="377.0" y="693.0"/>
      <point x="360.0" y="693.0" type="curve" smooth="yes"/>
      <point x="341.0" y="693.0"/>
      <point x="305.0" y="715.0"/>
      <point x="252.0" y="715.0" type="curve" smooth="yes"/>
      <point x="148.0" y="715.0"/>
      <point x="65.0" y="632.0"/>
      <point x="65.0" y="540.0" type="curve" smooth="yes"/>
      <point x="65.0" y="458.0"/>
      <point x="114.0" y="399.0"/>
      <point x="246.0" y="332.0" type="curve" smooth="yes"/>
      <point x="377.0" y="266.0"/>
      <point x="413.0" y="215.0"/>
      <point x="413.0" y="174.0" type="curve" smooth="yes"/>
      <point x="413.0" y="130.0"/>
      <point x="385.0" y="99.0"/>
    </contour>
  </outline>
</glyph>
<glyph name="copyright" format="2">
  <advance width="761.0"/>
  <unicode hex="00A9"/>
  <outline>
    <contour>
      <point x="380.0" y="-15.0" type="curve" smooth="yes"/>
      <point x="187.0" y="-15.0"/>
      <point x="50.0" y="128.0"/>
      <point x="50.0" y="321.0" type="curve" smooth="yes"/>
      <point x="50.0" y="512.0"/>
      <point x="189.0" y="649.0"/>
      <point x="380.0" y="649.0" type="curve" smooth="yes"/>
      <point x="572.0" y="649.0"/>
      <point x="711.0" y="513.0"/>
      <point x="711.0" y="321.0" type="curve" smooth="yes"/>
      <point x="711.0" y="128.0"/>
      <point x="573.0" y="-15.0"/>
    </contour>
    <contour>
      <point x="380.0" y="25.0" type="curve" smooth="yes"/>
      <point x="550.0" y="25.0"/>
      <point x="671.0" y="151.0"/>
      <point x="671.0" y="321.0" type="curve" smooth="yes"/>
      <point x="671.0" y="489.0"/>
      <point x="548.0" y="610.0"/>
      <point x="380.0" y="610.0" type="curve" smooth="yes"/>
      <point x="212.0" y="610.0"/>
      <point x="90.0" y="489.0"/>
      <point x="90.0" y="321.0" type="curve" smooth="yes"/>
      <point x="90.0" y="151.0"/>
      <point x="210.0" y="25.0"/>
    </contour>
    <contour>
      <point x="543.0" y="218.0" type="curve" smooth="yes"/>
      <point x="543.0" y="222.0"/>
      <point x="540.0" y="226.0"/>
      <point x="536.0" y="226.0" type="curve" smooth="yes"/>
      <point x="531.0" y="226.0"/>
      <point x="527.0" y="222.0"/>
      <point x="521.0" y="216.0" type="curve" smooth="yes"/>
      <point x="497.0" y="192.0"/>
      <point x="456.0" y="174.0"/>
      <point x="413.0" y="174.0" type="curve" smooth="yes"/>
      <point x="325.0689655172414" y="174.0"/>
      <point x="263.0" y="241.0"/>
      <point x="263.0" y="335.0" type="curve" smooth="yes"/>
      <point x="263.0" y="430.0"/>
      <point x="317.0" y="485.0"/>
      <point x="391.0" y="485.0" type="curve" smooth="yes"/>
      <point x="431.0" y="485.0"/>
      <point x="459.0" y="468.0"/>
      <point x="499.0" y="418.0" type="curve" smooth="yes"/>
      <point x="509.0" y="406.0"/>
      <point x="517.0" y="401.0"/>
      <point x="525.0" y="401.0" type="curve" smooth="yes"/>
      <point x="532.0" y="401.0"/>
      <point x="538.0" y="406.0"/>
      <point x="538.0" y="413.0" type="curve" smooth="yes"/>
      <point x="538.0" y="418.0"/>
      <point x="536.0" y="421.0"/>
      <point x="533.0" y="432.0" type="curve" smooth="yes"/>
      <point x="510.0" y="509.0" type="line" smooth="yes"/>
      <point x="506.0" y="522.0"/>
      <point x="501.0" y="527.0"/>
      <point x="494.0" y="527.0" type="curve" smooth="yes"/>
      <point x="484.0" y="527.0"/>
      <point x="482.0" y="511.0"/>
      <point x="471.0" y="511.0" type="curve" smooth="yes"/>
      <point x="456.0" y="511.0"/>
      <point x="434.0" y="526.0"/>
      <point x="392.0" y="526.0" type="curve" smooth="yes"/>
      <point x="280.0" y="526.0"/>
      <point x="196.0" y="437.0"/>
      <point x="196.0" y="313.0" type="curve" smooth="yes"/>
      <point x="196.0" y="196.0"/>
      <point x="272.99468085106383" y="113.0"/>
      <point x="389.0" y="113.0" type="curve" smooth="yes"/>
      <point x="477.0" y="113.0"/>
      <point x="543.0" y="168.0"/>
    </contour>
  </outline>
</glyph>
<glyph name="logicalnot" format="2">
  <advance width="508.0"/>
  <unicode hex="00AC"/>
  <outline>
    <contour>
      <point x="410.0" y="184.0" type="curve" smooth="yes"/>
      <point x="426.8" y="184.0"/>
      <point x="438.0" y="194.8"/>
      <point x="438.0" y="214.0" type="curve" smooth="yes"/>
      <point x="438.0" y="393.0" type="line" smooth="yes"/>
      <point x="438.0" y="409.0"/>
      <point x="428.0" y="419.0"/>
      <point x="413.0" y="419.0" type="curve" smooth="yes"/>
      <point x="394.03703703703707" y="419.0"/>
      <point x="381.0" y="408.0"/>
      <point x="381.0" y="393.0" type="curve" smooth="yes"/>
      <point x="381.0" y="215.0" type="line" smooth="yes"/>
      <point x="381.0" y="197.1153846153846"/>
      <point x="392.78125" y="184.0"/>
    </contour>
    <component base="minus" xOffset="-10.0" yOffset="90.0"/>
  </outline>
</glyph>
<glyph name="registered" format="2">
  <advance width="499.0"/>
  <unicode hex="00AE"/>
  <outline>
    <contour>
      <point x="249.0" y="213.0" type="curve" smooth="yes"/>
      <point x="122.0" y="213.0"/>
      <point x="33.0" y="308.0"/>
      <point x="33.0" y="435.0" type="curve" smooth="yes"/>
      <point x="33.0" y="560.0"/>
      <point x="124.0" y="649.0"/>
      <point x="249.0" y="649.0" type="curve" smooth="yes"/>
      <point x="374.0" y="649.0"/>
      <point x="466.0" y="560.0"/>
      <point x="466.0" y="435.0" type="curve" smooth="yes"/>
      <point x="466.0" y="308.0"/>
      <point x="376.0" y="213.0"/>
    </contour>
    <contour>
      <point x="249.0" y="243.0" type="curve" smooth="yes"/>
      <point x="359.0" y="243.0"/>
      <point x="436.0" y="325.0"/>
      <point x="436.0" y="435.0" type="curve" smooth="yes"/>
      <point x="436.0" y="542.0"/>
      <point x="356.0" y="619.0"/>
      <point x="249.0" y="619.0" type="curve" smooth="yes"/>
      <point x="141.0" y="619.0"/>
      <point x="63.0" y="543.0"/>
      <point x="63.0" y="435.0" type="curve" smooth="yes"/>
      <point x="63.0" y="325.0"/>
      <point x="139.0" y="243.0"/>
    </contour>
    <contour>
      <point x="352.0" y="475.0" type="curve" smooth="yes"/>
      <point x="352.0" y="526.0"/>
      <point x="303.0" y="559.0"/>
      <point x="237.0" y="559.0" type="curve" smooth="yes"/>
      <point x="153.0" y="559.0" type="line" smooth="yes"/>
      <point x="146.0" y="559.0"/>
      <point x="142.0" y="557.0"/>
      <point x="142.0" y="553.0" type="curve" smooth="yes"/>
      <point x="142.0" y="549.0"/>
      <point x="146.0" y="546.0"/>
      <point x="152.0" y="545.0" type="curve" smooth="yes"/>
      <point x="161.0" y="543.0" type="line" smooth="yes"/>
      <point x="169.0" y="541.0"/>
      <point x="174.0" y="535.0"/>
      <point x="174.0" y="527.0" type="curve" smooth="yes"/>
      <point x="174.0" y="346.0" type="line" smooth="yes"/>
      <point x="174.0" y="339.0"/>
      <point x="169.0" y="333.0"/>
      <point x="161.0" y="331.0" type="curve" smooth="yes"/>
      <point x="152.0" y="329.0" type="line" smooth="yes"/>
      <point x="146.0" y="328.0"/>
      <point x="142.0" y="325.0"/>
      <point x="142.0" y="321.0" type="curve" smooth="yes"/>
      <point x="142.0" y="316.0"/>
      <point x="146.0" y="314.0"/>
      <point x="153.0" y="314.0" type="curve" smooth="yes"/>
      <point x="239.0" y="314.0" type="line" smooth="yes"/>
      <point x="246.0" y="314.0"/>
      <point x="249.0" y="316.0"/>
      <point x="249.0" y="321.0" type="curve" smooth="yes"/>
      <point x="249.0" y="325.0"/>
      <point x="246.0" y="326.0"/>
      <point x="240.0" y="328.0" type="curve" smooth="yes"/>
      <point x="231.0" y="331.0" type="line" smooth="yes"/>
      <point x="225.0" y="333.0"/>
      <point x="221.0" y="337.0"/>
      <point x="221.0" y="346.0" type="curve" smooth="yes"/>
      <point x="221.0" y="535.0" type="line"/>
      <point x="235.0" y="535.0" type="line" smooth="yes"/>
      <point x="275.0" y="535.0"/>
      <point x="303.0" y="514.0"/>
      <point x="303.0" y="482.0" type="curve" smooth="yes"/>
      <point x="303.0" y="446.0"/>
      <point x="279.0967741935484" y="422.0"/>
      <point x="246.0" y="422.0" type="curve" smooth="yes"/>
      <point x="221.0" y="422.0"/>
      <point x="207.0" y="425.0"/>
      <point x="191.0" y="434.0" type="curve"/>
      <point x="187.0" y="413.0" type="line"/>
      <point x="205.0" y="403.0"/>
      <point x="219.0" y="399.0"/>
      <point x="247.0" y="399.0" type="curve" smooth="yes"/>
      <point x="310.0" y="399.0"/>
      <point x="352.0" y="430.0"/>
    </contour>
    <contour>
      <point x="248.0" y="409.0" type="line"/>
      <point x="293.0" y="347.0" type="line" smooth="yes"/>
      <point x="296.0" y="343.0"/>
      <point x="298.0" y="340.0"/>
      <point x="298.0" y="336.0" type="curve" smooth="yes"/>
      <point x="298.0" y="333.0"/>
      <point x="296.0" y="330.0"/>
      <point x="291.0" y="328.0" type="curve" smooth="yes"/>
      <point x="288.0" y="326.0"/>
      <point x="286.0" y="324.0"/>
      <point x="286.0" y="320.0" type="curve" smooth="yes"/>
      <point x="286.0" y="316.0"/>
      <point x="290.0" y="314.0"/>
      <point x="297.0" y="314.0" type="curve" smooth="yes"/>
      <point x="368.0" y="314.0" type="line" smooth="yes"/>
      <point x="376.0" y="314.0"/>
      <point x="379.0" y="317.0"/>
      <point x="379.0" y="321.0" type="curve" smooth="yes"/>
      <point x="379.0" y="325.0"/>
      <point x="376.0" y="326.0"/>
      <point x="372.0" y="328.0" type="curve" smooth="yes"/>
      <point x="361.0" y="332.0"/>
      <point x="355.0" y="337.0"/>
      <point x="348.0" y="345.0" type="curve" smooth="yes"/>
      <point x="295.0" y="413.0" type="line"/>
    </contour>
  </outline>
</glyph>
<glyph name="degree" format="2">
  <advance width="364.0"/>
  <unicode hex="00B0"/>
  <outline>
    <contour>
      <point x="184.0" y="650.0" type="curve" smooth="yes"/>
      <point x="104.0" y="650.0"/>
      <point x="50.0" y="596.0"/>
      <point x="50.0" y="529.0" type="curve" smooth="yes"/>
      <point x="50.0" y="460.0"/>
      <point x="104.0" y="410.0"/>
      <point x="178.0" y="410.0" type="curve" smooth="yes"/>
      <point x="255.0" y="410.0"/>
      <point x="314.0" y="461.0"/>
      <point x="314.0" y="536.0" type="curve" smooth="yes"/>
      <point x="314.0" y="603.0"/>
      <point x="260.0" y="650.0"/>
    </contour>
    <contour>
      <point x="252.0" y="515.0" type="curve" smooth="yes"/>
      <point x="252.0" y="471.0"/>
      <point x="227.0" y="444.0"/>
      <point x="190.0" y="444.0" type="curve" smooth="yes"/>
      <point x="145.0" y="444.0"/>
      <point x="110.0" y="488.0"/>
      <point x="110.0" y="544.0" type="curve" smooth="yes"/>
      <point x="110.0" y="587.0"/>
      <point x="137.0" y="617.0"/>
      <point x="174.0" y="617.0" type="curve" smooth="yes"/>
      <point x="221.0" y="617.0"/>
      <point x="252.0" y="572.0"/>
    </contour>
  </outline>
</glyph>
<glyph name="paragraph" format="2">
  <advance width="562.9444444444445"/>
  <unicode hex="00B6"/>
  <outline>
    <contour>
      <point x="9.722222222222221" y="521.2777777777778" type="curve" smooth="yes"/>
      <point x="9.722222222222221" y="425.44444444444446"/>
      <point x="78.53911900065745" y="360.55555555555554"/>
      <point x="178.16666666666666" y="360.55555555555554" type="curve" smooth="yes"/>
      <point x="203.07085346215783" y="360.55555555555554"/>
      <point x="221.39149217504584" y="364.34317110062744"/>
      <point x="237.16666666666666" y="367.55555555555554" type="curve"/>
      <point x="237.16666666666666" y="81.44444444444444" type="line" smooth="yes"/>
      <point x="237.16666666666666" y="59.44444444444444"/>
      <point x="224.16666666666666" y="42.44444444444444"/>
      <point x="200.16666666666666" y="37.44444444444444" type="curve" smooth="yes"/>
      <point x="166.72222222222223" y="29.86111111111111" type="line" smooth="yes"/>
      <point x="153.5657712099914" y="26.9500744390496"/>
      <point x="147.16666666666666" y="22.23076923076923"/>
      <point x="147.16666666666666" y="13.722222222222221" type="curve" smooth="yes"/>
      <point x="147.16666666666666" y="4.888888888888889"/>
      <point x="156.0" y="0.0"/>
      <point x="169.72222222222223" y="0.0" type="curve" smooth="yes"/>
      <point x="499.8611111111111" y="0.0" type="line" smooth="yes"/>
      <point x="516.0555555555555" y="0.0"/>
      <point x="522.9444444444445" y="4.416666666666666"/>
      <point x="522.9444444444445" y="13.722222222222221" type="curve" smooth="yes"/>
      <point x="522.9444444444445" y="23.58119658119658"/>
      <point x="516.0121531858164" y="26.925737755413543"/>
      <point x="502.8611111111111" y="29.86111111111111" type="curve" smooth="yes"/>
      <point x="469.94444444444446" y="37.44444444444444" type="line" smooth="yes"/>
      <point x="445.94444444444446" y="42.916666666666664"/>
      <point x="432.94444444444446" y="55.44444444444444"/>
      <point x="432.94444444444446" y="81.44444444444444" type="curve" smooth="yes"/>
      <point x="432.94444444444446" y="617.5555555555555" type="line" smooth="yes"/>
      <point x="432.94444444444446" y="644.5555555555555"/>
      <point x="445.94444444444446" y="657.0833333333334"/>
      <point x="469.94444444444446" y="662.5555555555555" type="curve" smooth="yes"/>
      <point x="502.8611111111111" y="670.1388888888889" type="line" smooth="yes"/>
      <point x="516.1829633820823" y="673.1126945387463"/>
      <point x="522.9444444444445" y="676.7111111111111"/>
      <point x="522.9444444444445" y="686.8055555555555" type="curve" smooth="yes"/>
      <point x="522.9444444444445" y="695.7592592592592"/>
      <point x="516.6764705882352" y="700.0"/>
      <point x="501.44444444444446" y="700.0" type="curve" smooth="yes"/>
      <point x="196.16666666666666" y="700.0" type="line" smooth="yes"/>
      <point x="84.5050505050505" y="700.0"/>
      <point x="9.722222222222221" y="628.1111111111111"/>
    </contour>
    <contour>
      <point x="374.77777777777777" y="76.16666666666667" type="line" smooth="yes"/>
      <point x="374.77777777777777" y="53.14975845410628"/>
      <point x="364.8333333333333" y="35.44444444444444"/>
      <point x="335.05555555555554" y="35.44444444444444" type="curve" smooth="yes"/>
      <point x="305.75" y="35.44444444444444"/>
      <point x="295.3333333333333" y="56.690821256038646"/>
      <point x="295.3333333333333" y="76.16666666666667" type="curve" smooth="yes"/>
      <point x="295.3333333333333" y="622.8333333333334" type="line" smooth="yes"/>
      <point x="295.3333333333333" y="643.2505910165485"/>
      <point x="305.75" y="664.5555555555555"/>
      <point x="335.05555555555554" y="664.5555555555555" type="curve" smooth="yes"/>
      <point x="364.8333333333333" y="664.5555555555555"/>
      <point x="374.77777777777777" y="646.8014184397164"/>
      <point x="374.77777777777777" y="622.8333333333334" type="curve" smooth="yes"/>
    </contour>
  </outline>
</glyph>
<glyph name="Eth" format="2">
  <advance width="769.0"/>
  <unicode hex="00D0"/>
  <outline>
    <contour>
      <point x="41.0" y="352.0" type="curve" smooth="yes"/>
      <point x="41.0" y="339.0"/>
      <point x="48.0" y="331.0"/>
      <point x="61.0" y="331.0" type="curve" smooth="yes"/>
      <point x="351.0" y="331.0" type="line" smooth="yes"/>
      <point x="364.0" y="331.0"/>
      <point x="373.0" y="339.0"/>
      <point x="373.0" y="352.0" type="curve" smooth="yes"/>
      <point x="373.0" y="364.0"/>
      <point x="364.0" y="373.0"/>
      <point x="351.0" y="373.0" type="curve" smooth="yes"/>
      <point x="62.0" y="373.0" type="line" smooth="yes"/>
      <point x="50.0" y="373.0"/>
      <point x="41.0" y="364.0"/>
    </contour>
    <component base="D"/>
  </outline>
</glyph>
<glyph name="multiply" format="2">
  <advance width="433.0"/>
  <unicode hex="00D7"/>
  <outline>
    <contour>
      <point x="65.0" y="152.0" type="curve" smooth="yes"/>
      <point x="77.0" y="139.0"/>
      <point x="99.0" y="141.0"/>
      <point x="113.0" y="155.0" type="curve" smooth="yes"/>
      <point x="156.44495922423084" y="198.44495922423084"/>
      <point x="197.41628058182684" y="259.4162805818268"/>
      <point x="230.0" y="292.0" type="curve" smooth="yes"/>
      <point x="263.7659035875402" y="325.7659035875402"/>
      <point x="322.69876023422626" y="364.69876023422626"/>
      <point x="363.0" y="405.0" type="curve" smooth="yes"/>
      <point x="379.0" y="421.0"/>
      <point x="379.0" y="441.0"/>
      <point x="366.0" y="453.0" type="curve" smooth="yes"/>
      <point x="353.0" y="467.0"/>
      <point x="331.0" y="467.0"/>
      <point x="317.0" y="452.0" type="curve" smooth="yes"/>
      <point x="275.6198756380703" y="411.7088262791737"/>
      <point x="236.7588776283611" y="351.6698815758333"/>
      <point x="203.0" y="319.0" type="curve" smooth="yes"/>
      <point x="166.05428960869213" y="280.9676510677713"/>
      <point x="109.3778955574154" y="245.46450826401576"/>
      <point x="67.0" y="202.0" type="curve" smooth="yes"/>
      <point x="54.0" y="189.0"/>
      <point x="51.0" y="165.0"/>
    </contour>
    <contour>
      <point x="370.0" y="154.0" type="curve" smooth="yes"/>
      <point x="382.0" y="167.0"/>
      <point x="380.0" y="189.0"/>
      <point x="367.0" y="202.0" type="curve" smooth="yes"/>
      <point x="322.4993010075617" y="246.5006989924383"/>
      <point x="261.56148706763776" y="287.43851293236224"/>
      <point x="229.0" y="320.0" type="curve" smooth="yes"/>
      <point x="196.32331910883207" y="352.67668089116796"/>
      <point x="157.39046246214608" y="411.6095375378539"/>
      <point x="116.0" y="453.0" type="curve" smooth="yes"/>
      <point x="101.0" y="468.0"/>
      <point x="81.0" y="468.0"/>
      <point x="68.0" y="456.0" type="curve" smooth="yes"/>
      <point x="55.0" y="442.0"/>
      <point x="55.0" y="421.0"/>
      <point x="70.0" y="406.0" type="curve" smooth="yes"/>
      <point x="110.30123976577379" y="365.6987602342262"/>
      <point x="169.24211768002536" y="325.668918374169"/>
      <point x="203.0" y="293.0" type="curve" smooth="yes"/>
      <point x="239.93562240673782" y="254.9780357577699"/>
      <point x="276.6315527577216" y="199.4548176843881"/>
      <point x="319.0" y="156.0" type="curve" smooth="yes"/>
      <point x="332.0" y="144.0"/>
      <point x="356.0" y="141.0"/>
    </contour>
  </outline>
</glyph>
<glyph name="Oslash" format="2">
  <advance width="788.0"/>
  <unicode hex="00D8"/>
  <outline>
    <contour>
      <point x="727.0" y="646.0" type="curve" smooth="yes"/>
      <point x="741.0" y="659.0"/>
      <point x="745.0" y="673.0"/>
      <point x="745.0" y="686.0" type="curve" smooth="yes"/>
      <point x="745.0" y="701.0"/>
      <point x="732.0" y="716.0"/>
      <point x="715.0" y="716.0" type="curve" smooth="yes"/>
      <point x="700.0" y="716.0"/>
      <point x="688.0" y="708.0"/>
      <point x="677.0" y="694.0" type="curve" smooth="yes"/>
      <point x="598.0" y="596.0"/>
      <point x="443.0" y="421.0"/>
      <point x="396.0" y="374.0" type="curve" smooth="yes"/>
      <point x="347.0" y="324.0"/>
      <point x="181.0" y="155.0"/>
      <point x="69.0" y="45.0" type="curve" smooth="yes"/>
      <point x="56.0" y="33.0"/>
      <point x="52.0" y="22.0"/>
      <point x="52.0" y="12.0" type="curve" smooth="yes"/>
      <point x="52.0" y="-4.0"/>
      <point x="64.0" y="-19.0"/>
      <point x="84.0" y="-19.0" type="curve" smooth="yes"/>
      <point x="99.0" y="-19.0"/>
      <point x="112.0" y="-13.0"/>
      <point x="127.0" y="5.0" type="curve" smooth="yes"/>
      <point x="214.0" y="111.0"/>
      <point x="354.0" y="275.0"/>
      <point x="423.0" y="349.0" type="curve" smooth="yes"/>
      <point x="478.0" y="408.0"/>
      <point x="634.0" y="559.0"/>
    </contour>
    <component base="O"/>
  </outline>
</glyph>
<glyph name="Thorn" format="2">
  <advance width="648.0"/>
  <unicode hex="00DE"/>
  <outline>
    <contour>
      <point x="175.0" y="517.0" type="line"/>
      <point x="341.0" y="517.0" type="line" smooth="yes"/>
      <point x="438.0" y="517.0"/>
      <point x="513.0" y="462.0"/>
      <point x="513.0" y="355.0" type="curve" smooth="yes"/>
      <point x="513.0" y="245.0"/>
      <point x="444.0" y="189.0"/>
      <point x="352.0" y="189.0" type="curve" smooth="yes"/>
      <point x="263.0" y="189.0"/>
      <point x="221.0" y="208.0"/>
      <point x="174.0" y="234.0" type="curve"/>
      <point x="164.0" y="189.0" type="line"/>
      <point x="227.0" y="154.0"/>
      <point x="276.0" y="141.0"/>
      <point x="355.0" y="141.0" type="curve" smooth="yes"/>
      <point x="514.0" y="141.0"/>
      <point x="623.0" y="205.0"/>
      <point x="623.0" y="337.0" type="curve" smooth="yes"/>
      <point x="623.0" y="485.0"/>
      <point x="507.0" y="571.0"/>
      <point x="346.0" y="571.0" type="curve" smooth="yes"/>
      <point x="175.0" y="571.0" type="line"/>
    </contour>
    <component base="I"/>
  </outline>
</glyph>
